<svg width="700" height="581" viewBox="0 0 700 581" fill="none" xmlns="http://www.w3.org/2000/svg">
<g clip-path="url(#clip0)">
<path d="M422.529 554.942C575.772 554.942 700 430.714 700 277.471C700 124.228 575.772 0 422.529 0C269.286 0 145.058 124.228 145.058 277.471C145.058 430.714 269.286 554.942 422.529 554.942Z" fill="#F2F2F2"/>
<path d="M678.427 544.527C678.427 556.03 526.556 580.234 339.214 580.234C151.871 580.234 0 556.03 0 544.527C0 533.024 151.871 538.576 339.214 538.576C526.556 538.576 678.427 533.024 678.427 544.527Z" fill="#2E4057"/>
<path opacity="0.1" d="M678.427 544.527C678.427 556.03 526.556 580.234 339.214 580.234C151.871 580.234 0 556.03 0 544.527C0 533.024 151.871 538.576 339.214 538.576C526.556 538.576 678.427 533.024 678.427 544.527Z" fill="black"/>
<path d="M339.214 565.357C526.556 565.357 678.427 556.032 678.427 544.528C678.427 533.025 526.556 523.699 339.214 523.699C151.871 523.699 0 533.025 0 544.528C0 556.032 151.871 565.357 339.214 565.357Z" fill="#2E4057"/>
<path d="M537.229 445.896C537.229 492.913 566.724 530.959 603.176 530.959L537.229 445.896Z" fill="#99C24D"/>
<path d="M603.176 530.959C603.176 483.414 636.091 444.941 676.769 444.941L603.176 530.959Z" fill="white"/>
<path d="M561.122 450.158C561.122 494.819 579.931 530.958 603.175 530.958L561.122 450.158Z" fill="#99C24D"/>
<path d="M603.176 530.959C603.176 470.207 641.221 421.047 688.238 421.047L603.176 530.959Z" fill="#99C24D"/>
<path d="M589.302 531.559C589.302 531.559 598.655 531.271 601.473 529.264C604.292 527.257 615.86 524.861 616.559 528.08C617.258 531.299 630.614 544.089 620.055 544.174C609.496 544.259 595.521 542.529 592.708 540.816C589.895 539.102 589.302 531.559 589.302 531.559Z" fill="#A8A8A8"/>
<path opacity="0.2" d="M620.243 543.053C609.685 543.138 595.709 541.409 592.896 539.695C590.754 538.39 589.9 533.707 589.614 531.547C589.417 531.555 589.302 531.559 589.302 531.559C589.302 531.559 589.895 539.102 592.708 540.815C595.521 542.529 609.496 544.259 620.055 544.174C623.103 544.149 624.156 543.065 624.098 541.459C623.674 542.429 622.512 543.035 620.243 543.053Z" fill="black"/>
<path d="M425.978 175.05C425.978 175.05 435.494 195.033 431.687 204.549C427.881 214.066 445.961 224.533 445.961 224.533L469.751 211.211V194.082L465.945 186.469C465.945 186.469 450.719 177.904 452.623 164.582C454.526 151.259 425.978 175.05 425.978 175.05Z" fill="#FFB9B9"/>
<path opacity="0.1" d="M425.978 175.05C425.978 175.05 435.494 195.033 431.687 204.549C427.881 214.066 445.961 224.533 445.961 224.533L469.751 211.211V194.082L465.945 186.469C465.945 186.469 450.719 177.904 452.623 164.582C454.526 151.259 425.978 175.05 425.978 175.05Z" fill="black"/>
<path d="M407.897 258.791C407.897 258.791 405.993 279.726 405.993 282.581C405.993 285.436 403.139 294.952 403.139 294.952C403.139 294.952 392.671 343.484 386.01 348.242C379.348 353 375.542 382.5 386.01 380.597C396.477 378.693 399.332 353 399.332 353L420.998 312.089L424.074 262.597L407.897 258.791Z" fill="#FFB9B9"/>
<path d="M415.51 216.92H407.897C407.897 216.92 400.284 262.597 407.897 264.5C415.51 266.403 429.784 266.403 429.784 266.403L415.51 216.92Z" fill="#94C6EE"/>
<path d="M458.332 510.967L462.138 529.047L469.751 523.338L465.945 507.16L458.332 510.014V510.967Z" fill="#FFB9B9"/>
<path d="M424.074 317.789L418.364 321.595C418.364 321.595 415.51 354.902 422.171 380.595C428.832 406.288 433.59 436.74 433.59 436.74C433.59 436.74 445.009 512.868 447.864 514.772C450.719 516.675 468.8 517.626 469.751 513.82C470.703 510.014 463.09 438.643 463.09 438.643C463.09 438.643 457.38 378.692 462.138 371.079C462.138 371.079 477.364 436.74 482.122 443.401C482.122 443.401 488.783 515.723 492.59 517.626C496.396 519.53 514.477 520.481 515.428 516.675C516.38 512.868 509.719 431.03 506.864 424.369C504.009 417.708 503.057 318.741 496.396 319.692C489.735 320.644 424.074 317.789 424.074 317.789Z" fill="#2F2E41"/>
<path d="M435.493 183.614C447.581 183.614 457.38 173.815 457.38 161.727C457.38 149.639 447.581 139.84 435.493 139.84C423.406 139.84 413.606 149.639 413.606 161.727C413.606 173.815 423.406 183.614 435.493 183.614Z" fill="#FFB9B9"/>
<path d="M444.058 210.258L439.3 201.694C439.3 201.694 433.59 194.081 430.735 195.984C427.88 197.887 427.88 204.549 427.88 204.549C427.88 204.549 405.993 212.161 407.897 222.629C409.8 233.097 422.171 251.177 422.171 251.177C422.171 251.177 424.074 266.403 422.171 270.21C420.267 274.016 416.461 276.871 419.316 280.677C422.171 284.484 423.122 285.435 422.171 290.193C421.219 294.951 419.316 296.855 421.219 298.758C423.122 300.661 420.267 320.645 418.364 321.596C416.461 322.548 479.267 332.064 484.025 329.209C488.783 326.354 502.106 326.354 501.154 323.5C500.203 320.645 496.396 303.516 496.396 300.661C496.396 297.806 496.396 285.435 495.444 284.484C494.493 283.532 496.396 269.258 496.396 269.258L491.638 229.29L506.864 205.5C506.864 205.5 503.057 192.178 484.977 190.275C466.896 188.371 461.895 183.613 461.895 183.613C461.895 183.613 460.235 192.178 456.429 194.081C452.622 195.984 444.058 210.258 444.058 210.258Z" fill="#94C6EE"/>
<path d="M513.525 235.951L519.235 278.774L506.864 340.628C506.864 340.628 502.106 375.837 492.59 374.886C483.074 373.934 492.59 336.822 492.59 336.822L500.203 278.774C500.203 278.774 487.832 249.274 490.686 245.467C493.541 241.661 513.525 235.951 513.525 235.951Z" fill="#FFB9B9"/>
<path d="M466.896 520.482C466.896 520.482 454.525 513.821 451.671 514.773C448.816 515.724 445.961 529.047 445.961 529.047C445.961 529.047 424.074 545.224 438.348 549.031C452.622 552.837 458.332 544.273 458.332 544.273C458.332 544.273 472.606 536.66 472.606 534.756C472.606 532.853 470.703 520.482 470.703 520.482H466.896Z" fill="#2F2E41"/>
<path d="M495.445 515.725C495.445 515.725 489.735 547.128 493.541 549.031C497.348 550.934 513.525 553.789 515.428 549.031C517.332 544.273 517.332 532.854 516.38 529.047C515.428 525.241 512.574 515.725 512.574 515.725H495.445Z" fill="#2F2E41"/>
<path d="M431.676 127.107C430.824 126.851 429.919 126.824 429.054 127.027C427.961 127.384 427.244 128.393 426.411 129.184C424.229 131.256 421.111 131.905 418.266 132.886C415.421 133.868 412.429 135.605 411.716 138.529C411.544 139.705 411.441 140.891 411.406 142.08C410.982 145.529 408.351 148.635 408.822 152.078C409.129 154.327 410.733 156.236 411.062 158.482C411.429 160.987 410.164 163.593 410.869 166.024C411.561 168.407 413.901 169.858 416.057 171.085C416.981 165.217 418.092 159.381 419.388 153.579C419.536 152.531 419.943 151.536 420.575 150.687C422.488 148.519 426.241 149.753 428.724 148.273C429.667 147.71 430.367 146.782 431.358 146.308C434.227 144.937 437.33 147.975 440.509 148.003C441.912 148.016 443.451 147.459 444.636 148.209C445.159 148.592 445.575 149.103 445.843 149.694C446.976 151.82 447.599 154.21 448.92 156.225C450.241 158.239 452.608 159.883 454.95 159.319C454.592 157.502 456.015 155.868 456.585 154.106C457.564 151.075 455.963 147.784 456.349 144.622C456.711 141.653 458.645 138.168 456.523 136.06C455.798 135.448 454.937 135.016 454.013 134.8C446.502 132.417 439.565 128.422 431.676 127.107Z" fill="#2F2E41"/>
<path d="M497.348 201.693L506.864 205.5C506.864 205.5 519.235 245.467 516.38 245.467C513.525 245.467 487.832 252.129 487.832 249.274C487.832 246.419 489.735 201.693 497.348 201.693Z" fill="#94C6EE"/>
<path d="M346.652 120.51H52.0723V217.215H63.2306V242.508L88.5228 217.215H346.652V120.51Z" fill="#2E4057"/>
<path d="M346.652 380.871H52.0723V477.577H63.2306V502.869L88.5228 477.577H346.652V380.871Z" fill="#2E4057"/>
<path d="M104.145 251.434H398.725V348.139H387.566V373.432L362.274 348.139H104.145V251.434Z" fill="#2E4057"/>
<path opacity="0.3" d="M312.434 136.504H86.2913V145.431H312.434V136.504Z" fill="white"/>
<path opacity="0.3" d="M199.362 153.613H86.2913V162.54H199.362V153.613Z" fill="white"/>
<path opacity="0.3" d="M98.9374 201.222C105.922 201.222 111.584 195.56 111.584 188.576C111.584 181.592 105.922 175.93 98.9374 175.93C91.9531 175.93 86.2913 181.592 86.2913 188.576C86.2913 195.56 91.9531 201.222 98.9374 201.222Z" fill="white"/>
<path d="M357.067 265.941H130.925V274.868H357.067V265.941Z" fill="white"/>
<path d="M243.996 283.051H130.925V291.978H243.996V283.051Z" fill="white"/>
<path d="M143.571 330.659C150.555 330.659 156.217 324.998 156.217 318.013C156.217 311.029 150.555 305.367 143.571 305.367C136.586 305.367 130.925 311.029 130.925 318.013C130.925 324.998 136.586 330.659 143.571 330.659Z" fill="white"/>
<path opacity="0.3" d="M312.434 396.865H86.2913V405.792H312.434V396.865Z" fill="white"/>
<path opacity="0.3" d="M199.362 413.975H86.2913V422.901H199.362V413.975Z" fill="white"/>
<path opacity="0.3" d="M98.9374 461.583C105.922 461.583 111.584 455.921 111.584 448.937C111.584 441.953 105.922 436.291 98.9374 436.291C91.9531 436.291 86.2913 441.953 86.2913 448.937C86.2913 455.921 91.9531 461.583 98.9374 461.583Z" fill="white"/>
</g>
<defs>
<clipPath id="clip0">
<rect width="700" height="580.234" fill="white"/>
</clipPath>
</defs>
</svg>
