<svg width="1120" height="699" viewBox="0 0 1120 699" fill="none" xmlns="http://www.w3.org/2000/svg">
<g clip-path="url(#clip0)">
<path d="M292.609 426C410.246 426 505.609 330.637 505.609 213C505.609 95.3633 410.246 0 292.609 0C174.972 0 79.6091 95.3633 79.6091 213C79.6091 330.637 174.972 426 292.609 426Z" fill="#F2F2F2"/>
<path d="M0 51.1406C0 128.639 48.6181 191.349 108.701 191.349Z" fill="#2E4057"/>
<path d="M108.701 191.35C108.701 112.981 162.956 49.5664 230.004 49.5664Z" fill="#99C24D"/>
<path d="M39.3843 58.168C39.3843 131.783 70.3871 191.351 108.701 191.351Z" fill="#99C24D"/>
<path d="M108.701 191.351C108.701 91.2138 171.411 10.1836 248.909 10.1836Z" fill="#2E4057"/>
<path d="M85.833 192.338C85.833 192.338 101.249 191.863 105.894 188.555C110.54 185.246 129.607 181.296 130.76 186.602C131.912 191.908 153.927 212.99 136.523 213.13C119.118 213.271 96.0832 210.419 91.4463 207.595C86.8094 204.77 85.833 192.338 85.833 192.338Z" fill="#A8A8A8"/>
<path opacity="0.2" d="M136.833 211.286C119.429 211.427 96.3938 208.575 91.7569 205.751C88.2256 203.6 86.8185 195.881 86.3476 192.32C86.0216 192.334 85.833 192.34 85.833 192.34C85.833 192.34 86.8094 204.773 91.4463 207.598C96.0832 210.422 119.118 213.274 136.523 213.133C141.546 213.093 143.282 211.305 143.186 208.658C142.489 210.257 140.572 211.256 136.833 211.286Z" fill="black"/>
<path d="M198.609 449.938C301.886 449.938 385.609 438.549 385.609 424.499C385.609 410.448 301.886 399.059 198.609 399.059C95.3319 399.059 11.6091 410.448 11.6091 424.499C11.6091 438.549 95.3319 449.938 198.609 449.938Z" fill="#2E4057"/>
<path opacity="0.1" d="M198.609 445.858C285.318 445.858 355.609 436.295 355.609 424.499C355.609 412.703 285.318 403.141 198.609 403.141C111.9 403.141 41.6091 412.703 41.6091 424.499C41.6091 436.295 111.9 445.858 198.609 445.858Z" fill="black"/>
<path d="M836.609 699C992.906 699 1119.61 681.763 1119.61 660.5C1119.61 639.237 992.906 622 836.609 622C680.313 622 553.609 639.237 553.609 660.5C553.609 681.763 680.313 699 836.609 699Z" fill="#2E4057"/>
<path d="M310.609 668.625C404.498 668.625 480.609 658.271 480.609 645.498C480.609 632.725 404.498 622.371 310.609 622.371C216.721 622.371 140.609 632.725 140.609 645.498C140.609 658.271 216.721 668.625 310.609 668.625Z" fill="#2E4057"/>
<path d="M462.609 626C552.609 649 725.609 596 744.609 536" stroke="#2E4057" stroke-width="2" stroke-miterlimit="10"/>
<path d="M309.609 258.999C309.609 258.999 439.609 222.999 447.609 338.999C455.609 454.999 340.609 487.999 430.609 510.999" stroke="#2E4057" stroke-width="2" stroke-miterlimit="10"/>
<path d="M184.011 537.282C184.011 537.282 223.084 526.462 225.488 561.327C227.893 596.191 193.329 606.11 220.379 613.022" stroke="#2E4057" stroke-width="2" stroke-miterlimit="10"/>
<path d="M778.704 563.241L770.827 613.536C770.827 613.536 732.045 634.139 759.314 634.745C786.582 635.351 915.047 634.745 915.047 634.745C915.047 634.745 939.891 634.745 900.504 612.93L892.626 560.211L778.704 563.241Z" fill="#2E4057"/>
<path opacity="0.1" d="M753.828 634.199C760.021 628.689 770.827 622.947 770.827 622.947L778.705 572.652L892.626 572.759L900.504 622.341C909.689 627.428 915.379 631.328 918.707 634.319C923.766 633.165 929.294 628.876 900.504 612.93L892.626 560.211L778.705 563.241L770.827 613.536C770.827 613.536 738.239 630.851 753.828 634.199Z" fill="black"/>
<path d="M1073.64 212.688H596.479C586.512 212.688 578.433 220.767 578.433 230.733V552.162C578.433 562.128 586.512 570.207 596.479 570.207H1073.64C1083.61 570.207 1091.69 562.128 1091.69 552.162V230.733C1091.69 220.767 1083.61 212.688 1073.64 212.688Z" fill="#2E4057"/>
<path d="M1074.42 231.777H595.703V499.614H1074.42V231.777Z" fill="#2E4057"/>
<path d="M835.06 226.321C836.733 226.321 838.089 224.965 838.089 223.292C838.089 221.618 836.733 220.262 835.06 220.262C833.386 220.262 832.03 221.618 832.03 223.292C832.03 224.965 833.386 226.321 835.06 226.321Z" fill="#F2F2F2"/>
<path d="M1091.69 520.82V552.161C1091.69 554.531 1091.22 556.877 1090.31 559.067C1089.41 561.256 1088.08 563.246 1086.4 564.922C1084.73 566.598 1082.74 567.927 1080.55 568.833C1078.36 569.74 1076.01 570.207 1073.64 570.207H596.479C594.109 570.207 591.762 569.74 589.573 568.833C587.383 567.927 585.394 566.598 583.718 564.922C582.042 563.246 580.713 561.256 579.806 559.067C578.899 556.877 578.433 554.531 578.433 552.161V520.82H1091.69Z" fill="#2E4057"/>
<path d="M968.978 667.467V673.527H642.968V668.679L643.417 667.467L651.452 645.652H962.312L968.978 667.467Z" fill="#2E4057"/>
<path d="M1094.44 661.533C1093.84 664.072 1091.6 666.75 1086.54 669.283C1068.36 678.373 1031.39 666.859 1031.39 666.859C1031.39 666.859 1002.91 662.012 1002.91 649.286C1003.71 648.739 1004.55 648.243 1005.41 647.802C1013.05 643.758 1038.39 633.781 1083.33 648.224C1086.64 649.263 1089.59 651.201 1091.87 653.821C1093.69 655.953 1095.12 658.656 1094.44 661.533Z" fill="#2E4057"/>
<path opacity="0.1" d="M1094.44 661.533C1072.19 670.059 1052.35 670.695 1032 656.558C1021.73 649.432 1012.41 647.668 1005.41 647.802C1013.05 643.758 1038.39 633.781 1083.33 648.224C1086.64 649.263 1089.59 651.201 1091.87 653.821C1093.69 655.953 1095.12 658.656 1094.44 661.533Z" fill="black"/>
<path d="M1066.54 656.559C1070.89 656.559 1074.42 655.473 1074.42 654.135C1074.42 652.796 1070.89 651.711 1066.54 651.711C1062.19 651.711 1058.66 652.796 1058.66 654.135C1058.66 655.473 1062.19 656.559 1066.54 656.559Z" fill="#F2F2F2"/>
<path d="M835.059 557.179C841.418 557.179 846.573 552.024 846.573 545.666C846.573 539.307 841.418 534.152 835.059 534.152C828.701 534.152 823.546 539.307 823.546 545.666C823.546 552.024 828.701 557.179 835.059 557.179Z" fill="#F2F2F2"/>
<path opacity="0.1" d="M968.978 667.465V673.525H642.968V668.677L643.417 667.465H968.978Z" fill="black"/>
<path d="M316.609 159H108.609V401H316.609V159Z" fill="#2E4057"/>
<path d="M337.609 135H87.6091V221H337.609V135Z" fill="#2E4057"/>
<path d="M337.609 237H87.6091V323H337.609V237Z" fill="#2E4057"/>
<path d="M337.609 339H87.6091V425H337.609V339Z" fill="#2E4057"/>
<path opacity="0.4" d="M287.609 150H271.609V166H287.609V150Z" fill="#99C24D"/>
<path opacity="0.8" d="M310.609 150H294.609V166H310.609V150Z" fill="#99C24D"/>
<path d="M333.609 150H317.609V166H333.609V150Z" fill="#99C24D"/>
<path opacity="0.4" d="M287.609 251H271.609V267H287.609V251Z" fill="#99C24D"/>
<path opacity="0.8" d="M310.609 251H294.609V267H310.609V251Z" fill="#99C24D"/>
<path d="M333.609 251H317.609V267H333.609V251Z" fill="#99C24D"/>
<path opacity="0.4" d="M287.609 352H271.609V368H287.609V352Z" fill="#99C24D"/>
<path opacity="0.8" d="M310.609 352H294.609V368H310.609V352Z" fill="#99C24D"/>
<path d="M333.609 352H317.609V368H333.609V352Z" fill="#99C24D"/>
<path d="M316.609 617C360.24 617 395.609 581.63 395.609 538C395.609 494.37 360.24 459 316.609 459C272.979 459 237.609 494.37 237.609 538C237.609 581.63 272.979 617 316.609 617Z" fill="#2E4057"/>
<path d="M304.609 600H280.609V643H304.609V600Z" fill="#2E4057"/>
<path d="M352.609 600H328.609V643H352.609V600Z" fill="#2E4057"/>
<path d="M300.609 651C311.655 651 320.609 647.642 320.609 643.5C320.609 639.358 311.655 636 300.609 636C289.563 636 280.609 639.358 280.609 643.5C280.609 647.642 289.563 651 300.609 651Z" fill="#2E4057"/>
<path d="M348.609 650C359.655 650 368.609 646.642 368.609 642.5C368.609 638.358 359.655 635 348.609 635C337.563 635 328.609 638.358 328.609 642.5C328.609 646.642 337.563 650 348.609 650Z" fill="#2E4057"/>
<path d="M318.609 545C333.521 545 345.609 532.912 345.609 518C345.609 503.088 333.521 491 318.609 491C303.697 491 291.609 503.088 291.609 518C291.609 532.912 303.697 545 318.609 545Z" fill="white"/>
<path d="M318.609 527C323.58 527 327.609 522.971 327.609 518C327.609 513.029 323.58 509 318.609 509C313.639 509 309.609 513.029 309.609 518C309.609 522.971 313.639 527 318.609 527Z" fill="#2E4057"/>
<path d="M239.977 464.531C233.598 435.964 253.988 407.097 285.52 400.056C317.053 393.016 347.786 410.466 354.165 439.034C360.543 467.602 339.646 478.138 308.114 485.179C276.582 492.22 246.355 493.099 239.977 464.531Z" fill="#99C24D"/>
<path d="M390.704 522.242C410.759 513.658 424.833 501.596 422.138 495.3C419.443 489.003 401.001 490.858 380.945 499.442C360.89 508.026 346.816 520.088 349.511 526.384C352.205 532.68 370.648 530.826 390.704 522.242Z" fill="#2E4057"/>
<path d="M242.704 575.242C262.759 566.658 276.833 554.596 274.138 548.299C271.443 542.003 253.001 543.858 232.945 552.442C212.89 561.026 198.816 573.088 201.511 579.384C204.205 585.68 222.648 583.826 242.704 575.242Z" fill="#2E4057"/>
<path d="M362.609 561C362.609 568.732 342.701 584 320.609 584C298.518 584 277.609 569.732 277.609 562C277.609 554.268 298.518 556 320.609 556C342.701 556 362.609 553.268 362.609 561Z" fill="white"/>
</g>
<defs>
<clipPath id="clip0">
<rect width="1119.61" height="699" fill="white"/>
</clipPath>
</defs>
</svg>
