<svg width="778" height="423" viewBox="0 0 778 423" fill="none" xmlns="http://www.w3.org/2000/svg">
<g clip-path="url(#clip0)">
<path d="M391.496 422.701C602.458 422.701 773.475 411.388 773.475 397.434C773.475 383.48 602.458 372.168 391.496 372.168C180.535 372.168 9.51758 383.48 9.51758 397.434C9.51758 411.388 180.535 422.701 391.496 422.701Z" fill="#F2F2F2"/>
<path d="M376.856 120.834C314.621 120.834 269.938 160.728 269.938 253.815C269.938 359.313 314.621 387.239 376.856 387.239C439.091 387.239 486.437 356.653 486.437 253.815C486.437 143.884 439.091 120.834 376.856 120.834ZM377.265 352.221C334.16 352.221 311.64 326.953 311.64 253.883C311.64 189.409 335.082 155.409 378.187 155.409C421.292 155.409 444.734 177.742 444.734 253.883C444.734 325.111 420.37 352.221 377.265 352.221Z" fill="#2E4057"/>
<path d="M232.671 313.656H206.94V237.948C206.94 233.927 205.341 230.07 202.495 227.227C199.65 224.383 195.79 222.786 191.765 222.786H185.736C183.743 222.786 181.77 223.178 179.929 223.94C178.088 224.702 176.415 225.819 175.006 227.227C173.596 228.635 172.479 230.306 171.716 232.146C170.954 233.985 170.561 235.957 170.561 237.948V313.656H97.9813C96.4882 313.656 95.0204 313.27 93.7204 312.537C92.4204 311.803 91.3322 310.746 90.5616 309.468C89.7909 308.19 89.3638 306.735 89.3218 305.244C89.2798 303.753 89.6242 302.276 90.3217 300.957L167.139 155.689C168.097 153.878 168.677 151.892 168.846 149.85C169.014 147.809 168.766 145.754 168.118 143.811C167.47 141.868 166.434 140.076 165.073 138.544C163.713 137.012 162.056 135.771 160.202 134.896L155.667 132.756C152.146 131.095 148.12 130.85 144.423 132.071C140.726 133.293 137.64 135.888 135.805 139.319L42.1156 314.433C40.5202 317.415 39.6855 320.744 39.6855 324.126C39.6855 326.825 40.2178 329.499 41.2519 331.993C42.2859 334.488 43.8016 336.754 45.7123 338.663C47.6231 340.572 49.8914 342.087 52.3879 343.12C54.8844 344.153 57.5601 344.685 60.2623 344.685H170.561V392.558C170.561 394.945 171.031 397.308 171.946 399.513C172.86 401.718 174.199 403.721 175.889 405.409C177.578 407.096 179.583 408.435 181.79 409.348C183.996 410.262 186.362 410.732 188.75 410.732H188.75C191.139 410.732 193.504 410.262 195.711 409.348C197.918 408.435 199.923 407.096 201.612 405.409C203.301 403.721 204.641 401.718 205.555 399.513C206.469 397.308 206.94 394.945 206.94 392.558V344.685H232.671C236.79 344.685 240.739 343.05 243.651 340.141C246.563 337.231 248.199 333.285 248.199 329.17C248.199 325.056 246.563 321.11 243.651 318.2C240.739 315.291 236.79 313.656 232.671 313.656Z" fill="#2E4057"/>
<path d="M709.147 313.656H683.415V237.948C683.415 233.927 681.817 230.07 678.971 227.227C676.125 224.383 672.265 222.786 668.241 222.786H662.211C660.218 222.786 658.245 223.178 656.404 223.94C654.563 224.702 652.89 225.819 651.481 227.227C650.072 228.635 648.954 230.306 648.192 232.146C647.429 233.985 647.036 235.957 647.036 237.948V313.656H574.457C572.964 313.656 571.496 313.27 570.196 312.537C568.896 311.803 567.808 310.746 567.037 309.468C566.266 308.19 565.839 306.735 565.797 305.244C565.755 303.753 566.1 302.276 566.797 300.957L643.615 155.689C644.572 153.878 645.153 151.892 645.321 149.85C645.489 147.809 645.242 145.754 644.593 143.811C643.945 141.868 642.909 140.076 641.549 138.544C640.188 137.012 638.531 135.771 636.677 134.896L632.143 132.756C628.621 131.095 624.596 130.85 620.899 132.071C617.202 133.293 614.116 135.888 612.28 139.319L518.591 314.433C516.996 317.415 516.161 320.744 516.161 324.126C516.161 329.578 518.329 334.808 522.188 338.663C526.047 342.519 531.281 344.685 536.738 344.685H647.036V392.558C647.036 397.378 648.953 402.001 652.364 405.409C655.775 408.817 660.402 410.732 665.226 410.732C670.05 410.732 674.677 408.817 678.088 405.409C681.499 402.001 683.415 397.378 683.415 392.558V344.685H709.147C713.265 344.685 717.214 343.05 720.126 340.141C723.038 337.231 724.674 333.285 724.674 329.17C724.674 325.056 723.038 321.11 720.126 318.2C717.214 315.291 713.265 313.656 709.147 313.656Z" fill="#2E4057"/>
<path d="M239.77 304.791H214.038V229.083C214.038 227.091 213.646 225.12 212.883 223.28C212.12 221.441 211.003 219.769 209.593 218.361C208.184 216.954 206.512 215.837 204.67 215.075C202.829 214.313 200.856 213.921 198.863 213.921H192.834C188.809 213.921 184.95 215.518 182.104 218.361C179.258 221.205 177.659 225.061 177.659 229.083V304.791H105.079C103.586 304.791 102.119 304.405 100.819 303.671C99.5185 302.938 98.4304 301.881 97.6597 300.603C96.889 299.325 96.4619 297.87 96.4199 296.379C96.3779 294.887 96.7224 293.411 97.4199 292.092L174.237 146.824C175.195 145.013 175.776 143.027 175.944 140.985C176.112 138.944 175.865 136.889 175.216 134.946C174.568 133.003 173.532 131.211 172.172 129.679C170.811 128.146 169.154 126.905 167.3 126.031L162.765 123.891C159.244 122.23 155.218 121.985 151.521 123.206C147.824 124.428 144.739 127.022 142.903 130.454L49.2138 305.568C47.6184 308.55 46.7837 311.879 46.7837 315.26V315.26C46.7837 320.713 48.9516 325.942 52.8105 329.798C56.6694 333.654 61.9032 335.82 67.3605 335.82H177.659V383.693C177.659 386.079 178.13 388.443 179.044 390.648C179.958 392.852 181.298 394.856 182.987 396.544C184.676 398.231 186.681 399.57 188.888 400.483C191.095 401.397 193.46 401.867 195.849 401.867H195.849C200.673 401.867 205.299 399.952 208.71 396.544C212.122 393.135 214.038 388.513 214.038 383.693V335.82H239.769C241.809 335.82 243.828 335.418 245.712 334.639C247.596 333.859 249.307 332.716 250.749 331.276C252.191 329.835 253.335 328.125 254.115 326.242C254.895 324.36 255.297 322.343 255.297 320.305V320.305C255.297 318.268 254.895 316.25 254.115 314.368C253.335 312.486 252.191 310.776 250.749 309.335C249.307 307.894 247.596 306.751 245.712 305.972C243.828 305.192 241.809 304.791 239.77 304.791V304.791Z" stroke="#333333" stroke-miterlimit="10"/>
<path d="M722.456 304.791H696.725V229.083C696.725 225.061 695.126 221.205 692.28 218.361C689.435 215.518 685.575 213.921 681.55 213.921H675.521C673.528 213.921 671.555 214.313 669.714 215.075C667.873 215.837 666.2 216.954 664.791 218.361C663.382 219.769 662.264 221.441 661.501 223.28C660.739 225.12 660.346 227.091 660.346 229.083V304.791H587.766C586.273 304.791 584.806 304.405 583.506 303.671C582.206 302.938 581.117 301.881 580.347 300.603C579.576 299.325 579.149 297.87 579.107 296.379C579.065 294.887 579.409 293.411 580.107 292.092L656.924 146.824C657.882 145.013 658.463 143.027 658.631 140.985C658.799 138.944 658.552 136.889 657.903 134.946C657.255 133.003 656.219 131.211 654.859 129.679C653.498 128.146 651.841 126.905 649.987 126.031L645.452 123.891C641.931 122.23 637.905 121.985 634.208 123.206C630.511 124.428 627.426 127.022 625.59 130.454L531.901 305.568C530.305 308.55 529.471 311.879 529.471 315.26C529.471 320.713 531.639 325.942 535.498 329.798C539.356 333.654 544.59 335.82 550.047 335.82H660.346V383.693C660.346 388.513 662.263 393.135 665.674 396.544C669.085 399.952 673.711 401.867 678.536 401.867V401.867C683.36 401.867 687.986 399.952 691.397 396.544C694.809 393.135 696.725 388.513 696.725 383.693V335.82H722.456C724.496 335.82 726.515 335.418 728.399 334.639C730.282 333.859 731.994 332.716 733.436 331.276C734.878 329.835 736.022 328.125 736.802 326.242C737.582 324.36 737.984 322.343 737.984 320.305V320.305C737.984 316.191 736.348 312.244 733.436 309.335C730.524 306.425 726.575 304.791 722.456 304.791V304.791Z" stroke="#333333" stroke-miterlimit="10"/>
<path d="M391.053 112.855C328.818 112.855 284.134 152.75 284.134 245.836C284.134 351.334 328.818 379.26 391.053 379.26C453.288 379.26 500.633 348.675 500.633 245.836C500.633 135.905 453.288 112.855 391.053 112.855ZM391.462 344.242C348.357 344.242 325.837 318.975 325.837 245.904C325.837 181.43 349.279 147.43 392.384 147.43C435.489 147.43 458.931 169.764 458.931 245.904C458.931 317.133 434.567 344.242 391.462 344.242V344.242Z" stroke="#333333" stroke-miterlimit="10"/>
<path d="M341.168 22.5395C346.327 22.5395 350.51 18.3604 350.51 13.2053C350.51 8.05016 346.327 3.87109 341.168 3.87109C336.008 3.87109 331.826 8.05016 331.826 13.2053C331.826 18.3604 336.008 22.5395 341.168 22.5395Z" fill="#333333"/>
<path d="M363.954 67.8438C378.425 67.8438 390.157 52.6564 390.157 33.9219C390.157 15.1873 378.425 0 363.954 0C349.482 0 337.75 15.1873 337.75 33.9219C337.75 52.6564 349.482 67.8438 363.954 67.8438Z" fill="#333333"/>
<path opacity="0.1" d="M363.954 57.5983C350.827 57.5983 339.955 45.1028 338.047 28.7988C337.849 30.4991 337.75 32.2095 337.75 33.9213C337.75 52.6558 349.482 67.8431 363.954 67.8431C378.425 67.8431 390.157 52.6558 390.157 33.9213C390.158 32.2095 390.058 30.4991 389.86 28.7988C387.952 45.1028 377.08 57.5983 363.954 57.5983Z" fill="black"/>
<path d="M417.275 133.264C416.712 135.575 414.285 137.425 411.598 138.718C405.949 141.436 398.98 142.247 392.221 142.519C390.496 142.624 388.766 142.592 387.047 142.424C383.715 142.102 380.59 140.666 378.176 138.35C378.004 138.237 377.863 138.083 377.766 137.902C377.67 137.72 377.621 137.518 377.624 137.312C377.627 137.107 377.682 136.905 377.784 136.727C377.886 136.548 378.032 136.399 378.208 136.292C381.806 132.342 387.811 129.921 393.861 128.177C398.448 126.855 406.447 123.43 411.45 123.892C416.296 124.34 417.985 130.347 417.275 133.264Z" fill="#333333"/>
<path opacity="0.1" d="M417.275 133.264C416.712 135.575 414.285 137.425 411.598 138.718C405.949 141.436 398.98 142.247 392.221 142.519C390.496 142.624 388.766 142.592 387.047 142.424C383.715 142.102 380.59 140.666 378.176 138.35C378.004 138.237 377.863 138.083 377.766 137.902C377.67 137.72 377.621 137.518 377.624 137.312C377.627 137.107 377.682 136.905 377.784 136.727C377.886 136.548 378.032 136.399 378.208 136.292C381.806 132.342 387.811 129.921 393.861 128.177C398.448 126.855 406.447 123.43 411.45 123.892C416.296 124.34 417.985 130.347 417.275 133.264Z" fill="black"/>
<path d="M345.442 115.994C343.717 119.371 343.405 123.294 344.574 126.901C345.763 130.481 347.988 133.628 350.967 135.943C358.277 141.797 368.338 142.603 377.706 142.522C385.916 142.45 394.115 141.889 402.258 140.84C404.986 140.599 407.668 139.977 410.224 138.992C413.282 137.67 415.969 135.246 417.057 132.1C418.146 128.954 417.373 125.102 414.788 123.002C412.516 121.158 409.384 120.904 406.462 120.729L389.743 119.725C391.395 118.055 393.594 117.11 395.606 115.896C398.274 114.285 400.047 111.58 401.988 109.142C404.977 105.572 408.23 102.23 411.719 99.1451C412.263 102.264 414.238 104.825 416.561 106.976C418.885 109.128 421.564 110.861 423.979 112.909C429.829 117.872 434.042 124.606 440.194 129.189C444.427 128.078 448.383 126.104 451.815 123.392L449.424 119.064C449.225 118.619 448.915 118.232 448.523 117.941C447.846 117.525 446.974 117.739 446.188 117.621C444.087 117.307 443.17 114.884 442.346 112.928C440.083 107.558 435.75 103.392 432.05 98.8886C429.319 95.5646 426.896 91.9991 424.812 88.2364C423.569 85.9924 422.431 83.6558 420.744 81.7225C419.057 79.7891 416.693 78.2691 414.127 78.2637C411.858 78.2589 409.766 79.4094 407.816 80.5667C401.877 84.0917 396.162 87.9818 390.705 92.2145C387.849 94.4297 385.011 96.7701 381.661 98.1285C380.251 98.7003 378.764 99.0912 377.411 99.787C375.041 101.006 373.242 103.068 371.306 104.898C364.399 111.426 354.943 115.656 345.442 115.994Z" fill="#333333"/>
<path d="M380.4 69.5287C380.323 71.5243 379.898 73.4911 379.145 75.341C378.763 76.2636 378.195 77.0978 377.477 77.7915C376.758 78.4852 375.904 79.0235 374.968 79.3729C373.639 79.7287 372.246 79.7739 370.896 79.505C369.72 79.3822 368.586 78.9962 367.579 78.3758C366.011 77.2989 365.229 75.3774 364.945 73.4969C364.66 71.6187 364.787 69.6995 364.605 67.8076C364.428 66.2795 364.137 64.7667 363.735 63.2817C363.612 62.7876 363.486 62.2959 363.363 61.8041C363.243 61.3124 363.124 60.8206 363.015 60.3289C362.914 59.8667 362.821 59.4023 362.741 58.9356C362.675 58.5417 362.616 58.1456 362.573 57.7472C362.533 56.566 362.336 55.3955 361.987 54.2662C361.66 53.5338 361.25 52.841 360.766 52.2013C360.558 51.9053 360.358 51.6094 360.173 51.302C359.639 50.5033 359.391 49.5478 359.469 48.5905C359.491 48.4425 359.527 48.297 359.576 48.1557C359.595 48.1011 359.615 48.0465 359.638 47.9941C359.843 47.9385 360.031 47.8337 360.186 47.6889C360.342 47.5441 360.459 47.3636 360.529 47.1631C360.607 46.7324 360.57 46.2886 360.422 45.8768C360.251 45.3013 360.018 44.7462 359.727 44.2216C359.535 43.8756 358.886 43.2518 358.881 42.8556C358.872 42.0588 360.431 41.4168 361.062 41.1026C362.989 40.1387 365.137 39.7035 367.287 39.8414C368.666 39.9347 370.16 40.3582 370.921 41.5124C371.605 42.5528 371.514 43.9006 371.805 45.1095C371.836 45.2852 371.911 45.4504 372.022 45.5899C372.171 45.7253 372.358 45.8112 372.557 45.8357C372.895 45.9028 373.241 45.9167 373.583 45.8767H373.585C373.675 45.8696 373.765 45.8567 373.854 45.838C374.386 45.7399 374.889 45.5228 375.326 45.2029C375.608 45.1277 375.893 45.0662 376.18 45.0184C376.192 45.0173 376.203 45.015 376.215 45.0116C377.356 48.611 377.504 52.4699 378.438 56.1353C378.901 57.9588 379.564 59.7597 379.657 61.6356C379.664 61.7176 379.667 61.8018 379.669 61.886C379.682 62.4893 379.635 63.0972 379.66 63.6982C379.668 63.9689 379.699 64.2384 379.751 64.5042C379.853 64.9316 379.98 65.3528 380.131 65.7654L380.138 65.7859C380.181 65.918 380.222 66.0523 380.257 66.1866C380.282 66.2845 380.305 66.3801 380.323 66.478L380.325 66.4848C380.494 67.4908 380.519 68.5156 380.4 69.5287Z" fill="#FBBEBE"/>
<path d="M364.409 45.9874C371.834 45.9874 377.852 39.9736 377.852 32.5552C377.852 25.1368 371.834 19.123 364.409 19.123C356.984 19.123 350.965 25.1368 350.965 32.5552C350.965 39.9736 356.984 45.9874 364.409 45.9874Z" fill="#FBBEBE"/>
<path d="M449.76 105.741C449.37 102.076 448.066 98.5675 445.968 95.5367C446.317 97.6084 446.666 99.6794 447.016 101.75C446.581 101.875 446.118 101.872 445.685 101.739C445.252 101.606 444.867 101.349 444.578 101.001C444.012 100.294 443.579 99.4914 443.3 98.6306C441.772 94.8423 439.775 91.2605 437.355 87.9691C428.797 87.2566 420.336 83.7118 412.81 79.5797C405.282 75.4499 398.237 70.4982 390.808 66.1931C389.521 65.4153 388.179 64.7306 386.794 64.1441C384.469 63.2129 381.86 62.7303 379.657 61.6353C379.509 61.5624 379.361 61.485 379.215 61.4053C378.717 61.1348 378.246 60.8185 377.807 60.4605C377.57 60.268 377.344 60.0612 377.132 59.8413C376.033 58.5634 375.161 57.1064 374.555 55.5339C373.373 52.9203 372.951 49.7671 371.771 47.1536C372.313 46.647 372.923 46.2173 373.582 45.8764H373.585C373.68 45.8263 373.776 45.7785 373.874 45.733C374.341 45.5132 374.827 45.3357 375.326 45.2025C375.608 45.1274 375.893 45.0659 376.18 45.0181C376.192 45.0169 376.203 45.0146 376.214 45.0112C377.546 44.7945 378.91 44.9023 380.19 45.3254C382.063 45.9583 383.642 47.2219 385.217 48.4171C387.775 50.2176 390.228 52.162 392.565 54.2407C393.864 55.4837 395.049 56.8497 396.446 57.979C397.606 58.874 398.83 59.6843 400.107 60.4036C407.665 64.9022 415.224 69.4001 422.784 73.8972C425.342 75.4203 427.904 76.9434 430.405 78.5552C434.206 81.0049 437.87 83.6594 441.532 86.3117C443.689 87.8735 445.847 89.436 448.003 90.9993C448.71 91.4502 449.331 92.0239 449.837 92.6931C450.284 93.453 450.561 94.3002 450.651 95.1769C451.192 98.7191 450.886 102.339 449.76 105.741Z" fill="#FBBEBE"/>
<path d="M383.734 79.6292C382.827 83.693 378.716 86.1496 376.568 89.7193C373.897 94.1496 374.986 99.2994 375.989 104.374C374.157 105.952 372.324 107.529 370.491 109.107C369.479 109.975 368.467 110.846 367.378 111.614C365.79 112.677 364.13 113.629 362.411 114.464C360.788 115.297 359.166 116.131 357.544 116.966C356.036 117.813 354.438 118.49 352.779 118.983C349.582 119.803 346.187 119.229 343.025 118.28C342.652 118.182 342.293 118.036 341.958 117.845C341.761 117.727 341.589 117.572 341.453 117.387C341.141 116.829 341.027 116.181 341.131 115.55C341.453 110.232 342.754 105.025 344.05 99.8572C344.743 96.7567 345.675 93.7145 346.837 90.7574C347.977 88.2237 349.287 85.7699 350.758 83.413C352.382 80.4475 354.306 77.6562 356.5 75.0828C357.568 74.0923 358.467 72.9342 359.162 71.6542C359.97 69.8101 359.658 67.6951 359.822 65.6871C359.948 64.1785 360.349 62.7055 361.005 61.341V61.3388C361.356 60.6038 361.779 59.9053 362.267 59.2534C362.488 59.7679 362.709 60.2816 362.93 60.7946C363.076 61.1316 363.22 61.4678 363.363 61.8032C363.55 62.2358 363.735 62.6668 363.919 63.0963C364.45 64.3303 364.98 65.5635 365.51 66.7959C366.082 68.3481 366.897 69.7998 367.925 71.0965C368.395 71.7605 369.029 72.2913 369.766 72.6373C370.502 72.9832 371.316 73.1324 372.127 73.0702C372.939 73.0081 373.72 72.7367 374.396 72.2826C375.071 71.8285 375.617 71.2073 375.98 70.4795C376.746 69.1209 377.3 67.654 377.625 66.1288C378.075 64.2718 378.137 62.3421 377.807 60.46C377.258 56.8356 375.715 53.1338 374.594 49.7667C374.138 48.644 373.874 47.4526 373.813 46.2424C373.815 46.1064 373.829 45.9709 373.854 45.8372C373.861 45.803 373.867 45.7666 373.874 45.7324C374.341 45.5127 374.827 45.3352 375.326 45.202C375.608 45.1269 375.893 45.0654 376.18 45.0176C377.167 50.354 378.155 55.6904 379.145 61.0269C379.167 61.1521 379.192 61.2773 379.215 61.4048C379.357 62.1697 379.5 62.9347 379.66 63.6974C379.803 64.3895 379.958 65.0793 380.131 65.7646L380.138 65.785C380.197 66.0173 380.259 66.2472 380.323 66.4772L380.325 66.484C380.5 67.1123 380.696 67.7361 380.917 68.3508C382.257 72.0549 384.593 75.784 383.734 79.6292Z" fill="#2E4057"/>
<path d="M438.293 136.74C438.251 137.523 438.402 138.304 438.735 139.014C439.576 140.55 441.595 140.9 443.342 141.043C453.547 141.881 463.813 141.569 473.948 140.112C474.498 140.074 475.031 139.909 475.506 139.628C476.947 138.619 476.058 136.159 474.485 135.372C472.912 134.584 471.044 134.774 469.318 134.433C467.603 134.002 465.97 133.294 464.482 132.337C460.981 130.328 457.531 128.232 454.132 126.052C452.109 124.753 449.72 123.367 447.442 124.137C441.268 126.224 438.252 130.086 438.293 136.74Z" fill="#333333"/>
<path d="M363.067 60.0438V60.0461C363.051 60.1417 363.035 60.235 363.015 60.3284C362.989 60.4832 362.96 60.6403 362.93 60.795C362.648 62.2407 362.301 63.6795 361.903 65.1093C360.809 69.0592 359.344 72.9455 357.89 76.7748C353.989 87.0424 350.087 97.3108 346.185 107.58C345.201 110.166 344.219 112.755 343.1 115.289C342.726 116.133 342.341 116.985 341.958 117.845C340.587 120.926 339.27 124.106 338.832 127.384C338.424 129.542 338.377 131.752 338.693 133.925C339.131 136.074 340.436 138.173 342.48 138.968C343.478 139.357 344.907 139.879 344.633 140.914C344.485 141.484 343.838 141.761 343.257 141.857C342.49 141.979 341.705 141.931 340.958 141.716C340.212 141.501 339.522 141.125 338.937 140.614C337.845 139.646 337.007 138.141 335.556 137.98C334.551 137.871 333.626 138.472 332.705 138.893C328.95 140.607 324.575 139.407 320.631 138.189C320.941 136.593 322.545 135.542 324.138 135.223C325.73 134.902 327.378 135.13 329.002 135.086C329.523 135.114 330.039 134.981 330.481 134.706C330.878 134.342 331.155 133.868 331.279 133.345C332.325 130.246 333.103 127.064 333.605 123.833C334.129 120.457 334.348 117.028 335.095 113.693C335.676 111.09 336.574 108.57 337.344 106.016C338.833 100.757 340.056 95.4255 341.008 90.043C341.489 87.8068 341.834 85.5434 342.04 83.2655C342.17 81.3758 342.109 79.4771 342.291 77.5944C342.597 75.1449 343.108 72.7254 343.82 70.3615C344.517 67.7821 345.214 65.2042 345.909 62.6277C346.941 58.8144 348.049 54.8531 350.665 51.8889C351.573 50.8453 352.686 49.9993 353.936 49.4033C355.185 48.8073 356.543 48.4739 357.926 48.4238C358.445 48.4232 358.962 48.4789 359.469 48.59C359.553 48.6105 359.638 48.631 359.722 48.6538C360.274 48.798 360.804 49.0171 361.296 49.3049C362.103 48.7926 362.513 48.9725 363.049 49.7625C363.518 50.5985 363.739 51.5509 363.687 52.5081C363.732 55.0344 363.524 57.5588 363.067 60.0438Z" fill="#FBBEBE"/>
<path d="M363.953 63.0637L363.919 63.0978L363.734 63.2823L361.902 65.1104L361.005 61.3426L357.926 48.4249C358.445 48.4243 358.962 48.48 359.469 48.5911C359.491 48.4431 359.527 48.2975 359.576 48.1562L359.722 48.6548L360.765 52.2018L362.741 58.9361L363.067 60.0449V60.0471L363.953 63.0637Z" fill="#2E4057"/>
<path d="M375.579 21.8528C375.577 23.0489 375.34 24.233 374.88 25.3374C374.42 26.4418 373.747 27.4448 372.899 28.2891C372.592 28.5964 372.263 28.8808 371.914 29.1402C370.342 30.3245 368.426 30.9655 366.457 30.9664H355.526C353.11 30.9627 350.795 30.0014 349.088 28.2935C347.381 26.5856 346.423 24.2707 346.423 21.8572C346.423 19.4438 347.381 17.1289 349.088 15.421C350.795 13.7131 353.11 12.7518 355.526 12.748H366.457C368.873 12.7543 371.188 13.7153 372.897 15.4212C374.606 17.127 375.57 19.4392 375.579 21.8528Z" fill="#333333"/>
<path d="M385.827 22.5395C390.987 22.5395 395.17 18.3604 395.17 13.2053C395.17 8.05016 390.987 3.87109 385.827 3.87109C380.668 3.87109 376.485 8.05016 376.485 13.2053C376.485 18.3604 380.668 22.5395 385.827 22.5395Z" fill="#333333"/>
<path opacity="0.1" d="M385.6 3.87109C385.485 3.87109 385.371 3.87564 385.258 3.87973C387.674 3.96751 389.963 4.98845 391.641 6.72774C393.32 8.46703 394.258 10.7891 394.258 13.2053C394.258 15.6215 393.32 17.9436 391.641 19.6829C389.963 21.4221 387.674 22.4431 385.258 22.5309C385.371 22.535 385.485 22.5395 385.6 22.5395C388.077 22.5395 390.453 21.5561 392.205 19.8056C393.957 18.0551 394.942 15.6809 394.942 13.2053C394.942 10.7297 393.957 8.35553 392.205 6.60502C390.453 4.85452 388.077 3.87109 385.6 3.87109Z" fill="black"/>
<path opacity="0.1" d="M341.167 3.87109C341.282 3.87109 341.396 3.87564 341.509 3.87973C339.093 3.96751 336.804 4.98845 335.125 6.72774C333.447 8.46703 332.509 10.7891 332.509 13.2053C332.509 15.6215 333.447 17.9436 335.125 19.6829C336.804 21.4221 339.093 22.4431 341.509 22.5309C341.395 22.535 341.282 22.5395 341.167 22.5395C338.691 22.5373 336.317 21.5529 334.567 19.8027C332.817 18.0524 331.833 15.6795 331.833 13.2053C331.833 10.7311 332.817 8.35819 334.567 6.60793C336.317 4.85766 338.691 3.87327 341.167 3.87109Z" fill="black"/>
<path opacity="0.1" d="M371.914 29.1387C370.342 30.323 368.426 30.964 366.457 30.9649H355.526C353.557 30.964 351.641 30.323 350.069 29.1387H371.914Z" fill="black"/>
<path d="M442.506 96.7745C442.506 96.7745 444.861 103.555 447.017 101.75L445.298 92.8867L442.506 96.7745Z" fill="#FBBEBE"/>
<path d="M729.101 303.55C731.294 304.347 733.643 304.624 735.962 304.359C738.281 304.094 740.507 303.294 742.464 302.023C744.42 300.752 746.055 299.045 747.239 297.035C748.423 295.025 749.123 292.768 749.285 290.441C749.446 288.115 749.065 285.782 748.171 283.628C747.276 281.474 745.893 279.557 744.131 278.028C742.369 276.499 740.275 275.4 738.015 274.817C735.755 274.235 733.39 274.185 731.108 274.671L731.485 282.421L727.815 275.779C724.213 277.47 721.43 280.521 720.078 284.26C719.598 285.571 719.306 286.942 719.212 288.334C718.98 291.599 719.82 294.852 721.604 297.597C723.389 300.343 726.021 302.433 729.101 303.55Z" fill="#99C24D"/>
<path d="M747.26 393.442C745.965 386.851 751.578 381.007 757.123 377.209C762.668 373.411 769.148 369.679 771.04 363.233C773.759 353.969 765.659 345.485 759.355 338.169C754.678 332.74 750.662 326.776 747.39 320.401C746.079 317.846 744.873 315.174 744.528 312.322C744.031 308.216 745.351 304.13 746.682 300.213C751.113 287.165 755.851 274.226 760.895 261.396" stroke="#333333" stroke-miterlimit="10"/>
<path d="M729.722 301.556C731.915 302.353 734.264 302.629 736.583 302.365C738.902 302.1 741.128 301.3 743.085 300.029C745.042 298.758 746.676 297.05 747.86 295.04C749.044 293.031 749.744 290.773 749.906 288.447C750.067 286.12 749.686 283.788 748.792 281.634C747.897 279.48 746.515 277.563 744.752 276.034C742.99 274.505 740.896 273.406 738.636 272.823C736.376 272.241 734.011 272.19 731.729 272.677L732.106 280.427L728.436 273.785C724.834 275.476 722.051 278.526 720.7 282.266C720.219 283.576 719.928 284.948 719.833 286.34C719.601 289.605 720.441 292.857 722.225 295.603C724.01 298.349 726.642 300.439 729.722 301.556V301.556Z" stroke="#333333" stroke-miterlimit="10"/>
<path d="M745.418 258.72C746.279 256.347 747.724 254.228 749.62 252.559C751.515 250.891 753.801 249.725 756.266 249.171L757.507 256.539L759.807 248.801C763.001 248.848 766.098 249.908 768.65 251.829C771.202 253.749 773.076 256.43 774.004 259.484C774.931 262.539 774.863 265.809 773.81 268.822C772.756 271.835 770.771 274.436 768.141 276.248C765.512 278.061 762.374 278.992 759.181 278.906C755.987 278.821 752.903 277.724 750.375 275.773C747.846 273.823 746.003 271.12 745.112 268.054C744.222 264.989 744.329 261.72 745.418 258.72H745.418Z" fill="#99C24D"/>
<path d="M746.246 256.06C747.106 253.686 748.551 251.568 750.447 249.899C752.343 248.23 754.628 247.065 757.093 246.511L758.334 253.879L760.634 246.141C763.829 246.188 766.925 247.248 769.477 249.169C772.029 251.089 773.904 253.77 774.831 256.824C775.758 259.879 775.691 263.148 774.637 266.162C773.583 269.175 771.598 271.776 768.969 273.588C766.339 275.401 763.201 276.332 760.008 276.246C756.814 276.161 753.731 275.064 751.202 273.113C748.673 271.162 746.831 268.459 745.94 265.394C745.049 262.329 745.156 259.06 746.245 256.06H746.246Z" stroke="#333333" stroke-miterlimit="10"/>
<path d="M756.71 338.318C760.189 339.579 764.01 339.517 767.446 338.144C770.882 336.77 773.692 334.181 775.34 330.871C776.988 327.561 777.36 323.76 776.384 320.193C775.408 316.627 773.153 313.544 770.048 311.532L768.28 317.479L767.026 310.024C767.014 310.018 767.001 310.013 766.988 310.009C765.127 309.333 763.152 309.031 761.174 309.118C759.196 309.206 757.255 309.682 755.461 310.519C753.667 311.357 752.057 312.539 750.72 313.998C749.384 315.458 748.349 317.166 747.674 319.026C746.999 320.886 746.697 322.86 746.786 324.836C746.874 326.812 747.352 328.751 748.191 330.543C749.03 332.334 750.215 333.943 751.676 335.277C753.138 336.612 754.848 337.645 756.71 338.318H756.71Z" fill="#99C24D"/>
<path d="M757.427 335.625C760.906 336.886 764.727 336.824 768.163 335.45C771.599 334.077 774.409 331.488 776.057 328.178C777.705 324.867 778.077 321.066 777.101 317.5C776.125 313.933 773.869 310.85 770.764 308.839L768.997 314.785L767.743 307.33C767.731 307.324 767.718 307.32 767.705 307.316C765.844 306.64 763.868 306.337 761.891 306.425C759.913 306.512 757.972 306.988 756.178 307.826C754.384 308.663 752.773 309.845 751.437 311.305C750.101 312.765 749.066 314.473 748.391 316.333C747.716 318.192 747.414 320.166 747.502 322.142C747.591 324.119 748.069 326.058 748.908 327.849C749.747 329.641 750.931 331.25 752.393 332.584C753.855 333.918 755.565 334.952 757.427 335.625H757.427Z" stroke="#333333" stroke-miterlimit="10"/>
<path d="M741.02 363.325C741.618 366.726 743.368 369.817 745.977 372.082C748.586 374.346 751.894 375.645 755.348 375.762C758.802 375.878 762.191 374.804 764.946 372.72C767.701 370.636 769.656 367.669 770.482 364.316C771.307 360.964 770.954 357.429 769.481 354.306C768.009 351.182 765.506 348.66 762.392 347.161C759.279 345.663 755.745 345.279 752.382 346.075C749.02 346.872 746.033 348.799 743.924 351.534L750.638 361.631L741.464 356.272C740.752 358.553 740.6 360.972 741.02 363.325Z" fill="#99C24D"/>
<path d="M741.641 361.331C742.239 364.732 743.989 367.823 746.598 370.088C749.207 372.352 752.515 373.651 755.969 373.767C759.423 373.884 762.812 372.81 765.567 370.726C768.322 368.642 770.277 365.675 771.103 362.322C771.928 358.969 771.575 355.435 770.102 352.312C768.63 349.188 766.127 346.666 763.013 345.167C759.9 343.669 756.366 343.285 753.003 344.081C749.641 344.877 746.654 346.805 744.545 349.539L751.259 359.637L742.085 354.278C741.373 356.559 741.221 358.978 741.641 361.331V361.331Z" stroke="#333333" stroke-miterlimit="10"/>
<path d="M6.52253 340.233C7.96376 340.756 9.50699 340.938 11.0306 340.764C12.5542 340.59 14.0165 340.065 15.3022 339.23C16.588 338.395 17.6621 337.273 18.4398 335.952C19.2175 334.631 19.6776 333.148 19.7838 331.62C19.89 330.091 19.6395 328.559 19.0519 327.144C18.4643 325.728 17.5558 324.469 16.3979 323.464C15.24 322.46 13.8644 321.738 12.3795 321.355C10.8946 320.972 9.34099 320.939 7.84117 321.258L8.08902 326.351L5.67776 321.987C3.31124 323.098 1.48301 325.102 0.594827 327.559C0.279394 328.42 0.0876343 329.321 0.0252685 330.235C-0.126931 332.381 0.425007 334.518 1.59744 336.322C2.76988 338.126 4.49891 339.499 6.52253 340.233Z" fill="#99C24D"/>
<path d="M18.4538 399.293C17.6026 394.963 21.2909 391.124 24.9341 388.628C28.5773 386.132 32.8342 383.681 34.0773 379.445C35.8638 373.359 30.5423 367.785 26.4005 362.978C23.3276 359.411 20.6887 355.492 18.5391 351.304C17.6045 349.659 16.968 347.862 16.6588 345.996C16.3322 343.298 17.1997 340.614 18.0737 338.04C20.9851 329.467 24.098 320.966 27.4122 312.537" stroke="#333333" stroke-miterlimit="10"/>
<path d="M6.93026 338.922C8.37149 339.446 9.91472 339.628 11.4383 339.453C12.9619 339.279 14.4242 338.754 15.7099 337.919C16.9957 337.084 18.0698 335.962 18.8475 334.641C19.6252 333.321 20.0853 331.838 20.1915 330.309C20.2977 328.781 20.0472 327.248 19.4596 325.833C18.872 324.418 17.9635 323.158 16.8056 322.154C15.6477 321.149 14.2721 320.427 12.7872 320.044C11.3023 319.661 9.74871 319.628 8.2489 319.948L8.49674 325.04L6.08548 320.676C3.71896 321.787 1.89073 323.791 1.00254 326.249C0.687113 327.109 0.495356 328.01 0.432986 328.925C0.280776 331.07 0.832711 333.207 2.00515 335.011C3.17759 336.815 4.90662 338.188 6.93026 338.922V338.922Z" stroke="#333333" stroke-miterlimit="10"/>
<path d="M17.2432 310.779C17.8088 309.219 18.758 307.827 20.0035 306.731C21.249 305.635 22.7507 304.869 24.3701 304.505L25.1854 309.346L26.6969 304.262C28.7956 304.293 30.8301 304.989 32.5066 306.251C34.1832 307.513 35.415 309.274 36.0244 311.281C36.6337 313.288 36.589 315.436 35.8967 317.416C35.2043 319.396 33.9002 321.104 32.1726 322.295C30.445 323.486 28.3833 324.098 26.2852 324.042C24.187 323.985 22.161 323.265 20.4997 321.983C18.8383 320.701 17.6275 318.926 17.0422 316.912C16.4569 314.898 16.5272 312.75 17.2432 310.779Z" fill="#99C24D"/>
<path d="M17.7871 309.031C18.3527 307.471 19.302 306.079 20.5475 304.983C21.793 303.887 23.2946 303.121 24.9141 302.757L25.7293 307.598L27.2409 302.514C29.3395 302.545 31.374 303.241 33.0506 304.503C34.7271 305.765 35.959 307.526 36.5683 309.533C37.1777 311.54 37.1329 313.688 36.4406 315.668C35.7483 317.648 34.4442 319.356 32.7166 320.547C30.989 321.738 28.9273 322.35 26.8291 322.294C24.731 322.237 22.705 321.517 21.0436 320.235C19.3822 318.953 18.1715 317.177 17.5862 315.164C17.0008 313.15 17.0712 311.002 17.7871 309.031V309.031Z" stroke="#333333" stroke-miterlimit="10"/>
<path d="M24.6624 363.076C26.948 363.905 29.4588 363.864 31.7162 362.961C33.9737 362.059 35.8198 360.358 36.9028 358.183C37.9858 356.008 38.2299 353.511 37.5886 351.168C36.9474 348.824 35.4655 346.799 33.4255 345.477L32.2641 349.384L31.4405 344.486C31.4324 344.482 31.424 344.479 31.4153 344.476C30.1927 344.032 28.8945 343.833 27.5949 343.89C26.2953 343.948 25.0197 344.26 23.8411 344.811C22.6624 345.361 21.6038 346.138 20.7258 347.097C19.8478 348.056 19.1675 349.178 18.7239 350.4C18.2802 351.622 18.082 352.919 18.1403 354.218C18.1987 355.516 18.5126 356.79 19.0641 357.968C19.6156 359.145 20.3939 360.202 21.3545 361.079C22.3151 361.955 23.4391 362.634 24.6624 363.076Z" fill="#99C24D"/>
<path d="M25.1332 361.306C27.4188 362.134 29.9296 362.094 32.1871 361.191C34.4445 360.289 36.2906 358.588 37.3736 356.413C38.4566 354.238 38.7007 351.741 38.0595 349.397C37.4182 347.054 35.9363 345.029 33.8963 343.707L32.7349 347.614L31.9113 342.716C31.9032 342.712 31.8948 342.709 31.8861 342.706C30.6638 342.263 29.3661 342.065 28.0672 342.123C26.7682 342.181 25.4934 342.494 24.3156 343.045C21.9369 344.156 20.0974 346.166 19.2019 348.633C18.3064 351.099 18.4282 353.82 19.5406 356.197C20.6529 358.573 22.6646 360.411 25.1332 361.306V361.306Z" stroke="#333333" stroke-miterlimit="10"/>
<path d="M14.3538 379.506C14.7468 381.74 15.8967 383.772 17.6108 385.259C19.3248 386.747 21.4987 387.601 23.7679 387.677C26.0371 387.753 28.2635 387.048 30.0739 385.679C31.8842 384.31 33.1683 382.36 33.7108 380.157C34.2534 377.954 34.0214 375.632 33.0537 373.58C32.086 371.528 30.4415 369.871 28.396 368.886C26.3505 367.902 24.0284 367.65 21.8191 368.173C19.6098 368.696 17.6477 369.962 16.2619 371.759L20.6735 378.393L14.6455 374.872C14.1782 376.371 14.0781 377.96 14.3538 379.506Z" fill="#99C24D"/>
<path d="M14.7615 378.196C15.1545 380.43 16.3044 382.461 18.0185 383.949C19.7325 385.437 21.9064 386.29 24.1756 386.367C26.4448 386.443 28.6712 385.737 30.4816 384.368C32.2919 382.999 33.576 381.05 34.1186 378.847C34.6611 376.644 34.4291 374.322 33.4614 372.27C32.4937 370.217 30.8492 368.56 28.8037 367.575C26.7582 366.591 24.4361 366.339 22.2268 366.862C20.0175 367.385 18.0554 368.651 16.6696 370.448L21.0812 377.083L15.0533 373.561C14.5859 375.06 14.4858 376.65 14.7615 378.196V378.196Z" stroke="#333333" stroke-miterlimit="10"/>
<path d="M348.268 246.803C355.066 246.803 360.578 239.677 360.578 230.886C360.578 222.095 355.066 214.969 348.268 214.969C341.469 214.969 335.958 222.095 335.958 230.886C335.958 239.677 341.469 246.803 348.268 246.803Z" fill="#333333"/>
<path d="M415.25 247.165C422.048 247.165 427.56 240.038 427.56 231.247C427.56 222.457 422.048 215.33 415.25 215.33C408.451 215.33 402.939 222.457 402.939 231.247C402.939 240.038 408.451 247.165 415.25 247.165Z" fill="#333333"/>
<path d="M405.836 278.275C405.836 285.467 395.785 291.299 383.388 291.299C370.991 291.299 360.94 285.467 360.94 278.275C360.94 272.046 368.478 266.837 378.551 265.563C380.154 265.352 381.77 265.248 383.388 265.252C386.098 265.243 388.801 265.535 391.448 266.12C399.862 267.994 405.836 272.733 405.836 278.275Z" fill="#333333"/>
<path d="M351.164 243.184C357.963 243.184 363.474 236.058 363.474 227.267C363.474 218.476 357.963 211.35 351.164 211.35C344.365 211.35 338.854 218.476 338.854 227.267C338.854 236.058 344.365 243.184 351.164 243.184Z" stroke="#333333" stroke-miterlimit="10"/>
<path d="M418.146 243.548C424.945 243.548 430.456 236.421 430.456 227.63C430.456 218.839 424.945 211.713 418.146 211.713C411.347 211.713 405.836 218.839 405.836 227.63C405.836 236.421 411.347 243.548 418.146 243.548Z" stroke="#333333" stroke-miterlimit="10"/>
<path d="M386.284 287.681C398.682 287.681 408.733 281.851 408.733 274.658C408.733 267.465 398.682 261.635 386.284 261.635C373.887 261.635 363.836 267.465 363.836 274.658C363.836 281.851 373.887 287.681 386.284 287.681Z" stroke="#333333" stroke-miterlimit="10"/>
<path d="M391.716 267.206C391.721 268.116 391.379 268.994 390.76 269.66C390.467 269.98 390.111 270.235 389.715 270.41C389.319 270.586 388.89 270.677 388.457 270.679H381.216C380.323 270.648 379.48 270.265 378.869 269.614C378.258 268.964 377.931 268.098 377.957 267.206C377.953 266.501 378.16 265.81 378.551 265.223C380.153 264.997 381.77 264.886 383.388 264.891C386.102 264.882 388.807 265.193 391.448 265.817C391.626 266.258 391.717 266.73 391.716 267.206Z" fill="white"/>
<path d="M351.164 226.544C353.164 226.544 354.785 224.924 354.785 222.926C354.785 220.928 353.164 219.309 351.164 219.309C349.164 219.309 347.543 220.928 347.543 222.926C347.543 224.924 349.164 226.544 351.164 226.544Z" fill="white"/>
<path d="M418.508 226.544C420.508 226.544 422.129 224.924 422.129 222.926C422.129 220.928 420.508 219.309 418.508 219.309C416.509 219.309 414.888 220.928 414.888 222.926C414.888 224.924 416.509 226.544 418.508 226.544Z" fill="white"/>
<path opacity="0.3" d="M422.129 260.55C424.129 260.55 425.75 258.93 425.75 256.932C425.75 254.934 424.129 253.314 422.129 253.314C420.129 253.314 418.508 254.934 418.508 256.932C418.508 258.93 420.129 260.55 422.129 260.55Z" fill="#2E4057"/>
<path opacity="0.3" d="M333.785 260.55C335.785 260.55 337.406 258.93 337.406 256.932C337.406 254.934 335.785 253.314 333.785 253.314C331.786 253.314 330.165 254.934 330.165 256.932C330.165 258.93 331.786 260.55 333.785 260.55Z" fill="#2E4057"/>
</g>
<defs>
<clipPath id="clip0">
<rect width="778" height="422.701" fill="white"/>
</clipPath>
</defs>
</svg>
