<svg width="378" height="239" viewBox="0 0 378 239" fill="none" xmlns="http://www.w3.org/2000/svg">
<path d="M306.713 136.693L302.544 133.188L302.935 132.722L303.327 133.052C303.267 132.836 303.256 132.61 303.295 132.39C303.344 132.167 303.45 131.961 303.602 131.791C303.801 131.545 304.07 131.366 304.373 131.277C304.681 131.191 305.006 131.2 305.309 131.302C305.646 131.412 305.959 131.587 306.228 131.819C306.518 132.055 306.755 132.35 306.922 132.685C307.072 132.981 307.128 133.316 307.084 133.645C307.045 133.951 306.919 134.239 306.721 134.476C306.59 134.638 306.421 134.764 306.228 134.844C306.053 134.917 305.865 134.952 305.675 134.948L307.143 136.182L306.713 136.693ZM304.457 134.006C304.742 134.287 305.116 134.46 305.515 134.494C305.659 134.499 305.802 134.472 305.933 134.413C306.064 134.355 306.18 134.267 306.273 134.157C306.367 134.044 306.435 133.911 306.47 133.768C306.505 133.625 306.507 133.476 306.475 133.332C306.368 132.931 306.124 132.58 305.786 132.339C305.499 132.058 305.124 131.886 304.724 131.85C304.581 131.842 304.437 131.867 304.305 131.923C304.173 131.98 304.055 132.066 303.962 132.176C303.869 132.291 303.805 132.427 303.774 132.571C303.743 132.716 303.745 132.866 303.781 133.01C303.884 133.41 304.123 133.763 304.457 134.006Z" fill="#2E4057"/>
<path d="M307.99 132.83L307.349 130.412L305.045 130.214L305.581 129.575L306.677 129.707C306.885 129.733 307.056 129.757 307.191 129.781C307.136 129.593 307.09 129.423 307.053 129.272L306.767 128.165L307.28 127.555L307.824 129.789L310.361 130.009L309.834 130.636L308.377 130.468L307.986 130.42L308.51 132.212L307.99 132.83Z" fill="#2E4057"/>
<path d="M295.68 140.964L292.923 144.244L296.202 147.002L298.96 143.722L295.68 140.964Z" fill="#2E4057"/>
<path d="M300.092 135.716L297.334 138.996L300.614 141.753L303.372 138.474L300.092 135.716Z" fill="#2E4057"/>
<path d="M306.713 136.693L302.544 133.188L302.935 132.722L303.327 133.052C303.267 132.836 303.256 132.61 303.295 132.39C303.344 132.167 303.45 131.961 303.602 131.791C303.801 131.545 304.07 131.366 304.373 131.277C304.681 131.191 305.006 131.2 305.309 131.302C305.646 131.412 305.959 131.587 306.228 131.819C306.518 132.055 306.755 132.35 306.922 132.685C307.072 132.981 307.128 133.316 307.084 133.645C307.045 133.951 306.919 134.239 306.721 134.476C306.59 134.638 306.421 134.764 306.228 134.844C306.053 134.917 305.865 134.952 305.675 134.948L307.143 136.182L306.713 136.693ZM304.457 134.006C304.742 134.287 305.116 134.46 305.515 134.494C305.659 134.499 305.802 134.472 305.933 134.413C306.064 134.355 306.18 134.267 306.273 134.157C306.367 134.044 306.435 133.911 306.47 133.768C306.505 133.625 306.507 133.476 306.475 133.332C306.368 132.931 306.124 132.58 305.786 132.339C305.499 132.058 305.124 131.886 304.724 131.85C304.581 131.842 304.437 131.867 304.305 131.923C304.173 131.98 304.055 132.066 303.962 132.176C303.869 132.291 303.805 132.427 303.774 132.571C303.743 132.716 303.745 132.866 303.781 133.01C303.884 133.41 304.123 133.763 304.457 134.006Z" fill="#2E4057"/>
<path d="M307.99 132.83L307.349 130.412L305.045 130.214L305.581 129.575L306.677 129.707C306.885 129.733 307.056 129.757 307.191 129.781C307.136 129.593 307.09 129.423 307.053 129.272L306.767 128.165L307.28 127.555L307.824 129.789L310.361 130.009L309.834 130.636L308.377 130.468L307.986 130.42L308.51 132.212L307.99 132.83Z" fill="#2E4057"/>
<path d="M295.68 140.964L292.923 144.244L296.202 147.002L298.96 143.722L295.68 140.964Z" fill="#2E4057"/>
<path d="M300.092 135.716L297.334 138.996L300.614 141.753L303.372 138.474L300.092 135.716Z" fill="#2E4057"/>
<path d="M206.992 40.3377C209.692 40.3377 211.881 38.149 211.881 35.4491C211.881 32.7492 209.692 30.5605 206.992 30.5605C204.292 30.5605 202.103 32.7492 202.103 35.4491C202.103 38.149 204.292 40.3377 206.992 40.3377Z" fill="#F2F2F2"/>
<path d="M86.6614 50.1941C86.6336 48.2953 86.0338 46.4491 84.9403 44.8965C83.8469 43.3439 82.3106 42.1571 80.5322 41.4913C82.5708 40.6675 84.2573 39.157 85.3 37.2211C86.3426 35.2852 86.6757 33.0457 86.2416 30.8902C85.8076 28.7347 84.6337 26.7987 82.9231 25.4172C81.2125 24.0357 79.0727 23.2956 76.8741 23.3251C74.6755 23.3545 72.5564 24.1515 70.8834 25.5783C69.2103 27.0051 68.0887 28.9718 67.7125 31.1381C67.3362 33.3045 67.7291 35.5342 68.8232 37.4415C69.9172 39.3488 71.6436 40.8137 73.7035 41.5827C71.9422 42.2939 70.4368 43.5208 69.385 45.1026C68.3332 46.6843 67.784 48.547 67.8094 50.4464C67.8348 52.3458 68.4337 54.1931 69.5274 55.7462C70.6212 57.2992 72.1588 58.4855 73.9386 59.1493C71.9 59.9731 70.2134 61.4836 69.1708 63.4195C68.1282 65.3554 67.7951 67.5948 68.2291 69.7504C68.6632 71.9059 69.8371 73.8419 71.5477 75.2234C73.2583 76.6049 75.398 77.3449 77.5966 77.3155C79.7952 77.2861 81.9144 76.489 83.5874 75.0623C85.2604 73.6355 86.3821 71.6688 86.7583 69.5024C87.1345 67.336 86.7416 65.1063 85.6476 63.199C84.5535 61.2917 82.8272 59.8269 80.7672 59.0579C82.5272 58.3447 84.0312 57.1173 85.0827 55.536C86.1342 53.9547 86.6844 52.093 86.6614 50.1941ZM68.4312 32.8683C68.4083 31.2562 68.8406 29.6703 69.6785 28.2928C70.5164 26.9153 71.7258 25.8022 73.1679 25.0812C74.61 24.3602 76.2263 24.0606 77.831 24.2169C79.4357 24.3732 80.9637 24.979 82.2396 25.9647C83.5155 26.9504 84.4874 28.2761 85.0437 29.7893C85.6001 31.3026 85.7182 32.9421 85.3846 34.5195C85.0511 36.0969 84.2793 37.5482 83.1579 38.7067C82.0366 39.8652 80.6112 40.6838 79.0455 41.0686C77.7667 40.8187 76.45 40.8363 75.1783 41.1204C73.2878 40.7074 71.5925 39.6675 70.3676 38.1694C69.1428 36.6713 68.4604 34.8032 68.4312 32.8683ZM86.0395 67.7722C86.0625 69.3844 85.6302 70.9703 84.7923 72.3477C83.9544 73.7252 82.7449 74.8384 81.3028 75.5594C79.8607 76.2803 78.2445 76.5799 76.6398 76.4236C75.0351 76.2673 73.5071 75.6615 72.2312 74.6758C70.9553 73.6901 69.9834 72.3645 69.427 70.8512C68.8707 69.3379 68.7525 67.6984 69.0861 66.121C69.4197 64.5436 70.1915 63.0923 71.3128 61.9338C72.4342 60.7754 73.8595 59.9567 75.4252 59.5719C76.7041 59.8218 78.0208 59.8042 79.2924 59.5202C81.1829 59.9331 82.8783 60.9731 84.1031 62.4711C85.328 63.9692 86.0104 65.8374 86.0395 67.7722ZM79.2806 58.6353C78.0018 58.3853 76.6851 58.403 75.4134 58.687C73.5214 58.277 71.8242 57.2379 70.5988 55.7392C69.3734 54.2405 68.6922 52.3707 68.6663 50.4349C68.6404 48.4992 69.2713 46.6118 70.4562 45.0809C71.641 43.5499 73.3098 42.4657 75.1902 42.0053C76.469 42.2552 77.7857 42.2376 79.0573 41.9535C80.9493 42.3635 82.6465 43.4026 83.8719 44.9013C85.0973 46.4001 85.7786 48.2699 85.8045 50.2056C85.8304 52.1413 85.1994 54.0287 84.0146 55.5597C82.8297 57.0906 81.1609 58.1748 79.2806 58.6353H79.2806Z" fill="#F2F2F2"/>
<path d="M45.5043 85.332H38.4191V167.889V174.974H45.5043H83.3942V167.889H45.5043V85.332Z" fill="#99C24D"/>
<path d="M108.038 85.332H100.953V174.974H145.928V85.332H108.038ZM138.843 167.889H108.038V92.4171H138.843V167.889Z" fill="#99C24D"/>
<path d="M270.226 85.4863H232.336V175.128H277.311V85.4863H270.226ZM270.226 168.043H239.421V92.5714H270.226V168.043Z" fill="#99C24D"/>
<path d="M200.915 130.153H195.061V137.238H200.915V168.043H170.11V92.5715H208V85.4863H170.11H163.025V92.5715V168.043V175.128H170.11H200.915H208V168.043V137.238H213.853V130.153H208H200.915Z" fill="#99C24D"/>
<path d="M66.9295 77.3594H64.6514V78.1187H66.9295V77.3594Z" fill="#2E4057"/>
<path d="M244.137 78.1187H239.473V77.3594H244.137V78.1187ZM234.81 78.1187H230.147V77.3594H234.81V78.1187ZM225.483 78.1187H220.82V77.3594H225.483V78.1187ZM216.156 78.1187H211.493V77.3594H216.156V78.1187ZM206.83 78.1187H202.167V77.3594H206.83V78.1187ZM197.503 78.1187H192.84V77.3594H197.503V78.1187ZM188.176 78.1187H183.513V77.3594H188.176V78.1187ZM178.85 78.1187H174.187V77.3594H178.85V78.1187ZM169.523 78.1187H164.86V77.3594H169.523V78.1187ZM160.197 78.1187H155.533V77.3594H160.197L160.197 78.1187ZM150.87 78.1187H146.206V77.3594H150.87V78.1187ZM141.543 78.1187H136.88V77.3594H141.543V78.1187ZM132.216 78.1187H127.553V77.3594H132.216V78.1187ZM122.89 78.1187H118.226V77.3594H122.89V78.1187ZM113.563 78.1187H108.9V77.3594H113.563V78.1187ZM104.236 78.1187H99.5731V77.3594H104.236L104.236 78.1187ZM94.9097 78.1187H90.2465V77.3594H94.9097V78.1187ZM85.5831 78.1187H80.9197V77.3594H85.5831V78.1187ZM76.2564 78.1187H71.593V77.3594H76.2564V78.1187Z" fill="#2E4057"/>
<path d="M251.078 77.3594H248.8V78.1187H251.078V77.3594Z" fill="#2E4057"/>
<path d="M285.345 97.1035H284.586V99.3816H285.345V97.1035Z" fill="#2E4057"/>
<path d="M285.345 156.334H284.585V151.588H285.345V156.334ZM285.345 146.842H284.585V142.096H285.345V146.842ZM285.345 137.35H284.585V132.604H285.345V137.35ZM285.345 127.857H284.585V123.111H285.345V127.857ZM285.345 118.365H284.585V113.619H285.345V118.365ZM285.345 108.873H284.585V104.127H285.345V108.873Z" fill="#2E4057"/>
<path d="M285.345 161.078H284.586V163.356H285.345V161.078Z" fill="#2E4057"/>
<path d="M38.9279 51.2539H38.1685V209.204H38.9279V51.2539Z" fill="#F2F2F2"/>
<path d="M277.751 51.1602H276.992V209.11H277.751V51.1602Z" fill="#F2F2F2"/>
<path d="M315.435 174.557H0.294678V175.316H315.435V174.557Z" fill="#F2F2F2"/>
<path d="M315.34 84.9512H0.199585V85.7105H315.34V84.9512Z" fill="#F2F2F2"/>
<path d="M339.388 47.4809C339.417 48.0162 339.316 48.5504 339.094 49.0385C338.792 49.496 338.386 49.8755 337.909 50.1458L334.448 52.4802C333.427 53.1686 332.274 54.3887 332.928 55.4313C333.181 55.7679 333.523 56.0268 333.916 56.1786C337.46 57.8804 341.507 58.2041 345.438 58.1414C347.946 58.1014 350.568 57.8794 352.691 56.5448C353.701 55.9096 354.574 55.0355 355.683 54.5949C356.451 54.29 357.449 54.0672 357.645 53.265C357.912 52.1778 356.48 51.5753 355.447 51.1443C353.236 50.2218 351.701 48.0899 350.981 45.8048C350.262 43.5198 350.257 41.0755 350.37 38.6825C350.401 38.5119 350.397 38.3368 350.359 38.1677C350.322 37.9985 350.25 37.8385 350.15 37.6973C349.921 37.5101 349.633 37.4091 349.337 37.4118C346.954 37.1717 344.556 37.1312 342.167 37.2909C341.277 37.2819 340.401 37.5099 339.629 37.9513C338.175 38.9472 339 40.6353 339.154 42.0369C339.349 43.8447 339.427 45.6631 339.388 47.4809Z" fill="#9F616A"/>
<path d="M354.361 0.136719C353.026 1.62654 351.198 2.58411 349.213 2.83319C345.781 3.32346 348.477 8.7164 348.477 8.7164C348.477 8.7164 347.497 6.75532 349.458 5.03939C351.419 3.32346 354.361 2.34292 354.361 0.136719Z" fill="#333333"/>
<path d="M347.744 14.0741C350.081 14.0741 351.976 12.1796 351.976 9.84272C351.976 7.50579 350.081 5.61133 347.744 5.61133C345.407 5.61133 343.513 7.50579 343.513 9.84272C343.513 12.1796 345.407 14.0741 347.744 14.0741Z" fill="#333333"/>
<path d="M352.684 14.0081C349.415 12.3006 343.792 10.9577 340.804 11.0537L341.56 8.16406C344.205 9.96116 349.799 11.3292 353.44 11.1185L352.684 14.0081Z" fill="#99C24D"/>
<path d="M343.264 41.2063C351.649 41.2063 358.447 34.4085 358.447 26.0231C358.447 17.6376 351.649 10.8398 343.264 10.8398C334.878 10.8398 328.081 17.6376 328.081 26.0231C328.081 34.4085 334.878 41.2063 343.264 41.2063Z" fill="#333333"/>
<path d="M338.659 216.061H331.69V228.008H338.659V216.061Z" fill="#9F616A"/>
<path d="M358.821 216.061H351.851V228.008H358.821V216.061Z" fill="#9F616A"/>
<path d="M329.947 92.3564L326.572 103.619L360.811 104.304L358.073 92.3564L349.113 86.3828L329.947 92.3564Z" fill="#9F616A"/>
<path d="M341.895 43.5716C347.943 43.5716 352.847 38.6683 352.847 32.6198C352.847 26.5713 347.943 21.668 341.895 21.668C335.846 21.668 330.943 26.5713 330.943 32.6198C330.943 38.6683 335.846 43.5716 341.895 43.5716Z" fill="#9F616A"/>
<path d="M321.84 77.8145C321.063 79.7635 320.689 81.8499 320.741 83.9476C320.838 86.3802 321.596 89.4911 321.124 91.6013C319.297 99.7648 316.588 111.886 311.691 118.497C310.542 120.049 308.293 120.905 306.588 122.08C304.883 123.256 303.26 124.541 302.336 126.622C301.617 128.24 301.641 130.205 301.696 132.042C301.726 133.055 301.824 134.212 302.703 134.88C302.885 134.803 303.039 134.672 303.144 134.505C303.249 134.338 303.3 134.142 303.291 133.944C303.334 133.528 303.251 133.103 303.322 132.674C303.406 132.295 303.572 131.94 303.811 131.634C304.049 131.329 304.352 131.08 304.699 130.907C308.698 128.436 312.977 126.279 315.096 121.978C317.215 117.676 318.822 113.839 321.691 110.051C322.502 109.094 323.255 108.09 323.946 107.043C325.061 105.128 325.9 103.065 326.437 100.915C327.609 96.4099 328.139 91.6665 328.496 87.071C328.679 84.7223 328.666 82.2066 326.884 80.6882C325.235 79.2837 323.227 79.4614 321.84 77.8145Z" fill="#9F616A"/>
<path d="M371.344 72.5469C371.918 74.617 372.11 76.774 371.913 78.913C371.672 81.5038 370.861 84.0847 371.225 86.661C372.636 96.6276 371.097 106.939 371.89 116.974C372.076 119.33 372.834 121.937 372.968 124.296C373.103 126.656 372.83 129.117 371.629 131.152C370.695 132.736 369.267 133.956 367.866 135.146C367.093 135.802 366.075 136.5 365.149 136.085C365.068 135.9 365.047 135.694 365.09 135.496C365.134 135.298 365.239 135.119 365.39 134.985C365.666 134.69 366.031 134.483 366.285 134.169C366.775 133.563 366.754 132.703 366.7 131.925C366.374 127.304 365.694 122.567 366.956 118.109C368.213 113.665 367.441 108.812 366.159 104.374C365.816 103.188 365.37 102.033 365.072 100.835C364.555 98.757 364.496 96.5967 364.439 94.4564L364.086 81.2508C364.026 79.0011 364.164 76.3481 366.039 75.1044C367.774 73.9541 369.979 74.118 371.344 72.5469Z" fill="#9F616A"/>
<path d="M360.806 99.4281C358.569 100.647 356.308 101.876 353.853 102.556C351.283 103.268 348.587 103.355 345.922 103.437C342.741 103.754 339.53 103.299 336.562 102.112L326.883 98.8086C320.036 115.252 317.345 133.473 321.06 150.894C322.413 157.237 320.996 163.806 320.999 170.292C320.958 172.59 321.042 174.889 321.249 177.179C321.441 178.945 321.779 180.692 322.012 182.453C323.427 193.18 320.873 204.157 322.467 214.86C322.686 216.33 324.468 217.143 325.885 217.589C326.6 217.794 327.33 217.941 328.068 218.029C331.821 218.578 335.618 219.128 339.393 218.768C340.316 218.68 341.409 218.396 341.69 217.513C341.913 216.809 341.506 215.967 341.89 215.336C344.342 211.307 342.515 205.786 342.767 201.076C343.433 188.617 342.618 176.094 343.768 163.67C343.988 161.292 343.674 159.193 343.89 156.814L344.036 155.199L344.48 150.291C344.746 157.131 345.031 163.808 345.297 170.648C345.374 172.637 345.455 174.652 346.039 176.556C346.347 177.563 346.794 178.527 347.047 179.55C347.281 180.656 347.401 181.783 347.405 182.913L348.537 213.048C348.531 214.132 348.454 215.215 348.306 216.289C348.195 217.522 348.173 218.975 349.143 219.744C349.649 220.091 350.245 220.285 350.858 220.303C352.704 220.476 354.557 220.149 356.382 219.824C358.23 219.495 362.068 219.166 363.916 218.837C364.196 218.801 364.468 218.724 364.726 218.608C365.559 218.182 365.765 217.079 365.686 216.147C365.607 215.214 365.349 214.253 365.638 213.362C369.378 201.818 364.837 189.143 365.68 177.038C366.43 166.257 366.324 155.438 366.218 144.632C366.155 138.241 365.723 131.991 365.857 125.601C366.02 117.817 366.599 109.663 363.301 102.609C362.719 101.364 361.963 100.17 360.806 99.4281Z" fill="#2E4057"/>
<path d="M339.655 223.529C339.655 223.529 332.436 220.045 331.192 223.529C329.947 227.014 327.458 235.228 330.196 237.219C331.082 237.864 332.119 238.27 333.207 238.395C334.296 238.521 335.398 238.362 336.407 237.935C338.176 237.183 339.907 236.234 339.655 235.477C339.157 233.983 339.655 223.529 339.655 223.529Z" fill="#2E4057"/>
<path d="M350.855 223.529C350.855 223.529 358.074 220.045 359.318 223.529C360.563 227.014 363.052 235.228 360.314 237.219C359.428 237.864 358.391 238.27 357.303 238.395C356.214 238.521 355.112 238.362 354.103 237.935C352.334 237.183 350.603 236.234 350.855 235.477C351.353 233.983 350.855 223.529 350.855 223.529Z" fill="#2E4057"/>
<path d="M359.798 53.0678C349.364 52.8822 338.926 53.2787 328.536 54.2553C327.762 54.2782 327.001 54.4544 326.296 54.7735C325.705 55.1317 325.188 55.5994 324.773 56.1514C320.122 61.7331 317.427 68.6845 317.101 75.9426C317.062 76.8809 317.098 77.9191 317.734 78.6104C320.615 81.7432 324.267 84.0298 326.549 87.6217C327.079 88.5914 327.72 89.4955 328.461 90.3157C328.039 92.8823 327.976 95.4952 328.274 98.0792C329.787 96.1013 332.049 94.8021 334.416 94.0306C336.783 93.2592 339.277 92.9716 341.75 92.6883C345.36 92.2748 349.223 91.905 352.44 93.5951C354.964 94.9216 356.803 97.3928 359.458 98.4339C359.817 96.209 360.025 93.9623 360.078 91.7092C360.153 88.5542 362.521 86.2246 363.769 83.3259C364.109 82.4701 364.522 81.6455 365.004 80.8613C366.268 78.9348 368.327 77.6396 370.501 76.8778C372.675 76.116 374.984 75.8371 377.272 75.5631C378.312 74.0991 377.977 72.227 377.254 70.5831C376.531 68.9391 375.323 67.5667 374.277 66.1063C372.247 63.2704 370.789 60.036 368.557 57.3553C367.502 56.0405 366.171 54.9745 364.657 54.2334C363.143 53.4923 361.484 53.0943 359.798 53.0678Z" fill="#2E4057"/>
<path d="M346.323 15.4414C346.323 15.4414 341.172 22.0644 330.87 23.5362C320.567 25.0079 328.662 41.1974 328.662 41.1974C328.662 41.1974 325.719 35.3103 331.606 30.1591C337.493 25.0079 346.323 22.0644 346.323 15.4414Z" fill="#2E4057"/>
<path d="M346.323 15.4414C346.323 15.4414 349.267 25.7438 353.682 27.2156C358.097 28.6874 355.89 44.141 348.531 45.6127C348.531 45.6127 354.786 37.1501 351.107 30.5271C347.427 23.9041 345.219 18.7529 346.323 15.4414Z" fill="#2E4057"/>
<path d="M346.323 15.4414C346.323 15.4414 341.172 22.0644 330.87 23.5362C320.567 25.0079 328.662 41.1974 328.662 41.1974C328.662 41.1974 325.719 35.3103 331.606 30.1591C337.493 25.0079 346.323 22.0644 346.323 15.4414Z" fill="#333333"/>
<path d="M346.323 15.4414C346.323 15.4414 349.267 25.7438 353.682 27.2156C358.097 28.6874 355.89 44.141 348.531 45.6127C348.531 45.6127 354.786 37.1501 351.107 30.5271C347.427 23.9041 345.219 18.7529 346.323 15.4414Z" fill="#333333"/>
<path d="M164.887 71.472V66.0251H165.495V66.5368C165.622 66.3523 165.788 66.1984 165.981 66.0863C166.183 65.981 166.409 65.9293 166.637 65.9361C166.953 65.9302 167.264 66.0208 167.527 66.1957C167.79 66.376 167.993 66.6311 168.109 66.928C168.243 67.257 168.31 67.6093 168.306 67.9644C168.312 68.3384 168.238 68.7094 168.089 69.0526C167.959 69.358 167.739 69.6167 167.459 69.7942C167.199 69.9612 166.898 70.0507 166.589 70.0519C166.381 70.0553 166.175 70.0069 165.99 69.911C165.822 69.8239 165.674 69.7026 165.555 69.555V71.472L164.887 71.472ZM165.492 68.0163C165.46 68.4152 165.569 68.8127 165.799 69.1398C165.888 69.2531 166.001 69.3448 166.13 69.4077C166.259 69.4707 166.401 69.5033 166.545 69.5031C166.692 69.5027 166.837 69.4686 166.969 69.4034C167.101 69.3381 167.217 69.2435 167.307 69.1268C167.545 68.7868 167.657 68.3744 167.624 67.9607C167.654 67.5605 167.544 67.1622 167.314 66.8335C167.228 66.7182 167.116 66.6244 166.988 66.5595C166.86 66.4945 166.718 66.4601 166.574 66.459C166.426 66.4628 166.281 66.5008 166.15 66.5699C166.02 66.6391 165.906 66.7375 165.82 66.8576C165.579 67.1941 165.463 67.6037 165.492 68.0163Z" fill="#2E4057"/>
<path d="M168.666 69.9651L170.105 67.9184L168.773 66.0274H169.608L170.212 66.9506C170.326 67.1262 170.417 67.2733 170.487 67.3919C170.595 67.2287 170.695 67.0841 170.787 66.958L171.451 66.0273H172.248L170.887 67.8813L172.352 69.9651H171.532L170.724 68.7415L170.509 68.4115L169.474 69.9651L168.666 69.9651Z" fill="#2E4057"/>
<path d="M147.663 65.7754H143.378V70.0603H147.663V65.7754Z" fill="#2E4057"/>
<path d="M154.519 65.7754H150.234V70.0603H154.519V65.7754Z" fill="#2E4057"/>
<path d="M161.375 65.7754H157.09V70.0603H161.375V65.7754Z" fill="#2E4057"/>
</svg>
