<svg width="778" height="534" viewBox="0 0 778 534" fill="none" xmlns="http://www.w3.org/2000/svg">
<path d="M750.491 486.174L751.027 453.209L773.319 412.427L751.111 448.038L751.352 433.216L766.715 403.71L751.416 429.293L751.848 402.635L768.3 379.145L751.917 398.443L752.187 349.561L750.487 414.272L750.627 411.603L733.9 386L750.358 416.727L748.799 446.5L748.753 445.709L729.471 418.766L748.695 448.501L748.5 452.224L748.465 452.28L748.481 452.586L744.527 528.123H749.81L750.443 489.107L769.621 459.445L750.491 486.174Z" fill="#E6E6E6"/>
<path d="M178.566 376.306C178.566 443.547 138.593 467.025 89.2831 467.025C39.9734 467.025 0 443.547 0 376.306C0 309.066 89.2831 223.525 89.2831 223.525C89.2831 223.525 178.566 309.066 178.566 376.306Z" fill="#E6E6E6"/>
<path d="M86.0306 456.739L86.9451 400.465L124.999 330.846L87.0883 391.637L87.4993 366.333L113.726 315.965L87.6084 359.637L88.3475 314.129L116.432 274.029L88.4636 306.972L88.9252 223.525L86.0227 333.994L86.261 329.437L57.7074 285.731L85.8028 338.186L83.1429 389.011L83.0635 387.662L50.1458 341.668L82.964 392.428L82.6307 398.784L82.5713 398.879L82.5984 399.401L75.8483 528.351H84.8673L85.9494 461.745L118.687 411.11L86.0306 456.739Z" fill="#3F3D56"/>
<path d="M254.375 226.613V229.994H161.763C154.724 229.994 147.754 231.38 141.251 234.074C134.748 236.768 128.839 240.716 123.861 245.693C118.884 250.671 114.936 256.58 112.242 263.083C109.548 269.586 108.162 276.556 108.162 283.595V479.805C108.162 486.844 109.548 493.815 112.242 500.318C114.936 506.821 118.884 512.73 123.861 517.707C128.839 522.685 134.748 526.633 141.251 529.327C147.754 532.02 154.724 533.407 161.763 533.407H669.838C676.877 533.407 683.847 532.02 690.35 529.327C696.853 526.633 702.762 522.685 707.74 517.707C712.717 512.73 716.665 506.821 719.359 500.318C722.053 493.815 723.439 486.844 723.439 479.805V283.595C723.439 276.556 722.053 269.586 719.359 263.083C716.665 256.58 712.717 250.671 707.74 245.693C702.762 240.716 696.853 236.768 690.35 234.074C683.847 231.38 676.877 229.994 669.838 229.994H320.297V226.613H254.375Z" fill="#3F3D56"/>
<path d="M162.137 241.402H669.464C680.081 241.403 690.263 245.62 697.77 253.127C705.277 260.634 709.495 270.816 709.495 281.433V478.585C709.495 489.201 705.277 499.383 697.77 506.89C690.263 514.397 680.081 518.615 669.464 518.615H162.137C151.52 518.615 141.338 514.397 133.831 506.89C126.324 499.383 122.107 489.201 122.106 478.585V454.668C124.994 455.843 128.127 456.29 131.228 455.971C134.33 455.651 137.305 454.575 139.893 452.835C142.481 451.096 144.601 448.747 146.068 445.996C147.535 443.245 148.304 440.175 148.306 437.058V324.651C148.304 321.533 147.535 318.463 146.068 315.712C144.601 312.961 142.481 310.612 139.893 308.873C137.305 307.134 134.33 306.057 131.228 305.737C128.127 305.418 124.994 305.865 122.106 307.041V281.433C122.107 270.816 126.324 260.634 133.831 253.127C141.338 245.62 151.52 241.403 162.137 241.402Z" fill="white"/>
<path d="M311.457 402.121C342.49 402.121 367.648 376.963 367.648 345.93C367.648 314.896 342.49 289.738 311.457 289.738C280.423 289.738 255.266 314.896 255.266 345.93C255.266 376.963 280.423 402.121 311.457 402.121Z" fill="#99C24D"/>
<path d="M487.666 519.089H212.009C211.663 519.094 211.319 519.066 210.979 519.007L341.352 293.182C342.147 291.776 343.302 290.606 344.698 289.792C346.094 288.978 347.681 288.549 349.297 288.549C350.913 288.549 352.5 288.978 353.895 289.792C355.291 290.606 356.446 291.776 357.242 293.182L444.738 444.728L448.93 451.98L487.666 519.089Z" fill="#2E4057"/>
<path opacity="0.2" d="M487.666 519.087H393.55L439.752 451.978L443.076 447.144L444.739 444.727L448.93 451.978L487.666 519.087Z" fill="black"/>
<path d="M641.15 519.089H402.729L448.93 451.98L452.255 447.145L512.46 359.689C516.407 353.958 525.902 353.601 530.542 358.608C530.854 358.95 531.144 359.311 531.409 359.689L641.15 519.089Z" fill="#2E4057"/>
<path d="M417.855 54.8527C417.855 85.147 404.811 86.0883 383.563 86.0883C362.315 86.0883 340.908 85.147 340.908 54.8527C340.908 24.5584 358.133 0 379.382 0C400.63 0 417.855 24.5584 417.855 54.8527Z" fill="#2F2E41"/>
<path d="M365.08 56.0858C365.08 56.0858 374.15 94.0179 370.852 98.1409C367.553 102.264 398.889 111.335 398.889 111.335L412.082 75.0519L404.661 74.2273C404.661 74.2273 393.941 71.7535 397.239 51.1383C400.538 30.523 365.08 56.0858 365.08 56.0858Z" fill="#A0616A"/>
<path d="M379.51 66.8066C394.312 66.8066 406.31 54.8079 406.31 40.0068C406.31 25.2057 394.312 13.207 379.51 13.207C364.709 13.207 352.711 25.2057 352.711 40.0068C352.711 54.8079 364.709 66.8066 379.51 66.8066Z" fill="#A0616A"/>
<path d="M353.123 190.912L334.157 207.404C334.157 207.404 276.434 228.844 289.628 261.828C302.821 294.813 327.56 343.465 327.56 343.465L334.157 359.132H350.649L361.369 354.185L358.895 347.588C358.895 347.588 353.123 338.517 353.123 333.569C353.123 328.622 343.227 271.724 336.63 267.601C336.63 267.601 369.615 235.441 393.528 233.792C417.442 232.143 424.039 226.37 437.233 233.792C450.426 241.213 502.377 255.232 502.377 255.232C502.377 255.232 530.413 306.357 544.432 315.428C558.45 324.499 569.995 355.009 569.995 355.009L593.084 350.886L581.539 326.973C581.539 326.973 569.995 309.656 569.995 302.234C569.995 294.813 532.063 223.072 504.851 211.527C477.639 199.983 464.448 189.368 464.448 189.368L402.09 172.457L353.123 190.912Z" fill="#2F2E41"/>
<path d="M334.157 347.585C334.157 347.585 328.385 343.462 324.262 351.708C320.139 359.954 308.594 378.92 308.594 378.92C308.594 378.92 274.785 404.483 300.348 411.08C300.348 411.08 312.717 411.904 334.157 397.061C355.597 382.218 371.264 374.797 372.089 372.323C372.914 369.849 367.141 341.812 361.369 341.812C355.597 341.812 357.246 355.006 350.649 355.006C345.935 355.119 341.242 355.671 336.631 356.655L334.157 347.585Z" fill="#2F2E41"/>
<path d="M600.615 355.557C599.872 353.449 598.719 351.509 597.221 349.849C595.724 348.19 593.912 346.844 591.89 345.889C589.869 344.935 587.678 344.391 585.445 344.289C583.212 344.187 580.981 344.529 578.881 345.296C577.614 345.771 576.757 346.265 576.592 346.76C575.767 349.234 568.305 350.456 567.5 349.02C566.696 347.585 560.924 343.462 565.047 359.129C569.17 374.797 581.539 408.606 588.136 414.378C594.733 420.15 617.822 419.326 619.471 413.553C621.121 407.781 618.647 397.061 615.348 392.938C612.05 388.815 606.278 375.621 605.453 370.674C605.065 368.345 602.851 361.817 600.615 355.557Z" fill="#2F2E41"/>
<path d="M452.701 239.156C452.701 239.156 459.189 267.12 471.927 260.55C484.664 253.979 457.962 227.807 457.962 227.807L452.701 239.156Z" fill="#A0616A"/>
<path d="M381.785 223.488C381.785 223.488 388.273 251.452 401.01 244.882C413.748 238.311 387.045 212.139 387.045 212.139L381.785 223.488Z" fill="#A0616A"/>
<path d="M444.654 177.718C435.114 180.653 428.838 180.975 425.829 183.927C425.454 184.286 425.13 184.694 424.864 185.139C422.39 189.262 411.67 190.911 397.652 187.613C392.955 186.38 388.072 186.023 383.246 186.557C378.455 187.044 373.631 188.058 364.667 187.613C349.025 186.83 341.545 135.613 337.999 121.892C337.81 121.141 337.628 120.506 337.455 119.995C334.157 110.1 351.474 100.204 353.947 97.7306C356.421 95.2568 363.843 85.3615 370.671 84.3307C377.49 83.3 387.756 97.7306 387.756 97.7306C387.756 97.7306 403.836 78.3523 402.187 73.4047C400.538 68.457 417.855 71.7554 421.153 70.9308C423.017 70.4608 430.801 72.4976 437.225 74.3612C439.906 75.1357 442.287 76.7094 444.051 78.8722C445.814 81.0351 446.876 83.6843 447.095 86.4664C447.202 87.8106 447.318 89.2701 447.433 90.8369C449.478 117.769 452.843 175.203 444.654 177.718Z" fill="#E6E6E6"/>
<path opacity="0.1" d="M383.246 186.557C378.455 187.043 373.631 188.058 364.667 187.612C349.025 186.829 341.545 135.613 338 121.891C338.593 117.62 339.105 115.047 339.105 115.047L343.64 121.231C343.64 121.231 365.492 157.102 371.264 166.997C373.623 171.038 378.463 178.665 383.246 186.557Z" fill="black"/>
<path d="M344.052 111.748L336.631 115.046C336.631 115.046 326.735 164.523 344.052 189.261C361.369 214 367.966 218.123 371.264 222.246C372.25 223.445 373.523 224.375 374.964 224.952C376.406 225.528 377.969 225.732 379.51 225.544C379.51 225.544 376.212 233.79 381.984 233.79C387.756 233.79 409.196 225.544 403.424 223.07C397.652 220.596 391.879 216.473 393.529 212.35C395.178 208.227 374.563 176.892 368.79 166.997C363.018 157.102 344.052 111.748 344.052 111.748Z" fill="#E6E6E6"/>
<path opacity="0.1" d="M444.654 177.717C435.114 180.653 428.838 180.974 425.829 183.926C425.07 175.779 425.103 168.102 426.513 162.05C431.581 140.328 435.406 93.2934 435.171 81.6502C435.144 80.2686 435.439 82.4748 436.821 82.4748V83.2994C442.923 83.2994 444.638 81.1307 446.353 86.9854C446.699 88.1564 447.062 89.4428 447.433 90.8364C449.478 117.768 452.843 175.202 444.654 177.717Z" fill="black"/>
<path d="M433.935 77.1133H436.462C439.432 77.112 442.322 78.073 444.7 79.8525C447.078 81.632 448.815 84.1341 449.651 86.9839C452.801 98.0996 455.264 109.399 457.024 120.818C461.971 151.328 467.744 227.192 466.919 228.841C466.094 230.491 476.814 238.737 471.867 240.386C466.919 242.035 457.848 245.334 453.725 246.158C449.602 246.983 441.356 238.737 441.356 238.737C441.356 238.737 424.039 186.786 429.812 162.048C435.584 137.31 433.935 77.1133 433.935 77.1133Z" fill="#E6E6E6"/>
<path d="M402.618 20.9516C402.618 29.1563 391.362 35.8076 377.477 35.8076C363.592 35.8076 350.812 40.203 350.812 31.9984C350.812 23.7937 363.592 6.0957 377.477 6.0957C391.362 6.0957 402.618 12.7469 402.618 20.9516Z" fill="#2F2E41"/>
<path d="M341.137 59.9941C341.137 59.9941 340.11 87.6118 367.555 86.0881C394.999 84.5645 363.846 62.481 363.846 62.481L341.137 59.9941Z" fill="#2F2E41"/>
<path d="M778 527.109H3.07397V529.065H778V527.109Z" fill="#3F3D56"/>
</svg>
