<svg width="778" height="443" viewBox="0 0 778 443" fill="none" xmlns="http://www.w3.org/2000/svg">
<path opacity="0.1" d="M778 292.821C778.042 315.329 771.897 337.415 760.236 356.666C760.236 380.21 749.26 401.551 731.456 417.104C727 420.998 722.202 424.483 717.12 427.516C716.916 427.645 716.705 427.767 716.494 427.89C716.113 428.114 715.732 428.339 715.345 428.57L714.984 428.781C698.131 438.173 679.137 443.05 659.844 442.94H147.691C112.375 442.94 80.4048 430.644 57.2417 410.772C34.0785 390.901 19.8039 363.399 19.8039 333.068C6.83321 313.095 -0.0475198 289.78 0.000247022 265.965C0.000247022 198.543 53.8889 143.886 120.373 143.886C122.726 143.886 125.058 143.968 127.377 144.097C169.093 72.9617 263.187 23.3574 372.501 23.3574C439.706 23.3574 501.137 42.0933 548.19 73.0501C566.015 62.9741 586.147 57.6904 606.622 57.7145C673.092 57.7145 726.994 112.372 726.994 179.794C726.984 184.06 726.757 188.323 726.314 192.565C742.337 203.908 755.397 218.937 764.392 236.386C773.388 253.834 778.055 273.19 778 292.821Z" fill="#2E4057"/>
<path opacity="0.1" d="M280.868 331.369C428.1 331.369 547.456 328.172 547.456 324.229C547.456 320.285 428.1 317.088 280.868 317.088C133.636 317.088 14.2812 320.285 14.2812 324.229C14.2812 328.172 133.636 331.369 280.868 331.369Z" fill="#2E4057"/>
<g opacity="0.7">
<path opacity="0.7" d="M181.579 271.525H96.5703V318.45H181.579V271.525Z" fill="#2E4057"/>
<path opacity="0.1" d="M152.336 279.686H126.494V285.126H152.336V279.686Z" fill="black"/>
<path opacity="0.1" d="M149.106 280.369H129.724V284.45H149.106V280.369Z" fill="black"/>
<path opacity="0.7" d="M267.948 271.525H182.939V318.45H267.948V271.525Z" fill="#2E4057"/>
<path opacity="0.1" d="M238.705 279.686H212.862V285.126H238.705V279.686Z" fill="black"/>
<path opacity="0.1" d="M235.474 280.369H216.092V284.45H235.474V280.369Z" fill="black"/>
<path opacity="0.7" d="M181.579 223.24H96.5703V270.165H181.579V223.24Z" fill="#2E4057"/>
<path opacity="0.1" d="M152.336 231.4H126.494V236.841H152.336V231.4Z" fill="black"/>
<path opacity="0.1" d="M149.106 232.08H129.724V236.16H149.106V232.08Z" fill="black"/>
<path opacity="0.7" d="M267.948 223.24H182.939V270.165H267.948V223.24Z" fill="#2E4057"/>
<path opacity="0.1" d="M238.705 231.4H212.862V236.841H238.705V231.4Z" fill="black"/>
<path opacity="0.1" d="M235.474 232.08H216.092V236.16H235.474V232.08Z" fill="black"/>
<path opacity="0.7" d="M181.579 174.275H96.5703V221.2H181.579V174.275Z" fill="#2E4057"/>
<path opacity="0.1" d="M152.336 182.436H126.494V187.876H152.336V182.436Z" fill="black"/>
<path opacity="0.1" d="M149.106 183.119H129.724V187.2H149.106V183.119Z" fill="black"/>
<path opacity="0.7" d="M267.948 174.275H182.939V221.2H267.948V174.275Z" fill="#2E4057"/>
<path opacity="0.1" d="M238.705 182.436H212.862V187.876H238.705V182.436Z" fill="black"/>
<path opacity="0.1" d="M235.474 183.119H216.092V187.2H235.474V183.119Z" fill="black"/>
<path opacity="0.7" d="M267.948 125.311H182.939V172.235H267.948V125.311Z" fill="#2E4057"/>
<path opacity="0.1" d="M238.705 133.473H212.862V138.913H238.705V133.473Z" fill="black"/>
<path opacity="0.1" d="M235.474 134.15H216.092V138.231H235.474V134.15Z" fill="black"/>
</g>
<g opacity="0.7">
<path opacity="0.7" d="M354.317 270.844H269.308V317.768H354.317V270.844Z" fill="#2E4057"/>
<path opacity="0.1" d="M325.074 279.004H299.231V284.445H325.074V279.004Z" fill="black"/>
<path opacity="0.1" d="M321.844 279.688H302.462V283.768H321.844V279.688Z" fill="black"/>
<path opacity="0.7" d="M440.685 270.844H355.677V317.768H440.685V270.844Z" fill="#2E4057"/>
<path opacity="0.1" d="M411.443 279.004H385.6V284.445H411.443V279.004Z" fill="black"/>
<path opacity="0.1" d="M408.212 279.688H388.83V283.768H408.212V279.688Z" fill="black"/>
<path opacity="0.7" d="M354.317 222.559H269.308V269.483H354.317V222.559Z" fill="#2E4057"/>
<path opacity="0.1" d="M325.074 230.719H299.231V236.159H325.074V230.719Z" fill="black"/>
<path opacity="0.1" d="M321.844 231.398H302.462V235.479H321.844V231.398Z" fill="black"/>
<path opacity="0.7" d="M440.685 222.559H355.677V269.483H440.685V222.559Z" fill="#2E4057"/>
<path opacity="0.1" d="M411.443 230.719H385.6V236.159H411.443V230.719Z" fill="black"/>
<path opacity="0.1" d="M408.212 231.398H388.83V235.479H408.212V231.398Z" fill="black"/>
<path opacity="0.7" d="M354.317 173.594H269.308V220.518H354.317V173.594Z" fill="#2E4057"/>
<path opacity="0.1" d="M325.074 181.754H299.231V187.194H325.074V181.754Z" fill="black"/>
<path opacity="0.1" d="M321.844 182.438H302.462V186.518H321.844V182.438Z" fill="black"/>
<path opacity="0.7" d="M440.685 173.594H355.677V220.518H440.685V173.594Z" fill="#2E4057"/>
<path opacity="0.1" d="M411.443 181.754H385.6V187.194H411.443V181.754Z" fill="black"/>
<path opacity="0.1" d="M408.212 182.438H388.83V186.518H408.212V182.438Z" fill="black"/>
<path opacity="0.7" d="M440.685 124.629H355.677V171.554H440.685V124.629Z" fill="#2E4057"/>
<path opacity="0.1" d="M411.443 132.791H385.6V138.232H411.443V132.791Z" fill="black"/>
<path opacity="0.1" d="M408.212 133.469H388.83V137.549H408.212V133.469Z" fill="black"/>
</g>
<path opacity="0.1" d="M597.298 0.0745584C597.298 0.0745584 540.043 -3.3802 546.776 36.7439C546.776 36.7439 545.416 43.837 551.863 47.0537C551.863 47.0537 551.965 44.0818 557.739 45.0951C559.794 45.4359 561.883 45.5363 563.961 45.3944C566.77 45.2004 569.439 44.0976 571.565 42.2525C571.565 42.2525 587.662 35.6014 593.918 9.29629C593.918 9.29629 598.55 3.55651 598.366 2.08076L588.702 6.20878C588.702 6.20878 592.007 13.1795 589.382 18.9737C589.382 18.9737 589.07 6.46041 587.213 6.73244C586.839 6.79364 582.194 9.14668 582.194 9.14668C582.194 9.14668 587.873 21.2859 583.588 30.1132C583.588 30.1132 585.214 15.1517 580.419 10.024L573.618 13.9956C573.618 13.9956 580.256 26.5361 575.754 36.7711C575.754 36.7711 576.91 21.0751 572.183 14.9613L566.022 19.7694C566.022 19.7694 572.258 32.133 568.457 40.6203C568.457 40.6203 567.96 22.3468 564.689 20.9663C564.689 20.9663 559.296 25.7268 558.473 27.6718C558.473 27.6718 562.744 36.6487 560.092 41.382C560.092 41.382 558.466 29.2087 557.133 29.1407C557.133 29.1407 551.761 37.2063 551.203 42.7421C551.203 42.7421 551.434 34.5133 555.835 28.3722C555.835 28.3722 550.639 29.2631 547.606 32.6363C547.606 32.6363 548.442 26.9305 557.161 26.434C557.161 26.434 561.602 20.3134 562.785 19.9394C562.785 19.9394 554.121 19.2185 548.864 21.5443C548.864 21.5443 553.488 16.165 564.376 18.6132L570.463 13.6419C570.463 13.6419 559.051 12.0846 554.209 13.8052C554.209 13.8052 559.779 9.04467 572.102 12.5198L578.739 8.58902C578.739 8.58902 569.007 6.49441 563.213 7.22888C563.213 7.22888 569.334 3.93055 580.684 7.50772L585.445 5.3791C585.445 5.3791 578.318 3.97815 576.23 3.75373C574.142 3.52931 574.033 2.95805 574.033 2.95805C578.549 2.20511 583.184 2.72072 587.424 4.4474C587.424 4.4474 597.475 0.707023 597.298 0.0745584Z" fill="#99C24D"/>
<path opacity="0.1" d="M526.68 10.2858C526.68 10.2858 500.837 8.72164 503.864 26.8591C503.864 26.8591 503.258 30.0622 506.155 31.5176C506.155 31.5176 506.203 30.1574 508.815 30.6267C509.742 30.7828 510.685 30.8284 511.623 30.7627C512.892 30.6764 514.099 30.1772 515.058 29.3413C515.058 29.3413 522.334 26.3422 525.163 14.4546C525.163 14.4546 527.251 11.8568 527.17 11.1903L522.804 13.0537C522.804 13.0537 524.3 16.2092 523.123 18.8275C523.123 18.8275 522.98 13.1693 522.144 13.3053C521.974 13.3053 519.872 14.3934 519.872 14.3934C519.872 14.3934 522.443 19.8816 520.505 23.8736C520.505 23.8736 521.239 17.1137 519.07 14.7947L515.996 16.59C515.996 16.59 519.002 22.255 516.962 26.8795C516.962 26.8795 517.485 19.7864 515.35 17.0253L512.569 19.1947C512.569 19.1947 515.384 24.7849 513.67 28.6205C513.67 28.6205 513.446 20.3576 511.963 19.7388C511.963 19.7388 509.529 21.8878 509.155 22.7719C509.155 22.7719 511.086 26.8523 509.889 28.9605C509.889 28.9605 509.155 23.4587 508.529 23.4383C508.529 23.4383 506.108 27.0835 505.849 29.559C505.971 27.2487 506.693 25.0101 507.944 23.0643C506.543 23.3297 505.25 23.9986 504.224 24.9889C504.224 24.9889 504.605 22.4182 508.543 22.187C508.543 22.187 510.583 19.4259 511.086 19.2559C511.086 19.2559 507.169 18.9295 504.795 19.9836C504.795 19.9836 506.883 17.5489 511.807 18.6575L514.527 16.4132C514.527 16.4132 509.372 15.7332 507.182 16.488C507.182 16.488 509.699 14.339 515.268 15.9032L518.261 14.1146C518.261 14.1146 513.867 13.1625 511.242 13.5093C511.242 13.5093 514.01 12.0132 519.138 13.6317L521.28 12.6728C521.28 12.6728 518.057 12.0336 517.111 11.9384C516.166 11.8432 516.118 11.5779 516.118 11.5779C518.16 11.2383 520.256 11.4738 522.171 12.258C522.171 12.258 526.762 10.5714 526.68 10.2858Z" fill="#99C24D"/>
<path d="M152.465 438.483C167.568 438.483 179.811 436.413 179.811 433.859C179.811 431.305 167.568 429.234 152.465 429.234C137.363 429.234 125.12 431.305 125.12 433.859C125.12 436.413 137.363 438.483 152.465 438.483Z" fill="#2E4057"/>
<path d="M163.774 426.296C165.023 425.279 165.931 423.905 166.379 422.358C166.719 420.801 166.053 418.958 164.556 418.352C162.883 417.713 161.095 418.876 159.742 420.046C158.388 421.216 156.831 422.555 155.063 422.304C155.974 421.476 156.656 420.427 157.042 419.258C157.428 418.089 157.505 416.84 157.266 415.632C157.189 415.132 156.977 414.662 156.654 414.272C155.722 413.279 154.043 413.701 152.927 414.483C149.391 416.972 148.405 421.78 148.384 426.098C148.031 424.541 148.33 422.916 148.323 421.338C148.316 419.76 147.874 417.938 146.521 417.101C145.686 416.652 144.748 416.432 143.801 416.462C142.216 416.401 140.441 416.564 139.36 417.727C138 419.169 138.36 421.59 139.53 423.167C140.7 424.745 142.488 425.758 144.134 426.853C145.45 427.638 146.573 428.71 147.419 429.988C147.521 430.167 147.603 430.356 147.663 430.553H157.633C159.863 429.417 161.929 427.985 163.774 426.296Z" fill="#99C24D"/>
<path d="M487.855 232.588C487.799 232.073 487.615 231.58 487.319 231.155C487.023 230.729 486.625 230.385 486.162 230.154C485.771 229.987 485.352 229.901 484.927 229.9C484.503 229.9 484.083 229.984 483.692 230.149C483.301 230.314 482.948 230.556 482.652 230.861C482.357 231.165 482.126 231.526 481.973 231.922L466.868 263.701L463.468 388.834H468.908L470.949 263.98L487.569 234.56C487.87 233.95 487.97 233.259 487.855 232.588Z" fill="#333333"/>
<path opacity="0.1" d="M731.456 417.105C727 421 722.202 424.484 717.12 427.517C717.041 427.629 716.952 427.733 716.855 427.83C716.316 428.288 715.674 428.61 714.985 428.768C698.132 438.161 679.138 443.038 659.845 442.927H285.929C243.085 438.521 216.943 432.679 216.943 426.266C216.943 421.294 232.639 416.663 259.665 412.787C262.467 412.379 265.389 411.984 268.431 411.603C270.303 411.368 272.219 411.141 274.178 410.923L277.503 410.536C279.969 410.255 282.502 409.98 285.099 409.713H285.31L288.031 409.441C290.329 409.203 292.675 408.978 295.069 408.761L296.81 408.604L301.251 408.21C304.135 407.952 307.082 407.704 310.092 407.469C312.59 407.274 315.129 407.079 317.709 406.884C343.864 404.946 374.018 403.483 406.832 402.538L416.203 402.219L419.359 402.151L426.023 402.001L428.696 401.947L431.505 401.892L433.504 401.858L442.889 401.708L447.711 401.641H448.697C460.099 401.504 471.715 401.434 483.544 401.43C506.924 401.43 529.598 401.709 551.204 402.239C563.608 402.538 575.634 402.919 587.281 403.381H587.39C620.972 404.701 651.031 406.646 675.908 409.06L676.364 409.108C682.75 409.727 688.795 410.386 694.467 411.066C699.806 411.706 704.818 412.379 709.469 413.066C711.081 413.304 712.645 413.548 714.169 413.787L714.556 413.855C721.003 414.895 726.662 415.956 731.456 417.105Z" fill="#2E4057"/>
<path d="M717.121 427.507C717.041 427.618 716.953 427.723 716.855 427.82C716.316 428.277 715.675 428.599 714.985 428.758C713.61 429.144 712.195 429.372 710.769 429.438H710.34C709.526 429.465 708.71 429.438 707.899 429.357C707.307 429.271 706.709 429.232 706.11 429.241H706.029C705.159 429.363 704.304 429.575 703.478 429.873C701.638 430.378 699.742 430.648 697.834 430.676H697.154C695.018 430.676 692.856 430.601 690.714 430.615C690.367 430.615 690.033 430.615 689.673 430.615C686.001 430.71 682.349 431.295 678.676 431.356H677.5C673.902 431.268 670.223 430.499 667.36 428.323C666.783 427.941 666.314 427.416 666 426.8C665.756 426.149 665.674 425.449 665.762 424.759C665.83 423.528 666.068 422.189 666.993 421.359C667.574 420.913 668.241 420.591 668.951 420.414C670.196 420.012 671.447 419.625 672.692 419.237C673.936 418.85 675.358 418.435 676.697 418.04L676.956 417.959L677.704 417.734L678.187 417.571C678.772 417.383 679.333 417.127 679.86 416.809C680.553 416.37 681.141 415.783 681.58 415.089C681.655 414.966 681.737 414.837 681.805 414.708C681.873 414.579 681.805 414.497 681.757 414.388C681.641 413.538 681.553 412.668 681.403 411.838C679.489 411.394 677.744 410.407 676.378 408.995C675.204 407.831 674.215 406.494 673.447 405.031C671.753 401.848 670.883 398.291 669.618 394.911C667.68 389.77 664.857 385.023 662.015 380.317C659.417 375.978 656.805 371.626 653.854 367.525C651.888 364.804 649.773 362.213 647.828 359.486C642.326 351.877 638.379 343.257 636.213 334.12C635.881 332.367 635.41 330.643 634.805 328.965C633.635 326.108 631.493 323.783 629.834 321.171C628.05 318.356 626.828 315.222 626.236 311.943C625.896 310.079 625.325 308.066 623.468 307.862L623.271 308.25C619.422 315.731 615.471 323.347 609.67 329.454C608.742 330.352 607.893 331.328 607.133 332.372C606.523 333.384 605.978 334.433 605.501 335.514C604.583 337.454 603.364 339.238 601.89 340.798C601.451 341.242 600.973 341.645 600.461 342.002C599.782 342.496 599.026 342.875 598.224 343.124C597.908 343.22 597.585 343.293 597.258 343.341C597.258 343.423 597.292 343.498 597.299 343.579C597.306 343.661 597.34 343.756 597.354 343.845C598.354 349.286 597.925 354.893 596.109 360.119C596.061 360.282 596.007 360.438 595.946 360.602C595.665 361.363 595.359 362.111 595.028 362.846C594.198 364.648 593.212 366.375 592.437 368.205C592.307 368.518 592.178 368.83 592.063 369.143C589.342 376.427 590.022 384.56 589.669 392.388C589.638 394.1 589.435 395.804 589.063 397.475C588.601 399.359 587.86 401.304 587.452 403.249C587.08 404.707 587.049 406.231 587.363 407.703L587.2 407.764C586.472 408.036 585.731 408.281 584.99 408.512V408.614C585.255 410.138 585.514 411.661 585.779 413.178C586.003 414.483 586.268 415.898 587.18 416.823C587.428 417.027 587.655 417.255 587.86 417.503C588.397 418.346 587.921 419.462 588.023 420.461C588.173 421.876 589.478 423.08 589.274 424.487C589.182 424.908 588.99 425.3 588.712 425.629C588.435 425.959 588.082 426.216 587.683 426.378C587.348 426.53 586.997 426.641 586.636 426.711L586.411 426.759C586.003 426.834 585.595 426.874 585.187 426.915C580.121 427.418 574.986 427.922 569.967 427.065C568.974 426.895 567.988 426.67 566.982 426.589C565.71 426.532 564.436 426.584 563.173 426.745C553.863 427.627 544.499 427.808 535.161 427.289C532.733 427.153 529.945 426.759 528.66 424.685C527.592 422.964 527.98 420.74 528.517 418.775C528.671 418.052 528.949 417.362 529.34 416.734C529.384 416.667 529.434 416.603 529.489 416.544C530.741 414.987 533.094 414.892 535.12 414.953L541.744 415.15C542.396 415.203 543.053 415.152 543.689 415C544.764 414.688 545.58 413.831 546.586 413.348C547.851 412.742 549.443 412.668 550.354 411.634L550.47 411.484C550.63 411.265 550.78 411.038 550.918 410.804C550.918 410.757 550.98 410.709 551.014 410.661C551.038 410.619 551.066 410.578 551.095 410.539C551.932 409.437 553.394 409.07 554.584 408.37C554.764 408.265 554.935 408.144 555.094 408.009L555.23 407.887C553.949 406.973 552.831 405.848 551.925 404.561C551.575 404.185 551.317 403.734 551.17 403.242C551.087 402.872 551.115 402.487 551.252 402.133C551.281 402.047 551.317 401.963 551.36 401.882L551.394 401.814C551.857 400.902 552.809 400.08 553.333 399.148C553.353 399.118 553.369 399.086 553.38 399.053C554.101 397.693 554.244 395.584 553.176 394.489C553.72 385.533 556.182 376.808 556.726 367.824C556.944 364.267 556.855 360.697 557.019 357.126C557.182 353.556 557.563 350.095 557.964 346.592C558.862 338.588 561.038 330.747 560.732 322.708C560.706 321.959 560.737 321.208 560.827 320.464C560.824 320.41 560.824 320.355 560.827 320.301C561.045 318.653 561.559 317.059 562.344 315.595C563.329 313.939 564.446 312.366 565.683 310.889C569.865 305.448 574.891 300.007 576.38 293.316C577.149 289.861 578.849 286.698 580.542 283.591C581.542 281.741 582.582 279.843 584.181 278.483C585.046 277.884 585.85 277.2 586.581 276.443C587.697 275.001 587.737 273.009 588.397 271.295C588.737 270.404 589.261 269.588 589.519 268.67C589.519 268.575 589.567 268.486 589.587 268.391C589.738 267.465 589.817 266.528 589.825 265.589C589.825 265.317 589.866 265.052 589.9 264.787C590.297 262.098 591.078 259.48 592.219 257.013C592.362 256.701 592.498 256.381 592.634 256.068C589.496 254.238 586.728 251.837 584.473 248.989C583.708 248.067 583.045 247.066 582.494 246.003C581.093 243.222 580.773 240.053 580.114 237.006C578.536 229.743 574.925 222.901 574.422 215.475C574.272 213.21 574.422 210.871 573.633 208.729C573.416 208.149 573.159 207.586 572.864 207.042C572.742 206.811 572.626 206.58 572.504 206.362L572.368 206.103L572.021 205.423L571.463 205.859C557.55 216.753 542.943 226.73 527.735 235.727L526.429 236.503C525.749 236.83 525.157 237.315 524.702 237.917C524.647 238.006 524.6 238.094 524.552 238.182C524.239 238.828 524.158 239.542 523.872 240.223C523.26 241.78 521.689 242.773 520.084 243.235C517.18 243.982 514.101 243.585 511.481 242.127C511.148 241.957 510.801 241.78 510.502 241.583C509.706 242.023 508.868 242.381 507.999 242.65C505.279 243.439 502.429 243.405 499.614 243.398C496.798 243.392 493.922 243.398 491.256 244.323C489.474 244.929 487.747 245.928 485.897 246.024C485.684 246.037 485.471 246.037 485.258 246.024C484.203 245.903 483.177 245.601 482.225 245.133L481.667 244.881C481.378 244.744 481.097 244.592 480.824 244.425C480.526 244.242 480.25 244.025 480.001 243.779C479.641 243.418 479.379 242.971 479.239 242.48C479.147 242.126 479.147 241.754 479.239 241.399C479.265 241.24 479.347 241.095 479.47 240.991C479.591 240.919 479.731 240.884 479.872 240.889C480.651 240.881 481.43 240.947 482.197 241.086C482.648 241.148 483.103 241.173 483.557 241.161H483.802C484.203 241.118 484.591 240.993 484.942 240.794C485.293 240.595 485.6 240.327 485.843 240.005C485.917 239.905 485.977 239.795 486.019 239.678C486.102 239.487 486.143 239.281 486.142 239.073C486.146 239.021 486.146 238.969 486.142 238.917C485.856 238.788 485.57 238.658 485.298 238.502C485.156 238.427 485.02 238.346 484.884 238.264L484.802 238.21C484.558 238.043 484.33 237.854 484.122 237.645C483.99 237.514 483.873 237.368 483.775 237.21C483.595 236.963 483.459 236.687 483.374 236.394C482.813 236.277 482.233 236.293 481.681 236.441C480.939 236.645 480.191 237.081 479.457 237.23C479.086 237.323 478.696 237.307 478.335 237.183C477.274 236.802 476.9 235.51 476.675 234.401C476.634 234.19 476.587 233.973 476.553 233.755C476.475 233.337 476.475 232.908 476.553 232.49C476.882 231.54 477.509 230.722 478.341 230.158L480.572 228.287L480.735 228.151C480.735 227.968 480.66 227.784 480.633 227.6C480.555 227.18 480.555 226.749 480.633 226.329C480.962 225.38 481.59 224.564 482.422 224.003L487.359 219.848C488.284 219.072 489.29 218.256 490.494 218.175C492.283 218.052 493.711 219.535 495.051 220.725C496.737 222.221 498.784 223.445 501.035 223.595C502.107 223.644 503.179 223.496 504.198 223.16L504.776 222.969C504.653 222.718 504.531 222.466 504.415 222.214C504.218 221.799 504.021 221.378 503.83 220.956C506.727 220.773 509.359 219.181 511.556 217.277C513.753 215.373 515.636 213.122 517.853 211.252C520.247 209.211 522.995 207.695 525.423 205.729C531.067 201.153 534.814 194.427 540.853 190.394C542.948 188.986 545.369 187.864 546.797 185.769C547.239 185.089 547.572 184.409 548.028 183.729C549.477 181.689 551.959 180.75 554.006 179.336C556.053 177.921 557.835 175.847 559.501 173.855C560.684 172.433 561.874 171.012 563.003 169.55C564.044 167.612 564.921 165.585 566.009 163.674C566.932 162.06 568.01 160.538 569.226 159.131C569.505 158.587 569.79 158.043 570.096 157.513C570.402 156.982 570.627 156.622 570.912 156.152C571.11 155.846 571.314 155.554 571.525 155.255C570.906 154.16 570.314 153.214 570.035 152.8L569.899 152.616C569.299 151.977 568.659 151.377 567.981 150.821C567.27 150.713 566.566 150.563 565.873 150.372C561.676 149.222 557.973 146.723 555.336 143.261C552.699 139.799 551.273 135.566 551.279 131.214C551.275 131.194 551.275 131.173 551.279 131.153C551.281 128.036 552.022 124.965 553.441 122.19C553.727 121.632 554.033 121.095 554.366 120.571C554.056 120.473 553.753 120.35 553.462 120.204C552.966 119.959 552.533 119.603 552.197 119.163C551.92 118.772 551.74 118.319 551.673 117.844C551.558 116.723 551.727 115.591 552.163 114.553C552.349 114.052 552.56 113.562 552.795 113.084C552.814 113.056 552.83 113.026 552.843 112.995C555.883 106.875 562.364 103.114 568.838 102.849C575.823 102.57 582.623 105.848 588.132 110.54C589.776 111.889 591.247 113.435 592.511 115.144C595.388 119.143 596.687 124.257 597.068 129.324C597.211 130.891 597.184 132.469 596.986 134.03C596.914 134.586 596.801 135.136 596.646 135.676C596.558 135.995 596.442 136.315 596.32 136.634C596.197 136.954 596.123 137.097 596.014 137.314V137.348C595.912 137.566 595.796 137.77 595.681 137.974L595.619 138.063L595.531 138.205C595.585 138.335 595.647 138.471 595.708 138.6C595.769 138.729 595.823 138.851 595.891 138.974H595.973C597.333 139.083 598.591 139.273 599.979 139.382C600.631 139.413 601.279 139.513 601.91 139.681C603.27 140.089 604.297 141.082 605.44 141.885C608.269 143.884 611.751 144.816 614.532 146.883C618.613 149.93 620.653 154.962 623.128 159.471C626.393 165.51 631.711 170.651 634.057 177.112C635.118 180.045 636.183 182.974 637.253 185.899C639.341 191.632 641.429 197.392 644.265 202.798C648.209 210.32 653.548 217.08 656.71 224.982C657.024 225.774 657.613 226.426 658.369 226.818C662.678 232.903 666.51 239.313 669.829 245.99C671.576 249.519 673.229 253.185 673.739 257.095C674.137 260.577 673.848 264.102 672.889 267.473C672.347 269.475 671.681 271.442 670.896 273.362C670.59 274.035 670.362 274.74 670.216 275.464C670.216 275.539 670.216 275.613 670.216 275.688C670.08 276.994 670.577 278.286 670.713 279.592C670.826 280.643 670.708 281.706 670.366 282.706C670.311 282.863 670.25 283.019 670.189 283.176C669.767 283.971 669.41 284.799 669.121 285.651C669.097 285.754 669.078 285.859 669.067 285.964C668.842 287.44 669.427 288.929 669.747 290.405C670.944 295.737 670.726 301.286 670.427 306.727C670.271 309.447 672.467 311.63 674.303 313.636C677.704 317.397 680.363 321.797 682.927 326.176C684.326 328.4 685.503 330.755 686.443 333.208C687.415 336.01 687.803 338.975 688.34 341.879C690.074 350.856 695.739 358.786 697.276 367.783C697.989 371.903 699.806 375.753 702.533 378.923C703.355 379.772 704.112 380.681 704.798 381.643C705.271 382.41 705.648 383.232 705.92 384.091C706.589 386.091 706.904 388.192 706.852 390.3C706.744 391.309 706.801 392.329 707.022 393.32C707.661 395.408 709.946 396.557 710.891 398.522C711.836 400.488 711.184 403.004 711.571 405.235C711.875 407.033 712.847 408.65 714.292 409.764C713.747 410.24 713.176 410.675 712.591 411.124C713.133 411.544 713.607 412.044 713.999 412.607C714.267 412.983 714.495 413.386 714.679 413.81C715.577 415.898 715.604 418.38 716.339 420.611C716.651 421.536 717.093 422.515 716.821 423.454C716.705 423.722 716.627 424.006 716.59 424.297C716.59 424.909 717.229 425.31 717.474 425.868C717.563 426.148 717.578 426.447 717.516 426.734C717.453 427.022 717.317 427.288 717.121 427.507Z" fill="url(#paint0_linear)"/>
<path d="M573.191 162.285C577.353 161.162 581.059 158.816 584.69 156.497L597.346 148.438C593.912 148.166 590.947 145.718 589.186 142.753C587.424 139.788 586.697 136.34 586.098 132.953C580.658 135.075 575.945 138.673 571.552 142.474C569.811 143.977 566.111 146.248 565.574 148.595C565.036 150.941 568.464 152.845 569.79 154.416C570.246 154.94 574.537 161.911 573.191 162.285Z" fill="#FBBEBE"/>
<path opacity="0.1" d="M573.191 162.285C577.353 161.162 581.059 158.816 584.69 156.497L597.346 148.438C593.912 148.166 590.947 145.718 589.186 142.753C587.424 139.788 586.697 136.34 586.098 132.953C580.658 135.075 575.945 138.673 571.552 142.474C569.811 143.977 566.111 146.248 565.574 148.595C565.036 150.941 568.464 152.845 569.79 154.416C570.246 154.94 574.537 161.911 573.191 162.285Z" fill="black"/>
<path d="M504.034 228.85C501.803 229.992 499.43 231.162 496.934 230.999C494.69 230.856 492.643 229.639 490.956 228.149C489.596 226.966 488.195 225.49 486.406 225.613C485.209 225.694 484.203 226.503 483.278 227.272L478.348 231.4C477.518 231.958 476.89 232.769 476.559 233.712C476.462 234.352 476.501 235.006 476.675 235.63C476.899 236.732 477.273 238.017 478.334 238.391C479.395 238.765 480.551 237.963 481.673 237.657C482.359 237.481 483.079 237.494 483.757 237.694C484.436 237.894 485.048 238.274 485.529 238.792C485.93 239.186 486.172 239.714 486.209 240.275C486.209 241.506 484.849 242.315 483.598 242.376C482.346 242.437 481.149 242.029 479.912 242.104C479.837 242.095 479.761 242.1 479.689 242.121C479.616 242.141 479.548 242.176 479.489 242.223C479.43 242.269 479.381 242.328 479.345 242.394C479.309 242.46 479.287 242.533 479.279 242.607C479.202 243.037 479.235 243.479 479.374 243.893C479.513 244.306 479.754 244.678 480.075 244.974C480.721 245.564 481.473 246.025 482.292 246.334C483.243 246.805 484.27 247.104 485.325 247.218C487.413 247.354 489.331 246.198 491.31 245.525C493.975 244.627 496.845 244.6 499.661 244.607C502.476 244.614 505.333 244.654 508.033 243.866C510.732 243.077 513.296 241.329 514.35 238.724C514.475 238.481 514.515 238.204 514.466 237.935C514.361 237.649 514.159 237.408 513.895 237.255C510.1 234.447 508.563 231.033 504.292 229.013L504.034 228.85Z" fill="#FBBEBE"/>
<path opacity="0.1" d="M504.034 228.85C501.803 229.992 499.43 231.162 496.934 230.999C494.69 230.856 492.643 229.639 490.956 228.149C489.596 226.966 488.195 225.49 486.406 225.613C485.209 225.694 484.203 226.503 483.278 227.272L478.348 231.4C477.518 231.958 476.89 232.769 476.559 233.712C476.462 234.352 476.501 235.006 476.675 235.63C476.899 236.732 477.273 238.017 478.334 238.391C479.395 238.765 480.551 237.963 481.673 237.657C482.359 237.481 483.079 237.494 483.757 237.694C484.436 237.894 485.048 238.274 485.529 238.792C485.93 239.186 486.172 239.714 486.209 240.275C486.209 241.506 484.849 242.315 483.598 242.376C482.346 242.437 481.149 242.029 479.912 242.104C479.837 242.095 479.761 242.1 479.689 242.121C479.616 242.141 479.548 242.176 479.489 242.223C479.43 242.269 479.381 242.328 479.345 242.394C479.309 242.46 479.287 242.533 479.279 242.607C479.202 243.037 479.235 243.479 479.374 243.893C479.513 244.306 479.754 244.678 480.075 244.974C480.721 245.564 481.473 246.025 482.292 246.334C483.243 246.805 484.27 247.104 485.325 247.218C487.413 247.354 489.331 246.198 491.31 245.525C493.975 244.627 496.845 244.6 499.661 244.607C502.476 244.614 505.333 244.654 508.033 243.866C510.732 243.077 513.296 241.329 514.35 238.724C514.475 238.481 514.515 238.204 514.466 237.935C514.361 237.649 514.159 237.408 513.895 237.255C510.1 234.447 508.563 231.033 504.292 229.013L504.034 228.85Z" fill="black"/>
<path d="M583.669 156.322C582.614 155.641 581.417 155.212 580.169 155.067C578.922 154.922 577.658 155.065 576.474 155.486C574.105 156.339 571.979 157.756 570.279 159.614C568.582 161.345 567.112 163.285 565.906 165.388C564.75 167.428 563.866 169.563 562.71 171.597C560.669 175.235 558.004 178.445 555.324 181.628C553.658 183.607 551.971 185.613 549.836 187.068C547.701 188.523 545.314 189.414 543.865 191.434C543.409 192.073 543.083 192.794 542.634 193.44C541.213 195.521 538.798 196.637 536.697 198.031C530.672 202.043 526.924 208.722 521.294 213.271C518.866 215.23 516.125 216.767 513.738 218.766C511.514 220.623 509.658 222.847 507.44 224.751C505.223 226.655 502.619 228.226 499.729 228.403C501.66 232.708 503.965 236.931 507.277 240.284C510.589 243.636 515.554 245.779 520.076 244.466C521.681 244.004 523.252 243.024 523.864 241.474C524.057 240.677 524.325 239.9 524.667 239.155C525.121 238.556 525.711 238.074 526.387 237.747C544.542 227.15 561.847 215.16 578.147 201.887C582.52 198.323 586.859 195.134 591.347 191.686C592.957 190.544 594.445 189.241 595.788 187.796C597.66 185.56 598.829 182.822 599.149 179.923C599.468 177.025 598.924 174.098 597.584 171.508C596.38 169.527 595.001 167.659 593.462 165.925C590.664 162.281 587.367 159.049 583.669 156.322Z" fill="#2E4057"/>
<path opacity="0.1" d="M583.669 156.322C582.614 155.641 581.417 155.212 580.169 155.067C578.922 154.922 577.658 155.065 576.474 155.486C574.105 156.339 571.979 157.756 570.279 159.614C568.582 161.345 567.112 163.285 565.906 165.388C564.75 167.428 563.866 169.563 562.71 171.597C560.669 175.235 558.004 178.445 555.324 181.628C553.658 183.607 551.971 185.613 549.836 187.068C547.701 188.523 545.314 189.414 543.865 191.434C543.409 192.073 543.083 192.794 542.634 193.44C541.213 195.521 538.798 196.637 536.697 198.031C530.672 202.043 526.924 208.722 521.294 213.271C518.866 215.23 516.125 216.767 513.738 218.766C511.514 220.623 509.658 222.847 507.44 224.751C505.223 226.655 502.619 228.226 499.729 228.403C501.66 232.708 503.965 236.931 507.277 240.284C510.589 243.636 515.554 245.779 520.076 244.466C521.681 244.004 523.252 243.024 523.864 241.474C524.057 240.677 524.325 239.9 524.667 239.155C525.121 238.556 525.711 238.074 526.387 237.747C544.542 227.15 561.847 215.16 578.147 201.887C582.52 198.323 586.859 195.134 591.347 191.686C592.957 190.544 594.445 189.241 595.788 187.796C597.66 185.56 598.829 182.822 599.149 179.923C599.468 177.025 598.924 174.098 597.584 171.508C596.38 169.527 595.001 167.659 593.462 165.925C590.664 162.281 587.367 159.049 583.669 156.322Z" fill="black"/>
<path d="M554.447 408.607C553.257 409.287 551.795 409.668 550.958 410.77C550.686 411.123 550.503 411.538 550.21 411.878C549.306 412.939 547.701 412.987 546.443 413.592C545.436 414.068 544.62 414.952 543.552 415.231C542.914 415.383 542.255 415.433 541.601 415.381L534.99 415.183C532.896 415.122 530.441 415.231 529.223 416.938C528.828 417.563 528.547 418.254 528.394 418.978C527.884 420.93 527.469 423.14 528.537 424.854C529.815 426.894 532.617 427.309 535.031 427.445C544.358 427.961 553.71 427.779 563.009 426.901C564.267 426.74 565.537 426.688 566.804 426.745C567.81 426.826 568.797 427.051 569.79 427.221C574.802 428.071 579.929 427.574 584.989 427.071C585.844 427.03 586.687 426.851 587.485 426.541C587.882 426.379 588.234 426.122 588.51 425.794C588.786 425.466 588.978 425.076 589.069 424.657C589.28 423.256 587.968 422.066 587.825 420.658C587.723 419.665 588.199 418.557 587.655 417.713C587.451 417.465 587.223 417.237 586.975 417.033C586.064 416.088 585.798 414.707 585.574 413.415L584.384 406.431C584.35 405.939 584.149 405.473 583.813 405.112C583.563 404.931 583.274 404.813 582.969 404.765C577.787 403.595 572.476 404.663 567.328 405.316C564.678 405.704 561.998 405.838 559.323 405.717C558.167 405.642 557.718 405.506 556.855 406.261C555.991 407.016 555.528 407.975 554.447 408.607Z" fill="#333333"/>
<path d="M679.586 417.011C678.677 417.52 677.702 417.902 676.689 418.147C674.019 418.927 671.353 419.741 668.692 420.588C667.984 420.764 667.319 421.083 666.74 421.527C665.815 422.343 665.577 423.676 665.509 424.927C665.421 425.617 665.503 426.317 665.747 426.968C666.066 427.577 666.534 428.097 667.107 428.477C670.154 430.783 674.132 431.497 677.954 431.497C681.776 431.497 685.571 430.851 689.393 430.749C694.011 430.626 698.751 431.279 703.192 429.987C704.039 429.674 704.92 429.459 705.817 429.348C706.413 429.339 707.009 429.377 707.598 429.463C709.98 429.699 712.385 429.48 714.685 428.817C715.377 428.664 716.021 428.344 716.562 427.886C716.829 427.654 717.021 427.347 717.11 427.005C717.2 426.662 717.184 426.301 717.065 425.968C716.82 425.417 716.195 425.016 716.188 424.41C716.22 424.12 716.296 423.835 716.412 423.567C716.691 422.636 716.242 421.663 715.929 420.745C715.052 418.12 715.195 415.1 713.624 412.822C712.053 410.544 709.169 409.605 706.429 409.245C704.201 408.93 701.936 408.995 699.73 409.435C697.248 409.966 694.929 411.074 692.494 411.782C689.669 412.594 686.717 412.873 683.789 412.604C681.844 412.441 682.511 412.747 681.851 414.379C681.383 415.468 680.593 416.386 679.586 417.011Z" fill="#333333"/>
<path d="M570.919 152.852C581.811 152.852 590.641 144.022 590.641 133.13C590.641 122.238 581.811 113.408 570.919 113.408C560.027 113.408 551.197 122.238 551.197 133.13C551.197 144.022 560.027 152.852 570.919 152.852Z" fill="#FBBEBE"/>
<path d="M713.896 409.959C707.775 415.216 699.512 417.514 691.454 417.596C688.053 417.63 684.524 417.263 681.627 415.501C681.423 414.386 681.341 413.182 681.137 412.067C677.621 411.332 674.894 408.469 673.194 405.3C671.494 402.131 670.63 398.608 669.365 395.249C667.434 390.135 664.604 385.422 661.775 380.743C659.177 376.431 656.573 372.106 653.615 368.032C651.656 365.312 649.534 362.755 647.596 360.042C642.105 352.488 638.164 343.922 636.001 334.838C635.67 333.096 635.199 331.384 634.593 329.717C633.423 326.875 631.281 324.562 629.629 321.971C627.846 319.175 626.624 316.059 626.031 312.797C625.698 310.947 625.126 308.948 623.27 308.757C619.366 316.34 615.388 324.045 609.485 330.214C608.557 331.104 607.708 332.074 606.948 333.111C606.339 334.118 605.794 335.163 605.316 336.239C604.4 338.169 603.184 339.941 601.712 341.489C600.478 342.809 598.851 343.696 597.074 344.019C598.385 350.554 597.604 357.335 594.843 363.401C594.02 365.196 593.034 366.91 592.259 368.726C589.09 376.207 589.824 384.646 589.491 392.76C589.462 394.46 589.261 396.153 588.892 397.813C588.069 401.131 586.369 404.661 587.192 407.98C578.664 411.237 569.191 411.033 560.159 409.659C558.393 409.498 556.678 408.977 555.12 408.129C553.839 407.223 552.722 406.105 551.815 404.824C551.465 404.451 551.207 404.002 551.06 403.512C550.706 401.961 552.42 400.791 553.216 399.431C554.012 398.071 554.154 395.915 553.06 394.8C553.604 385.898 556.065 377.207 556.61 368.277C556.827 364.741 556.739 361.191 556.902 357.648C557.065 354.105 557.446 350.657 557.84 347.175C558.738 339.225 560.914 331.431 560.608 323.44C560.515 320.981 561.081 318.541 562.247 316.374C563.23 314.728 564.345 313.163 565.58 311.695C569.755 306.302 574.774 300.896 576.263 294.238C577.032 290.804 578.732 287.662 580.419 284.574C581.418 282.731 582.459 280.847 584.05 279.494C584.916 278.895 585.72 278.212 586.451 277.454C587.566 276.019 587.607 274.054 588.267 272.34C588.607 271.456 589.13 270.64 589.382 269.728C589.589 268.721 589.692 267.696 589.688 266.668C589.906 263.376 591.171 260.194 592.504 257.181C589.369 255.366 586.601 252.981 584.343 250.149C583.584 249.229 582.923 248.233 582.371 247.177C580.97 244.416 580.65 241.267 579.99 238.241C578.419 231.019 574.808 224.225 574.305 216.846C574.155 214.595 574.305 212.269 573.523 210.141C573.162 209.24 572.739 208.365 572.258 207.522C571.784 206.695 571.422 205.807 571.183 204.884C570.748 202.877 571.347 200.803 571.183 198.763C571.02 196.961 570.252 195.274 569.871 193.513C569.482 191.221 569.416 188.886 569.674 186.576C569.844 183.856 570.435 181.047 570.204 178.361C569.829 173.916 570.396 169.442 571.866 165.23C573.337 161.019 575.679 157.165 578.739 153.919L578.895 153.763C580.194 152.403 581.616 151.199 582.785 149.757C584.377 147.826 585.506 145.554 587.185 143.677C587.92 142.841 588.75 142.093 589.477 141.25C590.145 140.365 590.884 139.537 591.687 138.774C592.094 138.397 592.586 138.124 593.122 137.981C593.658 137.837 594.221 137.827 594.761 137.951C594.898 138.965 595.216 139.947 595.7 140.848C597.114 140.957 598.373 141.154 599.78 141.263C600.433 141.294 601.08 141.394 601.712 141.562C603.038 141.964 604.099 142.923 605.234 143.745C608.064 145.738 611.539 146.663 614.32 148.717C618.401 151.743 620.441 156.742 622.903 161.223C626.16 167.228 631.471 172.336 633.784 178.755L636.973 187.487C639.061 193.186 641.149 198.906 643.978 204.278C647.916 211.759 653.247 218.499 656.41 226.326C656.726 227.111 657.312 227.758 658.062 228.149C662.368 234.188 666.195 240.555 669.508 247.191C671.256 250.7 672.908 254.345 673.411 258.228C674.153 263.716 672.656 269.266 670.575 274.394C670.239 275.128 670.01 275.906 669.895 276.706C669.759 278.005 670.256 279.283 670.392 280.582C670.523 281.795 670.343 283.022 669.868 284.146C669.445 284.936 669.088 285.759 668.8 286.608C668.433 288.172 669.086 289.763 669.44 291.327C670.637 296.625 670.419 302.113 670.12 307.54C669.963 310.26 672.16 312.416 673.989 314.409C677.39 318.142 680.042 322.508 682.606 326.868C684 329.079 685.175 331.42 686.115 333.859C687.088 336.64 687.475 339.585 688.012 342.475C689.74 351.391 695.398 359.273 696.935 368.216C697.647 372.313 699.462 376.138 702.185 379.281C703.006 380.131 703.763 381.04 704.45 382.001C704.92 382.764 705.294 383.582 705.565 384.436C706.234 386.421 706.549 388.509 706.497 390.604C706.389 391.606 706.446 392.619 706.667 393.603C707.306 395.677 709.591 396.82 710.53 398.771C711.468 400.723 710.822 403.226 711.21 405.443C711.502 407.233 712.462 408.847 713.896 409.959Z" fill="#2E4057"/>
<path d="M508.114 222.733C505.884 223.875 503.51 225.045 501.014 224.882C498.77 224.739 496.723 223.521 495.037 222.032C493.676 220.849 492.275 219.373 490.487 219.495C489.29 219.577 488.284 220.386 487.359 221.155L482.428 225.283C481.598 225.841 480.971 226.652 480.64 227.595C480.542 228.235 480.582 228.889 480.755 229.513C480.98 230.615 481.354 231.9 482.414 232.274C483.475 232.648 484.632 231.846 485.754 231.539C486.439 231.364 487.159 231.377 487.838 231.577C488.516 231.777 489.129 232.156 489.61 232.675C490.01 233.069 490.252 233.597 490.29 234.158C490.29 235.389 488.93 236.198 487.678 236.259C486.427 236.32 485.23 235.912 483.992 235.987C483.918 235.978 483.842 235.983 483.769 236.004C483.697 236.024 483.629 236.059 483.57 236.105C483.511 236.152 483.462 236.211 483.426 236.277C483.39 236.343 483.367 236.415 483.36 236.49C483.283 236.92 483.316 237.362 483.455 237.776C483.594 238.189 483.835 238.561 484.155 238.857C484.802 239.447 485.554 239.908 486.373 240.217C487.324 240.688 488.351 240.987 489.406 241.101C491.493 241.237 493.411 240.081 495.39 239.408C498.056 238.51 500.926 238.483 503.741 238.49C506.557 238.497 509.413 238.537 512.113 237.749C514.813 236.96 517.377 235.212 518.431 232.607C518.556 232.364 518.596 232.087 518.547 231.818C518.441 231.532 518.239 231.291 517.975 231.138C514.181 228.33 512.644 224.916 508.373 222.896L508.114 222.733Z" fill="#FBBEBE"/>
<path d="M561.323 121.011C560.147 121.202 559.147 121.998 558.031 122.44C557.283 122.73 556.481 122.859 555.679 122.817C554.877 122.775 554.094 122.563 553.38 122.195C552.882 121.953 552.447 121.599 552.108 121.161C551.197 119.896 551.516 118.06 552.074 116.577C554.713 109.566 561.758 105.227 568.736 104.948C575.713 104.669 582.5 107.927 588.002 112.585C589.638 113.93 591.107 115.466 592.375 117.162C595.245 121.141 596.544 126.221 596.925 131.253C597.152 133.365 597.012 135.501 596.51 137.564C596.268 138.567 595.827 139.511 595.212 140.34C594.598 141.168 593.822 141.864 592.933 142.386C590.988 143.379 588.655 143.066 586.69 142.114C584.724 141.162 583.038 139.659 581.351 138.224C580.587 137.487 579.683 136.911 578.692 136.531C578.198 136.355 577.664 136.325 577.153 136.446C576.643 136.567 576.178 136.832 575.815 137.211C574.904 138.306 575.135 140.101 574.305 141.291C573.476 142.481 571.748 142.651 570.293 142.651C568.838 142.651 567.362 142.529 566.492 141.373C565.696 140.325 565.811 138.795 566.111 137.476C566.41 136.157 566.92 134.851 566.791 133.498C566.512 130.777 564.132 129.104 563.39 126.602C562.908 124.963 563.968 124.269 563.86 122.786C563.778 121.481 562.377 120.841 561.323 121.011Z" fill="#333333"/>
<path opacity="0.1" d="M623.284 308.59V308.76C619.381 316.343 615.402 324.048 609.499 330.217C608.571 331.107 607.723 332.076 606.962 333.114C606.353 334.121 605.808 335.166 605.33 336.242C604.415 338.172 603.198 339.944 601.726 341.492L596.802 343.954L612.444 262.346L623.284 308.59Z" fill="black"/>
<path opacity="0.1" d="M600.549 185.072C599.205 186.517 597.717 187.82 596.108 188.962C591.62 192.362 587.267 195.572 582.908 199.163C579.394 202.024 575.831 204.825 572.217 207.568C571.743 206.741 571.382 205.853 571.143 204.93C570.708 202.923 571.306 200.849 571.143 198.809C570.98 197.007 570.211 195.32 569.83 193.559C569.441 191.267 569.375 188.932 569.633 186.622C569.803 183.902 570.395 181.093 570.163 178.407C569.787 173.951 570.357 169.466 571.834 165.246C573.312 161.026 575.665 157.165 578.739 153.918L578.896 153.761C579.627 153.336 580.403 152.989 581.208 152.728C582.394 152.312 583.659 152.174 584.907 152.325C586.154 152.476 587.35 152.912 588.403 153.598C592.101 156.325 595.397 159.557 598.196 163.201C599.734 164.934 601.114 166.803 602.317 168.784C603.661 171.371 604.21 174.297 603.895 177.195C603.581 180.093 602.416 182.834 600.549 185.072Z" fill="black"/>
<path d="M587.751 150.201C586.695 149.52 585.498 149.091 584.25 148.945C583.003 148.8 581.739 148.944 580.555 149.365C578.186 150.218 576.06 151.635 574.36 153.493C572.663 155.223 571.193 157.164 569.987 159.266C568.831 161.307 567.947 163.442 566.791 165.475C564.751 169.114 562.085 172.324 559.405 175.507C557.739 177.486 556.053 179.492 553.917 180.947C551.782 182.402 549.395 183.293 547.946 185.313C547.49 185.952 547.164 186.673 546.715 187.319C545.294 189.4 542.88 190.516 540.778 191.91C534.753 195.922 531.006 202.6 525.375 207.15C522.947 209.109 520.206 210.646 517.819 212.645C515.595 214.502 513.739 216.726 511.522 218.63C509.305 220.534 506.7 222.105 503.81 222.282C505.741 226.587 508.046 230.81 511.358 234.163C514.67 237.515 519.635 239.657 524.157 238.345C525.762 237.883 527.333 236.903 527.945 235.353C528.138 234.556 528.407 233.779 528.748 233.034C529.202 232.435 529.792 231.953 530.468 231.626C548.623 221.029 565.928 209.039 582.228 195.766C586.601 192.202 590.94 189.013 595.429 185.565C597.038 184.423 598.526 183.12 599.869 181.675C601.741 179.439 602.911 176.7 603.23 173.802C603.549 170.904 603.005 167.976 601.665 165.387C600.461 163.406 599.082 161.537 597.544 159.804C594.745 156.16 591.448 152.928 587.751 150.201Z" fill="#2E4057"/>
<g opacity="0.1">
<path opacity="0.1" d="M571.652 139.911C570.292 139.911 568.721 139.789 567.851 138.633C567.062 137.585 567.171 136.055 567.47 134.736C567.769 133.416 568.279 132.111 568.15 130.757C567.871 128.037 565.491 126.364 564.75 123.861C564.267 122.222 565.328 121.529 565.219 120.046C565.124 118.761 563.729 118.122 562.675 118.292C561.499 118.482 560.499 119.278 559.384 119.72C558.635 120.011 557.834 120.139 557.032 120.097C556.23 120.055 555.446 119.843 554.732 119.475C554.234 119.233 553.799 118.879 553.46 118.441C552.549 117.176 552.869 115.34 553.426 113.858C553.426 113.803 553.474 113.756 553.494 113.701C552.926 114.611 552.447 115.575 552.066 116.578C551.509 118.06 551.189 119.897 552.1 121.162C552.439 121.6 552.874 121.953 553.372 122.195C554.086 122.563 554.87 122.775 555.672 122.817C556.473 122.859 557.275 122.731 558.024 122.44C559.139 121.998 560.139 121.202 561.315 121.012C562.369 120.842 563.763 121.481 563.859 122.767C563.968 124.249 562.907 124.943 563.389 126.582C564.117 129.084 566.497 130.785 566.79 133.478C566.926 134.838 566.429 136.143 566.11 137.456C565.79 138.769 565.702 140.305 566.491 141.353C567.361 142.509 568.918 142.618 570.292 142.631C571.666 142.645 573.434 142.55 574.305 141.271C574.68 140.629 574.927 139.92 575.032 139.183C574.107 139.843 572.815 139.925 571.652 139.911Z" fill="black"/>
<path opacity="0.1" d="M594.292 139.665C592.347 140.658 590.015 140.346 588.049 139.393C586.084 138.441 584.397 136.938 582.711 135.503C581.946 134.767 581.042 134.191 580.051 133.81C579.557 133.634 579.023 133.605 578.513 133.725C578.002 133.846 577.538 134.112 577.175 134.49C576.713 135.173 576.421 135.957 576.325 136.775C576.678 136.567 577.073 136.437 577.481 136.393C577.889 136.35 578.302 136.394 578.691 136.524C579.682 136.904 580.586 137.48 581.35 138.217C583.037 139.652 584.751 141.162 586.689 142.107C588.627 143.052 590.987 143.372 592.932 142.379C594.652 141.372 595.906 139.728 596.421 137.802C595.862 138.577 595.134 139.214 594.292 139.665Z" fill="black"/>
</g>
<path d="M425.044 432.021C436.312 432.021 445.446 422.887 445.446 411.619C445.446 400.351 436.312 391.217 425.044 391.217C413.776 391.217 404.642 400.351 404.642 411.619C404.642 422.887 413.776 432.021 425.044 432.021Z" fill="#333333"/>
<path opacity="0.1" d="M425.044 432.021C436.312 432.021 445.446 422.887 445.446 411.619C445.446 400.351 436.312 391.217 425.044 391.217C413.776 391.217 404.642 400.351 404.642 411.619C404.642 422.887 413.776 432.021 425.044 432.021Z" fill="black"/>
<path d="M425.044 424.538C432.18 424.538 437.965 418.753 437.965 411.617C437.965 404.48 432.18 398.695 425.044 398.695C417.908 398.695 412.123 404.48 412.123 411.617C412.123 418.753 417.908 424.538 425.044 424.538Z" fill="#2E4057"/>
<path opacity="0.1" d="M425.044 424.538C432.18 424.538 437.965 418.753 437.965 411.617C437.965 404.48 432.18 398.695 425.044 398.695C417.908 398.695 412.123 404.48 412.123 411.617C412.123 418.753 417.908 424.538 425.044 424.538Z" fill="black"/>
<path d="M409.402 379.655L422.786 409.919C422.985 410.372 423.31 410.76 423.722 411.035C424.135 411.31 424.617 411.461 425.112 411.471C425.608 411.481 426.095 411.349 426.518 411.091C426.941 410.833 427.282 410.459 427.499 410.014L443.406 377.615L409.402 379.655Z" fill="#333333"/>
<path opacity="0.1" d="M409.402 379.655L422.786 409.919C422.985 410.372 423.31 410.76 423.722 411.035C424.135 411.31 424.617 411.461 425.112 411.471C425.608 411.481 426.095 411.349 426.518 411.091C426.941 410.833 427.282 410.459 427.499 410.014L443.406 377.615L409.402 379.655Z" fill="black"/>
<path d="M297.871 432.021C309.139 432.021 318.273 422.887 318.273 411.619C318.273 400.351 309.139 391.217 297.871 391.217C286.603 391.217 277.469 400.351 277.469 411.619C277.469 422.887 286.603 432.021 297.871 432.021Z" fill="#333333"/>
<path opacity="0.1" d="M297.871 432.021C309.139 432.021 318.273 422.887 318.273 411.619C318.273 400.351 309.139 391.217 297.871 391.217C286.603 391.217 277.469 400.351 277.469 411.619C277.469 422.887 286.603 432.021 297.871 432.021Z" fill="black"/>
<path d="M297.871 424.538C305.007 424.538 310.792 418.753 310.792 411.617C310.792 404.48 305.007 398.695 297.871 398.695C290.734 398.695 284.949 404.48 284.949 411.617C284.949 418.753 290.734 424.538 297.871 424.538Z" fill="#2E4057"/>
<path opacity="0.1" d="M297.871 424.538C305.007 424.538 310.792 418.753 310.792 411.617C310.792 404.48 305.007 398.695 297.871 398.695C290.734 398.695 284.949 404.48 284.949 411.617C284.949 418.753 290.734 424.538 297.871 424.538Z" fill="black"/>
<path d="M282.229 379.655L295.613 409.919C295.812 410.372 296.137 410.76 296.549 411.035C296.961 411.31 297.443 411.461 297.939 411.471C298.434 411.481 298.922 411.349 299.345 411.091C299.768 410.833 300.108 410.459 300.326 410.014L316.232 377.615L282.229 379.655Z" fill="#333333"/>
<path opacity="0.1" d="M282.229 379.655L295.613 409.919C295.812 410.372 296.137 410.76 296.549 411.035C296.961 411.31 297.443 411.461 297.939 411.471C298.434 411.481 298.922 411.349 299.345 411.091C299.768 410.833 300.108 410.459 300.326 410.014L316.232 377.615L282.229 379.655Z" fill="black"/>
<path d="M491.256 233.95C491.2 233.434 491.015 232.942 490.72 232.516C490.424 232.091 490.026 231.747 489.562 231.515C489.172 231.349 488.752 231.262 488.328 231.262C487.904 231.261 487.483 231.346 487.093 231.511C486.702 231.676 486.348 231.918 486.053 232.222C485.757 232.527 485.526 232.887 485.373 233.283L473.669 262.342L470.269 392.916H475.709L477.749 262.621L490.97 235.922C491.271 235.311 491.371 234.621 491.256 233.95Z" fill="#333333"/>
<path d="M250.605 382.716L268.967 371.155L467.208 369.455L472.308 382.716H250.605Z" fill="#2E4057"/>
<path d="M250.605 394.96V382.719L475.899 380.543L475.681 388.84H254.686V394.96H250.605Z" fill="#333333"/>
<path d="M279.169 439.164C290.437 439.164 299.571 430.029 299.571 418.761C299.571 407.494 290.437 398.359 279.169 398.359C267.901 398.359 258.767 407.494 258.767 418.761C258.767 430.029 267.901 439.164 279.169 439.164Z" fill="#333333"/>
<path d="M279.169 431.681C286.305 431.681 292.09 425.895 292.09 418.759C292.09 411.623 286.305 405.838 279.169 405.838C272.033 405.838 266.248 411.623 266.248 418.759C266.248 425.895 272.033 431.681 279.169 431.681Z" fill="#2E4057"/>
<path d="M263.527 386.796L276.911 417.059C277.11 417.513 277.435 417.9 277.847 418.175C278.26 418.45 278.742 418.602 279.237 418.612C279.733 418.622 280.22 418.49 280.643 418.232C281.066 417.973 281.407 417.6 281.624 417.154L297.531 384.756L263.527 386.796Z" fill="#333333"/>
<path d="M437.625 439.164C448.892 439.164 458.027 430.029 458.027 418.761C458.027 407.494 448.892 398.359 437.625 398.359C426.357 398.359 417.223 407.494 417.223 418.761C417.223 430.029 426.357 439.164 437.625 439.164Z" fill="#333333"/>
<path d="M437.624 431.681C444.761 431.681 450.546 425.895 450.546 418.759C450.546 411.623 444.761 405.838 437.624 405.838C430.488 405.838 424.703 411.623 424.703 418.759C424.703 425.895 430.488 431.681 437.624 431.681Z" fill="#2E4057"/>
<path d="M421.983 386.796L435.367 417.059C435.566 417.513 435.891 417.9 436.303 418.175C436.715 418.45 437.197 418.602 437.693 418.612C438.188 418.622 438.676 418.49 439.099 418.232C439.522 417.973 439.862 417.6 440.08 417.154L455.986 384.756L421.983 386.796Z" fill="#333333"/>
<path d="M361.117 329.326H276.108V376.251H361.117V329.326Z" fill="#2E4057"/>
<path opacity="0.1" d="M331.874 337.492H306.031V342.933H331.874V337.492Z" fill="black"/>
<path opacity="0.1" d="M328.644 338.17H309.262V342.25H328.644V338.17Z" fill="black"/>
<path d="M447.486 329.326H362.478V376.251H447.486V329.326Z" fill="#2E4057"/>
<path opacity="0.1" d="M418.243 337.492H392.4V342.933H418.243V337.492Z" fill="black"/>
<path opacity="0.1" d="M415.012 338.17H395.63V342.25H415.012V338.17Z" fill="black"/>
<path d="M361.117 281.045H276.108V327.97H361.117V281.045Z" fill="#2E4057"/>
<path opacity="0.1" d="M331.874 289.211H306.031V294.651H331.874V289.211Z" fill="black"/>
<path opacity="0.1" d="M328.644 289.885H309.262V293.965H328.644V289.885Z" fill="black"/>
<path d="M447.486 281.045H362.478V327.97H447.486V281.045Z" fill="#2E4057"/>
<path opacity="0.1" d="M418.243 289.211H392.4V294.651H418.243V289.211Z" fill="black"/>
<path opacity="0.1" d="M415.012 289.885H395.63V293.965H415.012V289.885Z" fill="black"/>
<path d="M361.117 232.076H276.108V279.001H361.117V232.076Z" fill="#2E4057"/>
<path opacity="0.1" d="M331.874 240.242H306.031V245.683H331.874V240.242Z" fill="black"/>
<path opacity="0.1" d="M328.644 240.92H309.262V245H328.644V240.92Z" fill="black"/>
<path d="M447.486 232.076H362.478V279.001H447.486V232.076Z" fill="#2E4057"/>
<path opacity="0.1" d="M418.243 240.242H392.4V245.683H418.243V240.242Z" fill="black"/>
<path opacity="0.1" d="M415.012 240.92H395.63V245H415.012V240.92Z" fill="black"/>
<path d="M447.486 183.115H362.478V230.04H447.486V183.115Z" fill="#2E4057"/>
<path opacity="0.1" d="M418.243 191.273H392.4V196.714H418.243V191.273Z" fill="black"/>
<path opacity="0.1" d="M415.012 191.961H395.63V196.041H415.012V191.961Z" fill="black"/>
<defs>
<linearGradient id="paint0_linear" x1="596.986" y1="431.431" x2="596.986" y2="102.862" gradientUnits="userSpaceOnUse">
<stop stop-color="#808080" stop-opacity="0.25"/>
<stop offset="0.54" stop-color="#808080" stop-opacity="0.12"/>
<stop offset="1" stop-color="#808080" stop-opacity="0.1"/>
</linearGradient>
</defs>
</svg>
