<svg width="389" height="229" viewBox="0 0 389 229" fill="none" xmlns="http://www.w3.org/2000/svg">
<path opacity="0.1" d="M378.58 212.177C378.215 212.444 377.84 212.701 377.461 212.954C376.064 213.891 374.606 214.732 373.096 215.473C365.163 219.429 355.391 221.36 345.87 222.672C324.517 225.621 302.714 226.192 281.003 226.753C222.348 228.278 163.537 229.796 105.031 226.287C81.9162 224.9 58.2844 222.567 37.3339 215.467C34.3336 214.45 31.3896 213.33 28.502 212.106C22.6659 209.62 17.0597 206.601 12.3969 203.003C8.00125 199.622 4.46442 195.733 2.34097 191.317C-2.08852 182.114 0.254717 171.777 5.30974 162.759C7.4227 159.1 9.79571 155.597 12.4104 152.277C16.3057 147.198 20.6033 142.279 24.5324 137.207C38.5039 119.144 47.6198 96.3302 34.7236 77.8278C31.0042 72.5124 25.6583 67.8462 22.6388 62.2975C18.7808 55.1968 19.0817 47.315 20.3091 39.6429C20.4647 38.6758 20.6473 37.7156 20.813 36.7553C22.9195 25.4043 26.8418 13.1708 38.984 6.0836C51.5962 -1.28084 69.5001 -0.908903 85.1589 1.72512C109.504 5.82324 131.963 14.3813 154.641 22.1109C177.319 29.8405 201.073 36.9007 226.013 37.6648C248.032 38.3411 273.72 33.3131 288.334 20.2647C302.535 7.59165 329.214 6.62799 348.453 14.2832C361.64 19.5378 371.497 29.002 375.652 39.6429C376.492 41.7734 377.099 43.9887 377.461 46.2499C377.798 48.3089 377.912 50.3983 377.799 52.4816C377.742 53.496 377.63 54.5273 377.461 55.5248C374.249 76.5328 351.118 93.1011 337.058 111.867C330.187 121.034 325.335 132.043 330.059 141.927C337.264 156.987 362.323 162.34 377.461 173.552C380.289 175.57 382.797 178.002 384.9 180.768C392.22 190.749 389.512 204.22 378.58 212.177Z" fill="#2E4057"/>
<path opacity="0.1" d="M181.809 223.116C232.163 223.116 272.983 221.73 272.983 220.019C272.983 218.309 232.163 216.922 181.809 216.922C131.456 216.922 90.6364 218.309 90.6364 220.019C90.6364 221.73 131.456 223.116 181.809 223.116Z" fill="#2E4057"/>
<path d="M254.247 217.959C254.247 217.959 273.858 193.116 272.34 168.423C271.701 158.056 274.254 147.736 279.958 139.056C282.672 134.944 285.757 131.09 289.176 127.543" stroke="#2E4057" stroke-width="2" stroke-miterlimit="10"/>
<path d="M288.307 111.973C286.92 115.429 289.148 127.953 289.148 127.953C289.148 127.953 299.424 120.45 300.811 116.997C301.14 116.176 301.305 115.298 301.296 114.412C301.286 113.527 301.102 112.653 300.755 111.838C300.407 111.024 299.903 110.287 299.27 109.667C298.637 109.048 297.889 108.56 297.067 108.23C296.246 107.9 295.368 107.735 294.482 107.745C293.597 107.754 292.723 107.938 291.908 108.285C291.094 108.633 290.357 109.138 289.737 109.77C289.118 110.403 288.63 111.151 288.3 111.973H288.307Z" fill="#99C24D"/>
<path d="M270.288 126.948C271.001 130.599 279.681 139.901 279.681 139.901C279.681 139.901 284.229 128.02 283.515 124.368C283.155 122.631 282.125 121.107 280.648 120.125C279.171 119.143 277.367 118.783 275.627 119.123C273.886 119.462 272.35 120.474 271.35 121.939C270.351 123.404 269.969 125.203 270.288 126.948Z" fill="#99C24D"/>
<path d="M257.611 159.815C260.069 162.608 272.256 166.239 272.256 166.239C272.256 166.239 270.183 153.688 267.725 150.895C267.14 150.231 266.43 149.688 265.636 149.299C264.842 148.909 263.979 148.679 263.096 148.623C262.213 148.567 261.328 148.685 260.49 148.971C259.653 149.257 258.88 149.705 258.216 150.29C257.552 150.874 257.01 151.584 256.62 152.378C256.23 153.172 256.001 154.035 255.945 154.918C255.888 155.801 256.007 156.687 256.293 157.524C256.579 158.361 257.027 159.134 257.611 159.798V159.815Z" fill="#99C24D"/>
<path d="M253.614 186.84C255.565 190.008 266.964 195.665 266.964 195.665C266.964 195.665 267.042 182.941 265.091 179.773C264.63 179.013 264.023 178.351 263.306 177.826C262.588 177.301 261.774 176.923 260.91 176.714C260.045 176.505 259.148 176.469 258.27 176.609C257.392 176.748 256.55 177.06 255.793 177.526C255.036 177.992 254.379 178.604 253.859 179.325C253.339 180.047 252.967 180.864 252.765 181.729C252.562 182.595 252.533 183.493 252.679 184.37C252.825 185.247 253.143 186.086 253.614 186.84Z" fill="#99C24D"/>
<path d="M292.557 145.849C289.111 147.259 276.573 145.115 276.573 145.115C276.573 145.115 284.012 134.789 287.448 133.379C289.095 132.733 290.93 132.761 292.557 133.457C294.184 134.153 295.472 135.461 296.143 137.098C296.813 138.735 296.813 140.571 296.142 142.208C295.472 143.845 294.184 145.153 292.557 145.849Z" fill="#99C24D"/>
<path d="M287.485 177.394C283.765 177.712 272.452 171.913 272.452 171.913C272.452 171.913 282.633 164.284 286.339 163.967C287.228 163.876 288.127 163.963 288.983 164.223C289.839 164.483 290.634 164.911 291.323 165.481C292.012 166.052 292.58 166.754 292.995 167.546C293.41 168.339 293.662 169.206 293.738 170.097C293.814 170.989 293.712 171.886 293.438 172.737C293.164 173.589 292.723 174.377 292.141 175.056C291.559 175.735 290.847 176.292 290.048 176.693C289.248 177.094 288.377 177.332 287.485 177.394Z" fill="#99C24D"/>
<path d="M278.328 207.382C274.727 208.318 262.588 204.518 262.588 204.518C262.588 204.518 271.332 195.28 274.934 194.34C276.644 193.946 278.441 194.235 279.942 195.145C281.443 196.056 282.529 197.516 282.97 199.216C283.411 200.915 283.171 202.719 282.301 204.244C281.432 205.769 280.002 206.895 278.315 207.382H278.328Z" fill="#99C24D"/>
<path opacity="0.25" d="M288.307 111.973C286.92 115.429 289.148 127.953 289.148 127.953C289.148 127.953 299.424 120.45 300.811 116.997C301.14 116.176 301.305 115.298 301.296 114.412C301.286 113.527 301.102 112.653 300.755 111.838C300.407 111.024 299.903 110.287 299.27 109.667C298.637 109.048 297.889 108.56 297.067 108.23C296.246 107.9 295.368 107.735 294.482 107.745C293.597 107.754 292.723 107.938 291.908 108.285C291.094 108.633 290.357 109.138 289.737 109.77C289.118 110.403 288.63 111.151 288.3 111.973H288.307Z" fill="black"/>
<path opacity="0.25" d="M270.288 126.948C271.001 130.599 279.681 139.901 279.681 139.901C279.681 139.901 284.229 128.02 283.515 124.368C283.155 122.631 282.125 121.107 280.648 120.125C279.171 119.143 277.367 118.783 275.627 119.123C273.886 119.462 272.35 120.474 271.35 121.939C270.351 123.404 269.969 125.203 270.288 126.948Z" fill="black"/>
<path opacity="0.25" d="M257.611 159.815C260.069 162.608 272.256 166.239 272.256 166.239C272.256 166.239 270.183 153.688 267.725 150.895C267.14 150.231 266.43 149.688 265.636 149.299C264.842 148.909 263.979 148.679 263.096 148.623C262.213 148.567 261.328 148.685 260.49 148.971C259.653 149.257 258.88 149.705 258.216 150.29C257.552 150.874 257.01 151.584 256.62 152.378C256.23 153.172 256.001 154.035 255.945 154.918C255.888 155.801 256.007 156.687 256.293 157.524C256.579 158.361 257.027 159.134 257.611 159.798V159.815Z" fill="black"/>
<path opacity="0.25" d="M253.614 186.84C255.565 190.008 266.964 195.665 266.964 195.665C266.964 195.665 267.042 182.941 265.091 179.773C264.63 179.013 264.023 178.351 263.306 177.826C262.588 177.301 261.774 176.923 260.91 176.714C260.045 176.505 259.148 176.469 258.27 176.609C257.392 176.748 256.55 177.06 255.793 177.526C255.036 177.992 254.379 178.604 253.859 179.325C253.339 180.047 252.967 180.864 252.765 181.729C252.562 182.595 252.533 183.493 252.679 184.37C252.825 185.247 253.143 186.086 253.614 186.84Z" fill="black"/>
<path opacity="0.25" d="M292.557 145.849C289.111 147.259 276.573 145.115 276.573 145.115C276.573 145.115 284.012 134.789 287.448 133.379C289.095 132.733 290.93 132.761 292.557 133.457C294.184 134.153 295.472 135.461 296.143 137.098C296.813 138.735 296.813 140.571 296.142 142.208C295.472 143.845 294.184 145.153 292.557 145.849Z" fill="black"/>
<path opacity="0.25" d="M287.485 177.394C283.765 177.712 272.452 171.913 272.452 171.913C272.452 171.913 282.633 164.284 286.339 163.967C287.228 163.876 288.127 163.963 288.983 164.223C289.839 164.483 290.634 164.911 291.323 165.481C292.012 166.052 292.58 166.754 292.995 167.546C293.41 168.339 293.662 169.206 293.738 170.097C293.814 170.989 293.712 171.886 293.438 172.737C293.164 173.589 292.723 174.377 292.141 175.056C291.559 175.735 290.847 176.292 290.048 176.693C289.248 177.094 288.377 177.332 287.485 177.394Z" fill="black"/>
<path opacity="0.25" d="M278.328 207.382C274.727 208.318 262.588 204.518 262.588 204.518C262.588 204.518 271.332 195.28 274.934 194.34C276.644 193.946 278.441 194.235 279.942 195.145C281.443 196.056 282.529 197.516 282.97 199.216C283.411 200.915 283.171 202.719 282.301 204.244C281.432 205.769 280.002 206.895 278.315 207.382H278.328Z" fill="black"/>
<path d="M254.416 216.921C254.416 216.921 282.413 202.162 291.028 178.969C294.646 169.231 301.172 160.832 309.893 155.209C314.041 152.549 318.425 150.276 322.988 148.416" stroke="#2E4057" stroke-width="2" stroke-miterlimit="10"/>
<path d="M328.5 133.826C325.835 136.419 322.796 148.774 322.796 148.774C322.796 148.774 335.229 146.069 337.896 143.486C339.149 142.234 339.859 140.539 339.872 138.767C339.884 136.996 339.199 135.29 337.963 134.021C336.728 132.751 335.043 132.018 333.272 131.982C331.501 131.945 329.786 132.608 328.5 133.826Z" fill="#99C24D"/>
<path d="M305.96 140.221C305.132 143.849 309.298 155.87 309.298 155.87C309.298 155.87 318.268 146.852 319.103 143.224C319.321 142.354 319.362 141.45 319.226 140.564C319.089 139.678 318.777 138.828 318.308 138.065C317.839 137.301 317.223 136.638 316.494 136.115C315.766 135.593 314.941 135.221 314.067 135.021C313.193 134.821 312.288 134.798 311.405 134.952C310.522 135.106 309.679 135.435 308.925 135.92C308.17 136.404 307.52 137.034 307.012 137.772C306.504 138.511 306.149 139.344 305.967 140.221H305.96Z" fill="#99C24D"/>
<path d="M281.06 165.129C282.176 168.679 291.84 176.963 291.84 176.963C291.84 176.963 295.032 164.649 293.916 161.098C293.665 160.236 293.245 159.433 292.679 158.736C292.113 158.038 291.414 157.461 290.622 157.038C289.83 156.615 288.962 156.354 288.068 156.271C287.174 156.188 286.272 156.285 285.416 156.555C284.56 156.825 283.767 157.264 283.082 157.845C282.398 158.427 281.837 159.139 281.432 159.94C281.027 160.741 280.786 161.616 280.723 162.511C280.66 163.407 280.777 164.306 281.067 165.156L281.06 165.129Z" fill="#99C24D"/>
<path d="M266.446 188.222C266.947 191.907 275.072 201.696 275.072 201.696C275.072 201.696 280.3 190.098 279.806 186.409C279.687 185.532 279.396 184.687 278.951 183.923C278.505 183.158 277.913 182.489 277.209 181.953C276.505 181.417 275.702 181.025 274.846 180.799C273.99 180.573 273.099 180.518 272.222 180.637C271.345 180.756 270.5 181.047 269.735 181.493C268.97 181.938 268.301 182.53 267.765 183.234C267.229 183.938 266.837 184.741 266.611 185.597C266.386 186.453 266.331 187.345 266.45 188.222H266.446Z" fill="#99C24D"/>
<path d="M318.643 166.513C314.924 166.408 304.327 159.365 304.327 159.365C304.327 159.365 315.306 152.941 319.026 153.042C320.795 153.117 322.463 153.886 323.67 155.182C324.877 156.477 325.526 158.196 325.476 159.966C325.425 161.736 324.68 163.415 323.402 164.641C322.123 165.866 320.414 166.538 318.643 166.513Z" fill="#99C24D"/>
<path d="M301.223 193.3C297.706 192.086 289.703 182.199 289.703 182.199C289.703 182.199 302.099 179.349 305.619 180.563C307.27 181.174 308.617 182.408 309.37 184C310.123 185.592 310.223 187.416 309.649 189.081C309.074 190.746 307.871 192.119 306.296 192.908C304.721 193.697 302.9 193.837 301.223 193.3Z" fill="#99C24D"/>
<path d="M280.722 217.006C277.05 216.404 267.488 208.012 267.488 208.012C267.488 208.012 279.228 203.106 282.9 203.707C284.638 204.024 286.182 205.01 287.201 206.454C288.219 207.897 288.629 209.683 288.344 211.426C288.058 213.17 287.1 214.731 285.674 215.775C284.249 216.819 282.471 217.261 280.722 217.006Z" fill="#99C24D"/>
<path d="M256.871 218.982H253.872L231.934 105.733L229.121 218.982H225.935L222.372 105.922L200.995 218.982H197.621L212.15 102.582L212.623 98.7979L241.124 95.6094L242.01 102.582L256.871 218.982Z" fill="#333333"/>
<path d="M196.329 72.9082H178.188V84.1578H196.329V72.9082Z" fill="#333333"/>
<path d="M283.444 67.9881L294.413 63.5586H296.817C297.168 63.5586 297.504 63.6979 297.752 63.9458C298 64.1938 298.139 64.53 298.139 64.8807V95.7721C298.139 96.1228 298 96.459 297.752 96.707C297.504 96.9549 297.168 97.0942 296.817 97.0942H294.413L283.444 92.5261V67.9881Z" fill="#333333"/>
<path d="M283.444 69.3945H261.016V91.1193H283.444V69.3945Z" fill="#333333"/>
<path d="M236.522 28.5879H222.084V31.2118H236.522V28.5879Z" fill="#333333"/>
<path d="M246.25 31.9863H205.61V61.6571H246.25V31.9863Z" fill="#333333"/>
<path opacity="0.1" d="M246.25 58.1445H205.61V61.6611H246.25V58.1445Z" fill="black"/>
<path opacity="0.1" d="M261.578 69.3945H260.668V91.1193H261.578V69.3945Z" fill="black"/>
<path opacity="0.1" d="M196.329 72.9082H190.141V84.1578H196.329V72.9082Z" fill="black"/>
<path opacity="0.1" d="M242.01 102.582H212.15L212.623 98.7979L241.124 95.6094L242.01 102.582Z" fill="black"/>
<path d="M257.395 58.707H194.32C192.322 58.707 190.702 60.3269 190.702 62.325V98.4C190.702 100.398 192.322 102.018 194.32 102.018H257.395C259.393 102.018 261.013 100.398 261.013 98.4V62.325C261.013 60.3269 259.393 58.707 257.395 58.707Z" fill="#333333"/>
<path d="M283.231 67.9883H283.444V92.5263H283.231C282.766 92.5263 282.319 92.3414 281.99 92.0123C281.661 91.6832 281.476 91.2368 281.476 90.7714V69.7432C281.476 69.2777 281.661 68.8314 281.99 68.5023C282.319 68.1732 282.766 67.9883 283.231 67.9883Z" fill="#333333"/>
<path d="M294.413 63.5684H296.689C297.073 63.5684 297.442 63.7212 297.714 63.9932C297.986 64.2653 298.139 64.6342 298.139 65.0189V95.6602C298.139 96.0449 297.986 96.4138 297.714 96.6859C297.442 96.9579 297.073 97.1107 296.689 97.1107H294.413V63.5684Z" fill="#333333"/>
<path opacity="0.1" d="M181.424 72.9082H178.188V84.1578H181.424V72.9082Z" fill="black"/>
<path d="M178.425 69.3945H176.968C175.623 69.3945 174.533 70.4845 174.533 71.8291V86.0846C174.533 87.4291 175.623 88.5191 176.968 88.5191H178.425C179.769 88.5191 180.859 87.4291 180.859 86.0846V71.8291C180.859 70.4845 179.769 69.3945 178.425 69.3945Z" fill="#333333"/>
<path d="M205.611 52.2394C216.795 52.2394 225.861 43.1729 225.861 31.9888C225.861 20.8048 216.795 11.7383 205.611 11.7383C194.426 11.7383 185.36 20.8048 185.36 31.9888C185.36 43.1729 194.426 52.2394 205.611 52.2394Z" fill="#333333"/>
<path d="M205.61 47.1763C213.999 47.1763 220.799 40.3761 220.799 31.9876C220.799 23.5991 213.999 16.7988 205.61 16.7988C197.222 16.7988 190.422 23.5991 190.422 31.9876C190.422 40.3761 197.222 47.1763 205.61 47.1763Z" fill="#333333"/>
<path d="M243.156 47.1767C251.311 47.1767 257.922 40.5657 257.922 32.4106C257.922 24.2555 251.311 17.6445 243.156 17.6445C235.001 17.6445 228.39 24.2555 228.39 32.4106C228.39 40.5657 235.001 47.1767 243.156 47.1767Z" fill="#333333"/>
<path d="M243.156 43.4834C249.272 43.4834 254.23 38.5255 254.23 32.4097C254.23 26.2938 249.272 21.3359 243.156 21.3359C237.04 21.3359 232.082 26.2938 232.082 32.4097C232.082 38.5255 237.04 43.4834 243.156 43.4834Z" fill="#333333"/>
<path d="M242.01 67.0955C243.084 67.0955 243.954 66.225 243.954 65.1513C243.954 64.0775 243.084 63.207 242.01 63.207C240.936 63.207 240.066 64.0775 240.066 65.1513C240.066 66.225 240.936 67.0955 242.01 67.0955Z" fill="#333333"/>
<path opacity="0.5" d="M248.194 67.0955C249.268 67.0955 250.138 66.225 250.138 65.1513C250.138 64.0775 249.268 63.207 248.194 63.207C247.12 63.207 246.25 64.0775 246.25 65.1513C246.25 66.225 247.12 67.0955 248.194 67.0955Z" fill="#333333"/>
<path d="M223.724 71.8605L223.585 71.5866C224.443 71.8715 225.266 72.2503 226.04 72.716C225.702 69.7776 214.432 61.5273 212.404 61.5273C210.375 61.5273 208.119 58.0243 208.119 58.0243C208.119 58.0243 202.26 57.1214 201.357 56.1645C200.454 55.2076 194.368 55.7656 192.904 56.1037C191.44 56.4418 189.184 55.2009 189.184 55.2009C189.184 55.2009 187.943 53.1721 186.368 53.1721C184.792 53.1721 183.105 50.9134 183.105 50.9134C183.105 50.9134 181.634 49.5609 180.281 49.331C178.929 49.101 177.238 47.6403 176.447 46.5076C175.656 45.3748 171.713 44.8169 169.461 45.1551C167.209 45.4932 161.12 44.6952 161.12 44.6952C163.598 43.5659 164.196 40.8541 164.196 40.8541C161.978 40.7391 156.149 35.843 156.149 35.843C156.149 35.843 156.389 37.4254 156.666 39.6334L156.291 39.1499L156.24 39.1905C156.121 37.6153 156.104 36.034 156.19 34.4567C156.19 34.3349 156.21 34.2132 156.217 34.0881C157.66 32.8234 158.731 31.1882 159.312 29.3593C159.894 27.5303 159.965 25.5772 159.517 23.7109C159.456 23.454 159.385 23.2037 159.304 22.9569C159.735 23.1364 160.191 23.2503 160.656 23.295H160.896C161.176 23.2969 161.453 23.2394 161.709 23.1263C161.965 23.0132 162.194 22.8472 162.381 22.6391C162.444 22.5589 162.5 22.4729 162.546 22.3821C162.558 22.3648 162.568 22.3467 162.577 22.328C162.617 22.245 162.651 22.1591 162.678 22.071C162.688 22.0399 162.696 22.0083 162.702 21.9763C162.719 21.9072 162.733 21.8372 162.743 21.7667C162.743 21.7092 162.743 21.6483 162.743 21.5875C162.743 21.5266 162.743 21.4996 162.743 21.4556C162.729 20.9358 162.614 20.4236 162.404 19.9476C162.049 19.0752 161.539 18.213 161.576 17.2696C161.576 17.1918 161.593 17.1174 161.603 17.043C161.698 16.3025 162.087 15.6161 162.32 14.9027V14.8722C162.354 14.7674 162.381 14.6626 162.404 14.5578C162.415 14.5268 162.424 14.4952 162.431 14.4631C162.457 14.3393 162.474 14.2139 162.482 14.0878C162.482 14.0878 162.482 14.0709 162.482 14.0607C162.57 12.6474 161.431 11.4132 160.139 10.8417C158.983 10.3278 157.66 10.1892 156.602 9.48923C155.395 8.69463 154.732 7.31845 153.84 6.17895C152.541 4.52212 150.509 3.28457 148.43 3.52126C147.148 3.66665 145.985 4.33953 144.71 4.59989C142.773 5.00226 140.724 4.4173 138.796 4.86701C138.328 4.94476 137.902 5.18405 137.593 5.54327C137.463 5.72456 137.379 5.93458 137.349 6.15528C137.322 6.35952 137.322 6.56645 137.349 6.77068V6.78758C137.371 6.98247 137.406 7.17565 137.454 7.36578L137.484 7.48413C137.484 7.52471 137.501 7.5619 137.511 7.60247C137.521 7.64305 137.555 7.76139 137.576 7.83916C137.613 7.97103 137.643 8.10291 137.677 8.23816V8.2855C137.707 8.42413 137.738 8.56276 137.762 8.70478C137.816 8.99752 137.852 9.2934 137.87 9.59067C137.949 10.4273 137.769 11.2681 137.352 11.9981C136.507 13.3507 134.712 13.9492 133.931 15.3592C133.746 15.6994 133.631 16.0729 133.592 16.4581C133.578 16.5861 133.573 16.7148 133.576 16.8435V16.8943C133.576 17.0058 133.576 17.1174 133.606 17.2324C133.604 17.2594 133.604 17.2865 133.606 17.3135C133.623 17.4138 133.646 17.5132 133.674 17.6111C133.674 17.6449 133.691 17.6753 133.701 17.7058C133.738 17.8214 133.783 17.9344 133.836 18.0439C134.198 18.7979 134.881 19.4201 135.023 20.2384C135.023 20.262 135.023 20.2857 135.04 20.3127C135.117 20.9281 134.864 21.53 134.732 22.1353C134.715 22.2089 134.701 22.2834 134.691 22.3584C134.691 22.3821 134.691 22.4058 134.691 22.4294C134.691 22.4531 134.691 22.5309 134.691 22.585C134.691 22.6391 134.691 22.6424 134.691 22.6729C134.691 22.7033 134.691 22.7642 134.691 22.8081C134.69 22.8397 134.69 22.8713 134.691 22.9028C134.691 22.9468 134.691 22.9907 134.691 23.0313C134.691 23.0719 134.691 23.0922 134.691 23.1226C134.691 23.153 134.712 23.2071 134.725 23.2477L134.749 23.3322C134.765 23.3726 134.783 23.4121 134.803 23.4506L134.84 23.525C134.865 23.566 134.892 23.6055 134.921 23.6433C134.934 23.6621 134.947 23.6802 134.962 23.6974C135.008 23.7517 135.06 23.8005 135.117 23.8428C135.584 24.1809 136.311 24.093 136.693 24.5191C136.736 24.5707 136.772 24.6275 136.801 24.6881L136.822 24.7287C136.849 24.7883 136.871 24.8506 136.886 24.9147C136.94 25.1688 136.94 25.4315 136.886 25.6856C136.751 26.3619 136.463 26.9773 136.311 27.64C136.281 27.7752 136.26 27.9139 136.243 28.0525C136.243 28.1168 136.243 28.1776 136.226 28.2385V28.2791C136.226 28.3365 136.226 28.3974 136.226 28.4549C136.226 28.5124 136.226 28.4853 136.226 28.5022C136.226 28.5868 136.226 28.6747 136.247 28.7592C136.267 28.8437 136.247 28.8403 136.267 28.8775L136.287 28.9756C136.287 29.0196 136.311 29.0635 136.325 29.1075L136.355 29.192C136.372 29.2393 136.396 29.2867 136.416 29.334C136.426 29.3561 136.437 29.3776 136.45 29.3983C136.484 29.4674 136.524 29.5331 136.571 29.5944C136.98 30.1489 137.653 30.3349 138.363 30.3383C138.766 30.336 139.167 30.2906 139.56 30.203C139.648 30.4093 139.74 30.6155 139.838 30.815C140.328 31.802 140.97 32.7057 141.741 33.493C141.741 33.5978 141.721 33.6993 141.708 33.8075C141.63 34.5784 141.535 35.4068 141.427 36.242C140.551 35.8396 139.875 35.6841 139.608 35.9749C138.475 37.2192 139.608 41.5134 139.608 41.5134C139.608 41.5134 134.079 41.5134 132.727 42.7544C131.374 43.9953 128.896 42.7544 128.896 42.7544C128.896 42.7544 123.824 43.3224 124.162 44.3402C124.5 45.3579 121.457 44.3402 121.457 44.3402C121.457 44.3402 119.313 44.5667 119.428 46.0308C119.543 47.4949 116.159 48.1746 116.608 49.1923C117.058 50.2101 114.579 50.883 114.579 50.883C114.579 50.883 112.101 50.7714 113.004 52.2355C113.004 52.2355 111.651 55.4004 110.525 55.6168C109.399 55.8332 107.932 58.4401 107.932 58.4401C107.932 58.4401 103.59 59.2314 103.786 60.5873C103.983 61.9432 97.1117 71.6441 97.1117 71.6441C97.1117 71.6441 94.8564 76.2934 96.4355 79.6848C98.0145 83.0762 99.1405 85.3349 99.4786 86.5759C99.8168 87.8168 103.915 93.281 103.881 94.2987C103.881 94.6166 104.895 96.3275 106.278 98.4983L105.873 98.9176L104.983 99.8339C104.983 99.8339 102.163 106.84 105.545 107.178C108.402 107.462 110.454 107.668 111.496 107.384C111.665 107.345 111.825 107.275 111.969 107.178L112.01 107.148C113.24 108.963 114.113 110.231 114.113 110.231C114.113 110.231 114.235 110.052 114.451 109.744L114.789 110.228C114.789 110.228 115.06 109.842 115.519 109.214C115.371 112.287 115.35 115.317 115.35 115.317C115.35 115.317 116.818 115.09 116.142 121.87C115.465 128.649 120.199 134.184 120.199 134.184V144.244C120.199 144.244 120.199 144.497 120.247 144.92C120.372 146.364 120.784 149.769 122.001 152.021C123.58 154.956 122.001 162.641 122.001 162.641C122.001 162.641 121.897 168.91 122.275 176.728C122.275 176.941 122.299 177.161 122.309 177.377C115.472 183.091 108.138 190.665 108.138 190.665C108.497 190.766 108.839 190.92 109.152 191.122L108.743 191.646L106.88 193.942L105.44 195.72L107.722 202.75L110.214 201.776C110.214 201.776 111.567 204.12 111.283 205.709C111.24 205.996 111.123 206.267 110.945 206.497C110.859 206.612 110.799 206.745 110.769 206.885C110.116 209.432 112.838 220.411 117.156 220.887C117.156 220.887 118.62 221.371 119.09 220.052C119.317 219.417 119.313 218.362 118.806 216.647C118.806 216.647 116.524 213.895 118.001 210.93C118.867 209.195 120.297 206.872 121.332 205.232L121.758 204.556C122.688 205.729 123.259 206.483 123.259 206.483L126.58 202.912C126.651 203.065 126.722 203.213 126.796 203.355C127.045 203.853 127.332 204.33 127.655 204.782L129.907 213.712L130.816 213.509C130.796 213.726 130.783 213.956 130.769 214.186C130.695 215.788 130.769 217.868 131.51 219.352C132.064 220.488 133.001 221.28 134.529 221.242C139.77 221.114 141.292 218.277 141.292 218.277V211.176L143.094 210.774C143.094 210.774 142.962 195.173 142.499 186.473C142.499 186.28 142.478 186.094 142.468 185.911C142.468 185.884 142.468 185.857 142.468 185.834L154.042 173.387L154.932 173.032C162.371 170.094 162.486 162.523 162.486 162.523C162.486 162.523 162.486 158.344 163.385 154.841C164.284 151.338 163.5 133.143 161.809 128.626C160.119 124.108 159.554 119.016 159.554 119.016C159.554 119.016 161.245 116.649 159.554 114.678C159.076 114.088 158.679 113.437 158.371 112.744L160.572 112.382L161.84 112.172L162.516 112.057C162.178 115.046 162.12 117.342 162.922 117.89C165.404 119.581 173.742 113.934 173.742 113.934C170.699 113.934 169.008 91.2217 169.627 90.6571C170.246 90.0924 171.169 78.711 170.361 76.6822C169.552 74.6534 173.197 65.595 173.197 65.595L173.759 64.7632C173.759 64.7632 187.061 70.5688 188.525 71.6813C189.989 72.7937 194.611 68.9762 195.399 70.4539C196.187 71.9315 201.147 74.1327 201.147 74.1327C201.147 74.1327 208.474 73.3922 209.262 75.2012C210.05 77.0102 214.787 81.2469 214.787 81.2469C214.79 80.2536 214.85 79.2612 214.967 78.2748C215.065 78.5081 215.159 78.7448 215.261 78.9849C217.506 84.2969 221.242 91.0222 224.705 87.4043C228.627 83.2926 225.641 75.6915 223.724 71.8605ZM123.472 95.8676V95.9319L123.445 95.9048L123.472 95.8676ZM120.848 69.8047L119.415 84.9224L116.598 87.8405L116.26 88.1989L113.349 85.0306C113.349 85.0306 111.881 84.3543 113.349 83.11C114.816 81.8657 110.87 79.0525 110.87 79.0525C110.87 79.0525 110.755 77.0237 112.223 76.4557C113.69 75.8876 115.604 72.1614 115.604 72.1614L120.902 69.4564L120.848 69.8047ZM139.702 147.182C139.805 147.087 139.919 147.004 140.041 146.935C140.673 146.577 141.079 146.969 141.288 147.659C141.564 148.815 141.481 150.028 141.048 151.135C140.26 152.944 142.178 160.176 142.178 160.176C142.178 160.176 139.696 161.302 139.246 163.453C139.179 163.717 139.065 163.967 138.908 164.19C138.877 164.001 138.85 163.818 138.823 163.642C138.604 162.29 138.485 161.417 138.485 161.417C138.081 159.677 138.004 157.877 138.259 156.109C138.617 153.935 139.341 149.519 139.611 147.845C139.679 147.439 139.716 147.196 139.719 147.169L139.702 147.182Z" fill="url(#paint0_linear)"/>
<path d="M155.418 37.0943L156.149 36.6074L158.208 40.9524L157.417 41.8822H155.023C155.023 41.8822 155.107 39.5153 155.165 39.4308C155.222 39.3463 155.418 37.0943 155.418 37.0943Z" fill="#2E4057"/>
<path d="M141.282 209.32V218.619C141.282 218.619 139.76 221.449 134.519 221.577C133.883 221.615 133.25 221.454 132.709 221.117C132.168 220.779 131.746 220.282 131.499 219.694C130.769 218.213 130.685 216.137 130.759 214.538C130.796 213.738 130.881 212.94 131.013 212.15L141.282 209.32Z" fill="#333333"/>
<path opacity="0.1" d="M141.281 209.32V212.198L130.759 214.538C130.796 213.738 130.881 212.94 131.012 212.15L141.281 209.32Z" fill="black"/>
<path d="M143.084 211.122L129.897 214.053L127.645 205.147C127.322 204.695 127.035 204.22 126.786 203.724C126.64 203.44 126.498 203.139 126.363 202.824C123.908 197.208 122.816 187.078 122.35 178.459C122.326 178.022 122.302 177.59 122.282 177.164C121.903 169.366 122.008 163.111 122.008 163.111C122.008 163.111 123.587 155.446 122.008 152.517C120.791 150.259 120.378 146.864 120.253 145.417C120.219 144.987 120.206 144.74 120.206 144.74L120.449 144.101L121.443 141.471H132.378L138.735 146.85L139.702 147.669L139.594 148.345C139.32 150.015 138.597 154.431 138.242 156.588C137.987 158.352 138.064 160.148 138.468 161.884C138.468 161.884 138.6 162.742 138.806 164.105C138.857 164.443 138.914 164.802 138.979 165.19C139.787 170.188 141.302 179.314 141.947 181.495C142.127 182.094 142.286 183.595 142.404 185.627C142.431 186.033 142.455 186.455 142.478 186.898C142.952 195.561 143.084 211.122 143.084 211.122Z" fill="#2E4057"/>
<path opacity="0.1" d="M141.281 218.523V218.618C141.281 218.618 139.76 221.448 134.519 221.577C133.883 221.614 133.25 221.453 132.709 221.116C132.168 220.778 131.746 220.281 131.499 219.693C133.849 220.272 137.664 220.644 141.281 218.523Z" fill="black"/>
<path d="M224.688 88.0414C221.212 91.6492 217.492 84.9407 215.244 79.6423C213.982 76.66 213.191 74.1206 213.191 74.1206L222.442 70.2051C222.442 70.2051 223.01 71.1079 223.724 72.5382C225.641 76.359 228.627 83.9399 224.688 88.0414Z" fill="#A1616A"/>
<path d="M156.2 35.2242C156.052 38.5715 156.302 41.9246 156.947 45.2126C156.947 45.2126 138.127 47.2413 139.817 44.3131C140.808 42.5954 141.451 38.0611 141.809 34.5953C142.069 32.1405 142.184 30.2233 142.184 30.2233C142.184 30.2233 160.217 23.011 157.512 29.0973C156.704 30.9131 156.328 33.0636 156.2 35.2242Z" fill="#A1616A"/>
<path d="M157.789 83.6467L155.26 113.852L166.868 111.938L164.839 87.0279L165.515 80.377L157.789 83.6467Z" fill="#2E4057"/>
<path opacity="0.1" d="M166.868 111.985L161.826 112.817L155.256 113.899L155.719 108.387L157.789 83.6935L160.423 82.5777L162.289 81.7899L165.515 80.4238L164.839 87.0748L166.868 111.985Z" fill="black"/>
<path d="M117.991 211.256C116.514 214.214 118.796 216.96 118.796 216.96C119.303 218.674 119.307 219.723 119.08 220.341C118.61 221.657 117.146 221.173 117.146 221.173C112.541 220.666 109.751 208.243 110.934 206.82C112.118 205.396 110.214 202.126 110.214 202.126L107.722 203.097L105.44 196.084L106.88 194.309L108.743 192.016L110.005 190.461L122.6 203.604C122.6 203.604 122.062 204.412 121.322 205.572C120.287 207.198 118.857 209.531 117.991 211.256Z" fill="#333333"/>
<path opacity="0.1" d="M142.489 186.88L126.786 203.722C124.033 198.346 122.85 187.559 122.35 178.454C125.274 176.019 128.098 173.923 130.235 172.912C130.235 172.912 137.464 167.681 138.989 165.172C139.797 170.169 141.312 179.296 141.958 181.476C142.171 182.193 142.346 184.205 142.489 186.88Z" fill="black"/>
<path opacity="0.1" d="M138.735 146.846L120.449 144.097L121.443 141.467H132.378L138.735 146.846Z" fill="black"/>
<path opacity="0.1" d="M142.428 185.61L126.377 202.824C123.908 197.208 122.816 187.078 122.349 178.459C122.326 178.023 122.302 177.59 122.282 177.164C125.234 174.702 128.091 172.586 130.235 171.564C130.235 171.564 136.98 166.685 138.816 164.092C138.867 164.43 138.925 164.788 138.989 165.177C139.797 170.175 141.312 179.301 141.958 181.482C142.137 182.077 142.286 183.578 142.428 185.61Z" fill="black"/>
<path opacity="0.1" d="M122.6 203.612C122.6 203.612 122.062 204.42 121.321 205.58C118.633 202.182 112.26 194.357 108.743 192.024L110.004 190.469L122.6 203.612Z" fill="black"/>
<path d="M163.371 155.329C162.472 158.826 162.472 162.995 162.472 162.995C162.472 162.995 162.357 170.545 154.918 173.477L154.029 173.815L123.259 206.826C123.259 206.826 111.874 191.949 108.155 191.046C108.155 191.046 123.144 175.604 130.245 172.222C130.245 172.222 138.813 166.024 139.263 163.884C139.713 161.744 142.194 160.614 142.194 160.614C142.194 160.614 140.277 153.402 141.065 151.596C141.498 150.493 141.581 149.283 141.305 148.131C141.096 147.454 140.69 147.052 140.057 147.407C139.936 147.476 139.822 147.559 139.719 147.654L120.223 144.722V134.703C120.223 134.703 115.489 129.182 116.165 122.419C116.842 115.657 115.374 115.883 115.374 115.883C115.374 115.883 115.445 104.461 116.409 103.508C117.372 102.554 126.63 98.1855 126.63 98.1855L155.655 103.342L156.852 108.894C156.852 108.894 157.867 113.31 159.557 115.271C161.248 117.232 159.557 119.596 159.557 119.596C159.557 119.596 160.122 124.668 161.813 129.182C163.503 133.696 164.274 151.836 163.371 155.329Z" fill="#2E4057"/>
<path opacity="0.1" d="M157.511 29.0973C156.703 30.9131 156.328 33.0771 156.199 35.2242C154.175 36.9781 151.555 37.8902 148.879 37.7733C146.203 37.6563 143.673 36.5192 141.809 34.5953C142.069 32.1405 142.184 30.2233 142.184 30.2233C142.184 30.2233 160.216 23.011 157.511 29.0973Z" fill="black"/>
<path d="M159.818 26.9766C159.816 29.6493 158.794 32.2205 156.959 34.1643C155.125 36.1081 152.617 37.2779 149.949 37.4343C147.281 37.5908 144.654 36.7221 142.605 35.006C140.556 33.2899 139.24 30.8559 138.926 28.2017C138.612 25.5475 139.324 22.8736 140.916 20.7268C142.508 18.58 144.86 17.1223 147.491 16.6519C150.122 16.1815 152.833 16.7339 155.07 18.1961C157.308 19.6583 158.902 21.9199 159.527 24.5185C159.721 25.3235 159.818 26.1486 159.818 26.9766Z" fill="#A1616A"/>
<path opacity="0.1" d="M151.314 45.2115C151.314 45.2115 143.78 41.7186 143.31 41.2655C142.84 40.8124 127.212 80.9416 127.212 80.9416L122.816 100.891C122.816 100.891 146.258 110.92 151.33 109.568C156.402 108.215 156.852 109.568 156.852 109.568C156.852 109.568 162.039 80.4885 163.73 77.8984C165.42 75.3083 162.151 48.9309 162.151 48.9309L156.291 41.2621L151.314 45.2115Z" fill="black"/>
<path opacity="0.1" d="M151.314 43.858C151.314 43.858 143.78 40.3651 143.31 39.912C142.84 39.4589 127.212 79.5881 127.212 79.5881L122.816 99.5377C122.816 99.5377 146.258 109.567 151.33 108.214C156.402 106.862 156.852 108.214 156.852 108.214C156.852 108.214 162.039 79.135 163.73 76.5449C165.42 73.9548 162.151 47.5774 162.151 47.5774L156.291 39.9086L151.314 43.858Z" fill="black"/>
<path d="M163.71 77.2231C163.371 77.7608 162.861 79.4311 162.289 81.7439C161.89 83.3534 161.458 85.2706 161.015 87.3332C159.02 96.6419 156.835 108.896 156.835 108.896C156.835 108.896 156.697 108.483 155.72 108.341C154.928 108.226 153.583 108.29 151.324 108.896C146.252 110.248 122.806 100.216 122.806 100.216L123.482 97.1727L127.202 80.2663C127.202 80.2663 142.871 40.1406 143.32 40.5937C143.594 40.8675 146.523 42.2843 148.754 43.3359C150.178 44.0121 151.324 44.5362 151.324 44.5362L156.058 40.7965L156.318 40.5903L162.151 48.2556C162.151 48.2556 165.4 74.6297 163.71 77.2231Z" fill="#94C6EE"/>
<path opacity="0.1" d="M145.789 48.4806C146.465 51.0808 144.889 55.3548 144.889 55.3548C144.889 55.3548 139.479 68.6568 137.9 74.804C136.321 80.9511 127.29 93.3402 127.29 93.3402C127.29 93.3402 125.964 94.669 124.108 96.5186C123.902 96.7249 123.685 96.9379 123.469 97.161L127.188 80.2546C127.188 80.2546 142.857 40.1288 143.307 40.5819C143.581 40.8558 146.509 42.2726 148.741 43.3242C147.344 44.5955 145.339 46.7595 145.789 48.4806Z" fill="black"/>
<path d="M145.112 48.4823C145.788 51.0825 144.213 55.3565 144.213 55.3565C144.213 55.3565 138.803 68.6585 137.224 74.8057C135.645 80.9529 126.613 93.3419 126.613 93.3419C126.613 93.3419 125.288 94.6707 123.431 96.5203C123.212 96.7401 122.982 96.9666 122.755 97.1966C119.13 100.804 114.035 105.863 112.442 107.34C112.209 107.56 112.05 107.702 111.982 107.75C111.838 107.847 111.678 107.916 111.509 107.956C110.467 108.24 108.415 108.034 105.558 107.75C102.177 107.411 104.997 100.426 104.997 100.426L105.886 99.5094L106.697 98.6708L115.908 89.1931L116.584 88.4796L119.401 85.5751L120.835 70.4945L120.868 70.1327C120.868 70.1327 120.449 69.1758 119.803 67.7151C118.082 63.7624 114.701 56.1342 113.463 53.6692C113.321 53.3818 113.21 53.1688 113.125 53.0369C113.125 53.02 113.108 53.0031 113.098 52.9896C112.195 51.5255 114.674 51.6371 114.674 51.6371C114.674 51.6371 117.156 50.9608 116.703 49.9464C116.249 48.932 119.634 48.2558 119.523 46.7917C119.411 45.3276 121.551 45.101 121.551 45.101C121.551 45.101 124.595 46.1154 124.256 45.101C123.918 44.0867 128.99 43.522 128.99 43.522C128.99 43.522 131.469 44.7629 132.821 43.522C134.174 42.281 139.722 42.2844 139.722 42.2844C139.722 42.2844 138.59 38.0003 139.722 36.7594C140.855 35.5185 149.349 42.2844 149.349 42.2844C149.349 42.2844 144.436 45.8855 145.112 48.4823Z" fill="#2E4057"/>
<path opacity="0.1" d="M116.936 106.184C116.936 106.184 126.292 119.371 132.828 115.091C139.364 110.81 124.037 99.6484 124.037 99.6484L116.936 106.184Z" fill="black"/>
<path d="M116.936 105.511C116.936 105.511 126.292 118.698 132.828 114.417C139.364 110.136 124.037 98.9746 124.037 98.9746L116.936 105.511Z" fill="#A1616A"/>
<path opacity="0.1" d="M161.826 112.77C162.54 106.545 164.609 97.1926 162.922 94.3557C162.087 92.9491 161.468 90.2677 161.015 87.3328C160.771 85.7537 160.578 84.1003 160.423 82.5313C160.01 78.369 159.879 74.8051 159.879 74.8051C159.879 74.8051 155.821 56.7084 156.609 52.989C157.103 50.6627 156.534 44.8334 156.041 40.7961L156.301 40.5898L162.134 48.2552C162.134 48.2552 165.4 74.6293 163.71 77.2227C163.371 77.7604 162.861 79.4307 162.289 81.7435L165.515 80.391L164.839 87.042L166.868 111.952L161.826 112.77Z" fill="black"/>
<path d="M156.149 36.6074C156.149 36.6074 161.978 41.4934 164.196 41.605C164.196 41.605 163.598 44.31 161.119 45.4394C161.119 45.4394 167.206 46.2441 169.461 45.8958C171.716 45.5475 175.659 46.1156 176.447 47.2483C177.234 48.3811 178.945 49.835 180.298 50.0582C181.65 50.2814 183.121 51.6372 183.121 51.6372L173.197 66.2884C173.197 66.2884 169.589 75.3063 170.377 77.335C171.165 79.3638 170.262 90.7486 169.643 91.3099C169.025 91.8712 170.715 114.529 173.759 114.529C173.759 114.529 165.42 120.166 162.938 118.475C160.457 116.785 166.097 98.5256 163.615 94.3531C161.133 90.1806 160.572 74.8025 160.572 74.8025C160.572 74.8025 156.514 56.7092 157.305 52.9898C158.096 49.2703 156.149 36.6074 156.149 36.6074Z" fill="#2E4057"/>
<path opacity="0.1" d="M223.724 72.5396C220.711 71.5996 216.096 71.5725 215.244 79.6403C213.982 76.658 213.191 74.1187 213.191 74.1187L222.442 70.2031C222.442 70.2031 223.01 71.1093 223.724 72.5396Z" fill="black"/>
<path d="M177.593 50.9609L183.121 51.6372C183.121 51.6372 184.812 53.8925 186.384 53.8925C187.957 53.8925 189.201 55.9213 189.201 55.9213C189.201 55.9213 191.456 57.1588 192.92 56.8207C194.385 56.4826 200.471 55.9247 201.374 56.8816C202.276 57.8385 208.136 58.7379 208.136 58.7379C208.136 58.7379 210.392 62.2308 212.42 62.2308C214.449 62.2308 225.719 70.4608 226.057 73.389C226.057 73.389 214.899 66.2883 214.787 81.8997C214.787 81.8997 210.053 77.6731 209.262 75.8709C208.471 74.0687 201.147 74.8024 201.147 74.8024C201.147 74.8024 196.19 72.6012 195.399 71.1371C194.608 69.673 189.989 73.4702 188.525 72.3577C187.061 71.2453 173.759 65.4565 173.759 65.4565L169.644 57.7235L177.593 50.9609Z" fill="#2E4057"/>
<path d="M152.101 64.6521C152.63 64.6521 153.058 64.2237 153.058 63.6952C153.058 63.1667 152.63 62.7383 152.101 62.7383C151.573 62.7383 151.145 63.1667 151.145 63.6952C151.145 64.2237 151.573 64.6521 152.101 64.6521Z" fill="#333333"/>
<path d="M151.145 84.6345C151.673 84.6345 152.101 84.2061 152.101 83.6776C152.101 83.1491 151.673 82.7207 151.145 82.7207C150.616 82.7207 150.188 83.1491 150.188 83.6776C150.188 84.2061 150.616 84.6345 151.145 84.6345Z" fill="#333333"/>
<path d="M152.101 74.1189C152.63 74.1189 153.058 73.6905 153.058 73.162C153.058 72.6335 152.63 72.2051 152.101 72.2051C151.573 72.2051 151.145 72.6335 151.145 73.162C151.145 73.6905 151.573 74.1189 152.101 74.1189Z" fill="#333333"/>
<path d="M149.339 95.1501C149.867 95.1501 150.296 94.7217 150.296 94.1932C150.296 93.6648 149.867 93.2363 149.339 93.2363C148.81 93.2363 148.382 93.6648 148.382 94.1932C148.382 94.7217 148.81 95.1501 149.339 95.1501Z" fill="#333333"/>
<path opacity="0.1" d="M119.097 220.36C118.627 221.675 117.163 221.192 117.163 221.192C112.557 220.685 109.768 208.262 110.951 206.838C112.135 205.415 110.214 202.128 110.214 202.128L107.722 203.099L105.44 196.086L106.88 194.311C108.314 196.796 110.366 200.37 110.85 201.283C111.768 203.176 112.204 205.267 112.118 207.369C112.04 209.567 114.59 220.076 119.097 220.36Z" fill="black"/>
<path opacity="0.1" d="M159.527 24.5038C159.297 24.426 159.067 24.3347 158.851 24.2434C158.076 23.929 157.261 23.5672 156.791 22.8909C156.362 22.262 156.223 21.3761 155.554 21.0177C154.783 20.6052 153.863 21.1631 153.028 21.3558C152.034 21.5891 150.999 21.3118 150.032 20.9568C148.592 20.4259 146.58 19.4488 145.102 20.4598C143.953 21.2442 144.399 22.9078 144.105 24.0946C143.648 25.9374 141.691 27.1378 141.322 29.0009C141.156 29.8225 141.264 30.8268 140.598 31.3374C140.404 31.476 140.183 31.5727 139.949 31.6214C139.296 30.2994 138.93 28.8545 138.873 27.3812C138.817 25.9078 139.072 24.4391 139.622 23.0711C140.172 21.703 141.004 20.4663 142.064 19.4418C143.125 18.4173 144.389 17.6281 145.775 17.1256C147.161 16.6231 148.638 16.4187 150.109 16.5257C151.579 16.6327 153.01 17.0488 154.309 17.7467C155.608 18.4447 156.745 19.4087 157.646 20.576C158.547 21.7432 159.191 23.0874 159.537 24.5207L159.527 24.5038Z" fill="black"/>
<path d="M150.025 20.2728C150.982 20.6279 152.024 20.9051 153.021 20.6685C153.87 20.469 154.773 19.911 155.544 20.3303C156.22 20.6921 156.355 21.5746 156.781 22.2036C157.251 22.8798 158.066 23.2585 158.844 23.5561C159.424 23.8265 160.044 24.0001 160.68 24.07C160.998 24.1012 161.319 24.0585 161.618 23.9453C161.917 23.8321 162.186 23.6515 162.404 23.4174C163.006 22.6905 162.823 21.6017 162.465 20.7327C162.107 19.8637 161.599 18.9981 161.637 18.0581C161.681 16.9423 162.489 15.9718 162.556 14.8594C162.644 13.4494 161.505 12.2186 160.213 11.6472C159.057 11.1366 157.735 10.9946 156.676 10.2947C155.469 9.50344 154.806 8.13063 153.914 6.99452C152.615 5.34107 150.583 4.1069 148.504 4.34359C147.222 4.48899 146.059 5.15849 144.784 5.41884C142.847 5.82122 140.798 5.23625 138.87 5.68596C138.405 5.75923 137.979 5.99236 137.667 6.34531C137.193 6.981 137.437 7.87028 137.646 8.63445C138.022 10.0106 138.181 11.5694 137.433 12.7799C136.588 14.1493 134.793 14.7275 134.012 16.1341C133.786 16.5468 133.661 17.0071 133.647 17.4773C133.634 17.9475 133.732 18.4142 133.934 18.8392C134.306 19.6169 135.026 20.2492 135.138 21.1046C135.215 21.72 134.962 22.3185 134.83 22.9204C134.698 23.5223 134.735 24.2729 135.232 24.611C135.729 24.9492 136.426 24.8646 136.808 25.2873C136.923 25.4551 137 25.6469 137.031 25.8484C137.062 26.0498 137.047 26.2556 136.987 26.4505C136.852 27.1267 136.564 27.7387 136.412 28.4015C136.315 28.7265 136.287 29.0686 136.332 29.405C136.377 29.7414 136.493 30.0644 136.673 30.3525C137.329 31.2384 138.654 31.1843 139.716 30.9476C140.022 30.8988 140.314 30.7834 140.571 30.6094C141.247 30.0989 141.129 29.0946 141.295 28.273C141.663 26.4133 143.621 25.2061 144.078 23.3667C144.372 22.1799 143.925 20.5129 145.075 19.7285C146.57 18.7648 148.585 19.742 150.025 20.2728Z" fill="#2F2D2E"/>
<path opacity="0.1" d="M148.382 142.592C148.382 142.592 158.996 149.354 159.334 151.948L148.382 142.592Z" fill="black"/>
<path opacity="0.1" d="M147.838 148.002C147.838 148.002 160.01 153.862 159.334 155.891L147.838 148.002Z" fill="black"/>
<path opacity="0.1" d="M147.03 153.188C147.03 153.188 153.907 156.795 154.357 158.936L147.03 153.188Z" fill="black"/>
<path opacity="0.1" d="M149.961 161.303C149.961 161.303 154.468 165.249 155.371 164.234C156.274 163.22 149.961 161.303 149.961 161.303Z" fill="black"/>
<path opacity="0.1" d="M143.648 163.781C143.648 163.781 147.161 169.414 145.471 169.753C143.78 170.091 143.648 163.781 143.648 163.781Z" fill="black"/>
<path opacity="0.1" d="M128.226 63.6973C128.226 63.6973 122.252 67.3017 124.054 68.2045C125.856 69.1073 128.226 63.6973 128.226 63.6973Z" fill="black"/>
<path opacity="0.1" d="M128.226 50.3965C128.226 50.3965 122.14 61.5547 124.957 60.7669C127.773 59.979 128.226 50.3965 128.226 50.3965Z" fill="black"/>
<path opacity="0.1" d="M192.903 61.5547C192.903 61.5547 189.184 65.9301 189.86 68.3173L192.903 61.5547Z" fill="black"/>
<path opacity="0.1" d="M202.615 63.6973C202.615 63.6973 197.032 68.6542 197.85 69.2189L202.615 63.6973Z" fill="black"/>
<path opacity="0.1" d="M206.091 69.7871C206.091 69.7871 205.526 73.0467 206.429 73.1684L206.091 69.7871Z" fill="black"/>
<path opacity="0.05" d="M145.17 138.558C143.733 140.418 143.733 143.715 143.084 145.067C142.729 145.811 141.937 147.096 141.295 148.137C141.085 147.461 140.68 147.059 140.047 147.414C139.631 144.313 138.898 138.96 138.661 137.882C138.323 136.36 142.042 132.303 142.042 132.303C142.042 132.303 145.677 133.064 146.607 134.923C147.537 136.783 146.607 136.702 145.17 138.558Z" fill="black"/>
<path opacity="0.1" d="M126.404 99.4275C122.346 99.9888 114.796 110.809 114.796 110.809C114.796 110.809 113.805 109.368 112.429 107.357C110.698 104.804 108.371 101.324 106.681 98.687L116.588 88.4688L118.39 90.4096C118.39 90.4096 121.886 93.9025 121.886 94.5787C121.886 94.8425 122.563 95.6439 123.421 96.5196C124.737 97.8823 126.404 99.4275 126.404 99.4275Z" fill="black"/>
<path opacity="0.1" d="M113.463 53.6675C113.321 53.38 113.21 53.167 113.125 53.0352L117.494 53.3259L119.81 67.7032C118.082 63.7606 114.701 56.1324 113.463 53.6675Z" fill="black"/>
<path opacity="0.1" d="M122.748 97.2051C119.124 100.813 114.028 105.871 112.435 107.349C112.202 107.569 112.043 107.711 111.976 107.758C111.832 107.855 111.671 107.925 111.502 107.964C109.91 105.624 107.637 102.253 105.879 99.5111L106.691 98.6725L115.908 89.1914L117.048 90.4188C117.048 90.4188 120.544 93.9117 120.544 94.5879C120.544 94.9125 121.636 96.0892 122.748 97.2051Z" fill="black"/>
<path d="M118.177 53.3284L113.105 52.9902C113.105 52.9902 111.753 56.145 110.627 56.3715C109.501 56.5981 108.033 59.1881 108.033 59.1881C108.033 59.1881 103.692 59.9794 103.881 61.3319C104.07 62.6844 97.2063 72.3583 97.2063 72.3583C97.2063 72.3583 94.9509 76.9974 96.53 80.3787C98.1091 83.76 99.235 86.0153 99.5732 87.2528C99.9113 88.4904 103.915 93.9038 103.881 94.9182C103.847 95.9326 114.113 110.81 114.113 110.81C114.113 110.81 121.663 99.9902 125.721 99.4255C125.721 99.4255 121.213 95.2563 121.213 94.5801C121.213 93.9038 117.744 90.411 117.744 90.411L113.349 85.6772C113.349 85.6772 111.881 85.0009 113.349 83.76C114.816 82.519 110.87 79.7024 110.87 79.7024C110.87 79.7024 110.755 77.6736 112.223 77.109C113.69 76.5443 115.604 72.8283 115.604 72.8283L120.902 70.1232L118.177 53.3284Z" fill="#2E4057"/>
<path opacity="0.1" d="M98.8089 75.7531C98.8089 75.7531 104.895 74.5155 105.007 75.3034C105.118 76.0912 98.8089 75.7531 98.8089 75.7531Z" fill="black"/>
<path opacity="0.1" d="M103.881 81.8984C103.881 81.8984 109.041 82.5747 108.814 83.677C108.588 84.7793 103.881 81.8984 103.881 81.8984Z" fill="black"/>
<path opacity="0.1" d="M108.145 62.7363C108.145 62.7363 113.105 69.7593 113.781 68.3053L108.145 62.7363Z" fill="black"/>
<g opacity="0.1">
<path opacity="0.1" d="M137.951 10.4075C137.981 9.58825 137.878 8.76949 137.646 7.98314C137.548 7.65056 137.474 7.31162 137.423 6.96875C137.38 7.54167 137.456 8.11733 137.646 8.65939C137.807 9.23024 137.909 9.81598 137.951 10.4075Z" fill="#333333"/>
<path opacity="0.1" d="M161.664 17.8444C161.795 16.83 162.492 15.907 162.556 14.8689C162.567 14.6962 162.56 14.5229 162.536 14.3516C162.404 15.3998 161.677 16.3296 161.637 17.3947C161.632 17.5451 161.641 17.6956 161.664 17.8444Z" fill="#333333"/>
<path opacity="0.1" d="M162.404 22.7484C162.186 22.9825 161.917 23.1631 161.618 23.2763C161.319 23.3895 160.998 23.4321 160.68 23.401C160.044 23.3311 159.423 23.1574 158.844 22.887C158.066 22.5726 157.251 22.2108 156.781 21.5345C156.352 20.9056 156.213 20.0231 155.543 19.6613C154.773 19.2488 153.853 19.8067 153.018 19.9994C152.024 20.2361 150.989 19.9588 150.025 19.6038C148.585 19.0729 146.57 18.0958 145.092 19.1034C143.942 19.8878 144.389 21.5548 144.094 22.7416C143.638 24.5811 141.68 25.7848 141.312 27.6479C141.146 28.4696 141.254 29.4738 140.588 29.9844C140.33 30.1589 140.037 30.2743 139.729 30.3225C138.654 30.5592 137.328 30.6133 136.686 29.7274C136.5 29.4742 136.384 29.177 136.348 28.8652C136.261 29.4023 136.382 29.9526 136.686 30.4036C137.342 31.2895 138.667 31.2354 139.729 30.9988C140.037 30.9506 140.33 30.8351 140.588 30.6606C141.264 30.15 141.146 29.1458 141.312 28.3242C141.68 26.4644 143.638 25.2573 144.094 23.4179C144.389 22.2311 143.942 20.5641 145.092 19.7796C146.57 18.7653 148.585 19.7492 150.025 20.2801C150.982 20.6351 152.024 20.9124 153.018 20.6757C153.87 20.4762 154.773 19.9183 155.543 20.3375C156.22 20.6993 156.352 21.5819 156.781 22.2108C157.251 22.887 158.066 23.2657 158.844 23.5633C159.423 23.8337 160.044 24.0073 160.68 24.0773C160.998 24.1084 161.319 24.0657 161.618 23.9525C161.917 23.8393 162.186 23.6587 162.404 23.4247C162.568 23.2049 162.685 22.9537 162.748 22.6867C162.811 22.4196 162.818 22.1426 162.769 21.8727C162.734 22.1934 162.607 22.4973 162.404 22.7484Z" fill="#333333"/>
<path opacity="0.1" d="M135.137 20.4375C135.026 19.582 134.306 18.9497 133.934 18.172C133.794 17.8792 133.705 17.5648 133.67 17.2422C133.605 17.7917 133.697 18.3483 133.934 18.8483C134.295 19.6023 134.978 20.2245 135.12 21.0394C135.155 20.8406 135.161 20.6379 135.137 20.4375Z" fill="#333333"/>
<path opacity="0.1" d="M137.017 25.7208C137.066 25.539 137.073 25.3487 137.04 25.1635C137.007 24.9783 136.933 24.8026 136.825 24.649C136.443 24.2128 135.716 24.3108 135.249 23.9727C135.125 23.8749 135.022 23.7533 134.946 23.6151C134.87 23.4769 134.822 23.3249 134.806 23.168C134.732 23.7191 134.806 24.3277 135.249 24.649C135.692 24.9702 136.443 24.9026 136.825 25.3252C136.92 25.4396 136.986 25.5754 137.017 25.7208Z" fill="#333333"/>
</g>
<path d="M56.7525 200.846C56.7525 200.846 42.7674 200.001 44.4141 209.803C44.4141 209.803 44.076 211.535 45.6584 212.323C45.6584 212.323 45.6821 211.596 47.0921 211.842C47.5936 211.926 48.1032 211.95 48.6103 211.913C49.2966 211.867 49.9491 211.598 50.47 211.149C50.47 211.149 54.4025 209.523 55.9308 203.098C55.9308 203.098 57.0601 201.695 57.0162 201.337L54.6493 202.351C54.6493 202.351 55.4574 204.042 54.8217 205.469C54.8217 205.469 54.744 202.425 54.2909 202.483C54.1996 202.5 53.0635 203.075 53.0635 203.075C53.0635 203.075 54.4532 206.04 53.4016 208.197C53.4016 208.197 53.8006 204.542 52.6273 203.288L50.9671 204.258C50.9671 204.258 52.5901 207.322 51.4878 209.824C51.4878 209.824 51.7718 205.989 50.6188 204.495L49.1107 205.668C49.1107 205.668 50.6357 208.688 49.7058 210.764C49.7058 210.764 49.5841 206.297 48.7861 205.962C48.7861 205.962 47.4674 207.122 47.2679 207.599C47.2679 207.599 48.3094 209.793 47.6635 210.95C47.6635 210.95 47.2679 207.974 46.94 207.961C46.94 207.961 45.628 209.932 45.4928 211.281C45.4928 211.281 45.5502 209.273 46.6221 207.771C45.8657 207.916 45.1678 208.278 44.6136 208.813C44.6136 208.813 44.8165 207.42 46.9467 207.298C46.9467 207.298 48.0321 205.803 48.3229 205.712C48.3229 205.712 46.2028 205.536 44.9213 206.104C44.9213 206.104 46.0507 204.792 48.7084 205.387L50.1961 204.174C50.1961 204.174 47.41 203.795 46.2265 204.214C46.2265 204.214 47.579 203.051 50.5985 203.9L52.2148 202.933C52.2148 202.933 49.8479 202.419 48.421 202.595C48.421 202.595 49.9155 201.79 52.6881 202.662L53.8479 202.141C53.8479 202.141 52.1066 201.803 51.596 201.746C51.0854 201.688 51.0584 201.55 51.0584 201.55C52.1611 201.367 53.2927 201.494 54.3281 201.915C54.3281 201.915 56.7964 200.999 56.7525 200.846Z" fill="#99C24D"/>
<path opacity="0.1" d="M47.1193 214.849C52.5872 214.849 57.0197 214.1 57.0197 213.176C57.0197 212.251 52.5872 211.502 47.1193 211.502C41.6515 211.502 37.2189 212.251 37.2189 213.176C37.2189 214.1 41.6515 214.849 47.1193 214.849Z" fill="#2E4057"/>
<defs>
<linearGradient id="paint0_linear" x1="161.299" y1="221.28" x2="161.299" y2="3.48069" gradientUnits="userSpaceOnUse">
<stop stop-color="#808080" stop-opacity="0.25"/>
<stop offset="0.54" stop-color="#808080" stop-opacity="0.12"/>
<stop offset="1" stop-color="#808080" stop-opacity="0.1"/>
</linearGradient>
</defs>
</svg>
