<svg width="389" height="264" viewBox="0 0 389 264" fill="none" xmlns="http://www.w3.org/2000/svg">
<path d="M312.391 244.973C310.753 250.973 306.455 255.514 303.637 257.964C302.295 259.131 300.341 258.615 299.761 256.934C298.561 253.459 297.161 247.505 298.79 241.536C300.427 235.535 304.726 230.995 307.544 228.545C308.886 227.378 310.84 227.894 311.42 229.575C312.619 233.049 314.02 239.004 312.391 244.973Z" fill="#99C24D"/>
<path d="M308.561 243.015C304.052 247.302 302.096 253.027 301.271 256.614C300.863 258.387 302.313 259.866 304.098 259.514C307.826 258.779 313.885 256.975 318.445 252.64C322.954 248.354 324.91 242.629 325.735 239.042C326.143 237.269 324.693 235.79 322.908 236.141C319.18 236.876 313.122 238.681 308.561 243.015Z" fill="#99C24D"/>
<path d="M52.0408 210.03C52.2276 209.994 52.4174 209.976 52.6077 209.976H65.0939C65.455 209.976 65.813 209.911 66.1509 209.784L98.4401 197.627C98.4533 197.622 98.4527 197.623 98.4659 197.618C98.8891 197.453 121.749 188.628 119.864 205.857C118.437 218.907 116.205 235.307 115.18 242.681C114.907 244.645 112.824 245.826 110.946 245.186C107.378 243.972 102.003 242.532 98.4599 243.384C94.321 244.379 95.1842 229.252 95.9715 220.861C96.1919 218.511 93.7848 216.736 91.6315 217.702C79.5315 223.133 49.0831 236.425 45.6625 234.231C42.3613 232.113 41.0401 220.199 40.6083 214.856C40.4879 213.367 41.5211 212.054 42.9886 211.772L52.0408 210.03Z" fill="#2F2E41"/>
<path opacity="0.1" d="M52.0408 210.03C52.2276 209.994 52.4174 209.976 52.6077 209.976H65.0939C65.455 209.976 65.813 209.911 66.1509 209.784L98.4401 197.627C98.4533 197.622 98.4527 197.623 98.4659 197.618C98.8891 197.453 121.749 188.628 119.864 205.857C118.437 218.907 116.205 235.307 115.18 242.681C114.907 244.645 112.824 245.826 110.946 245.186C107.378 243.972 102.003 242.532 98.4599 243.384C94.321 244.379 95.1842 229.252 95.9715 220.861C96.1919 218.511 93.7848 216.736 91.6315 217.702C79.5315 223.133 49.0831 236.425 45.6625 234.231C42.3613 232.113 41.0401 220.199 40.6083 214.856C40.4879 213.367 41.5211 212.054 42.9886 211.772L52.0408 210.03Z" fill="#333333"/>
<path d="M71.2166 170.544C72.4594 170.131 73.8268 170.571 74.5945 171.633L89.186 191.803C89.343 192.02 89.5284 192.215 89.7372 192.383L126.456 221.897C126.813 222.185 127.212 222.382 127.659 222.486C132.428 223.595 161.332 230.564 156.965 235.606C152.514 240.744 126.824 231.458 123.539 230.243C123.307 230.157 123.12 230.062 122.917 229.921C119.225 227.341 79.8426 199.803 78.4826 197.622C77.4077 195.898 68.2362 183.269 63.7758 177.141C62.58 175.499 63.3287 173.169 65.2566 172.528L71.2166 170.544Z" fill="#A0616A"/>
<path opacity="0.1" d="M71.2166 170.544C72.4594 170.131 73.8268 170.571 74.5945 171.633L89.186 191.803C89.343 192.02 89.5284 192.215 89.7372 192.383L126.456 221.897C126.813 222.185 127.212 222.382 127.659 222.486C132.428 223.595 161.332 230.564 156.965 235.606C152.514 240.744 126.824 231.458 123.539 230.243C123.307 230.157 123.12 230.062 122.917 229.921C119.225 227.341 79.8426 199.803 78.4826 197.622C77.4077 195.898 68.2362 183.269 63.7758 177.141C62.58 175.499 63.3287 173.169 65.2566 172.528L71.2166 170.544Z" fill="black"/>
<path d="M60.8755 155.195C62.251 153.591 64.8096 153.874 65.8017 155.739L73.6625 170.522C74.0097 171.175 74.1057 171.93 73.8956 172.639C73.1393 175.191 71.0239 181.339 68.0183 182.061C65.1403 182.754 55.1876 175.592 50.5084 172.061C49.1495 171.036 48.9628 169.088 50.0709 167.795L60.8755 155.195Z" fill="#D0CDE1"/>
<path opacity="0.1" d="M60.8755 155.195C62.251 153.591 64.8096 153.874 65.8017 155.739L73.6625 170.522C74.0097 171.175 74.1057 171.93 73.8956 172.639C73.1393 175.191 71.0239 181.339 68.0183 182.061C65.1403 182.754 55.1876 175.592 50.5084 172.061C49.1495 171.036 48.9628 169.088 50.0709 167.795L60.8755 155.195Z" fill="black"/>
<path d="M191.398 199.789L194.489 212.057C194.524 212.193 194.518 212.337 194.474 212.471L180.452 254.629C180.396 254.796 180.283 254.94 180.131 255.036C179.979 255.132 179.797 255.176 179.615 255.158C179.434 255.141 179.264 255.065 179.134 254.942C179.005 254.819 178.923 254.657 178.902 254.482L176.962 238.059C176.949 237.95 176.961 237.839 176.996 237.735L189.867 199.732C189.921 199.573 190.027 199.436 190.169 199.341C190.311 199.245 190.482 199.197 190.655 199.204C190.828 199.21 190.994 199.271 191.129 199.376C191.263 199.482 191.357 199.627 191.398 199.789Z" fill="#2F2E41"/>
<path d="M187.118 210.244C188.058 207.427 192.103 207.619 192.88 210.485C193.032 211.045 193.02 211.644 192.843 212.196L184.025 239.604C183.096 242.491 178.959 242.334 178.252 239.385L178.094 238.728C177.963 238.182 177.988 237.611 178.166 237.079L187.118 210.244Z" fill="#F2F2F2"/>
<path d="M127.95 258.028C128.409 259.35 173.891 257.7 177.651 257.168C177.827 257.143 177.948 257.041 178.048 256.893C178.396 256.384 178.695 255.845 178.94 255.282C179.124 254.906 179.301 254.531 179.446 254.218C179.678 253.718 179.759 253.162 179.689 252.615L178.219 241.162C178.031 239.704 176.815 238.596 175.346 238.546L132.195 237.073C130.611 237.019 129.26 238.201 129.115 239.778C128.744 243.818 128.091 251.237 127.917 255.282C127.855 256.733 127.855 257.753 127.95 258.028Z" fill="#2F2E41"/>
<path opacity="0.1" d="M168.925 240.641C170.496 240.641 171.8 241.852 171.917 243.419L172.423 250.232C172.552 251.972 171.175 253.454 169.431 253.454H154.257C152.601 253.454 151.257 252.111 151.257 250.454V243.641C151.257 241.984 152.601 240.641 154.257 240.641H168.925Z" fill="black"/>
<path opacity="0.1" d="M144.114 244.761C144.12 244.761 144.126 244.76 144.131 244.759C144.191 244.748 144.244 244.797 144.237 244.857L143.888 248.054C143.751 249.305 142.694 250.253 141.435 250.253H134.502C132.985 250.253 131.756 249.023 131.756 247.507C131.756 245.99 132.985 244.761 134.502 244.761H144.114Z" fill="black"/>
<path opacity="0.1" d="M127.95 258.029C128.417 259.376 175.55 257.641 177.813 257.142C177.889 257.125 177.917 257.082 177.962 257.018C178.505 256.249 177.886 255.283 176.945 255.283H130.669C129.131 255.283 127.447 256.575 127.95 258.029Z" fill="black"/>
<path d="M70.8723 145.451C82.6936 145.451 92.2767 136.231 92.2767 124.857C92.2767 113.484 82.6936 104.264 70.8723 104.264C59.051 104.264 49.468 113.484 49.468 124.857C49.468 136.231 59.051 145.451 70.8723 145.451Z" fill="#A0616A"/>
<path d="M68.2984 141.575C69.0008 142.54 69.052 143.819 68.46 144.855C66.4514 148.37 61.9806 156.542 60.8835 161.468C59.5869 167.29 42.9739 151.952 39.9498 149.101C39.6363 148.806 39.3973 148.447 39.2393 148.046L37.9119 144.679C37.3247 143.189 38.0008 141.498 39.426 140.769C44.5157 138.163 55.3191 131.954 54.2243 126.688C53.0268 120.927 64.5591 136.438 68.2984 141.575Z" fill="#A0616A"/>
<path d="M71.4784 179.179C72.5691 178.982 73.6794 179.403 74.366 180.273L92.4895 203.239C92.6638 203.46 92.8683 203.655 93.097 203.819L138.845 236.606C139.189 236.852 139.56 237.019 139.974 237.106C144.496 238.064 172.53 244.246 165.527 248.878C158.183 253.736 137.55 244.956 136.115 244.336C136.059 244.311 136.041 244.304 135.986 244.275C134.26 243.384 88.7571 219.855 78.9583 209.979C72.0373 203.003 61.0057 192.731 54.8827 187.08C53.0569 185.395 53.9457 182.342 56.3908 181.901L71.4784 179.179Z" fill="#A0616A"/>
<path d="M45.9239 217.274C46.682 217.189 47.3226 217.656 47.7413 218.294L51.5668 224.122C52.2965 225.233 53.671 225.732 54.9438 225.347L86.8623 215.685C94.3366 213.423 102.533 214.255 109.162 218.274C115.108 221.878 118.913 227.598 110.351 236.064C96.9728 249.294 87.0784 246.6 83.3905 244.789C82.3762 244.291 81.1878 244.127 80.1521 244.579C70.6512 248.727 23.2952 268.632 14.7452 257.116C8.14673 248.228 5.89629 242.422 5.13671 239.699C4.83212 238.607 5.36971 237.528 6.34584 236.951C13.0094 233.016 38.6851 218.084 45.9239 217.274Z" fill="#333333"/>
<path d="M118.334 247.424C118.403 247.475 118.464 247.518 118.537 247.566C119.818 248.409 132.794 257.331 115.584 261.688C99.8003 265.685 87.6439 261.306 84.8153 260.131C84.3994 259.959 83.9575 259.858 83.5075 259.842C80.4889 259.735 68.494 258.879 68.494 252.078C68.494 245.711 71.9978 243.942 73.2709 243.509C73.5685 243.408 73.8847 243.405 74.196 243.449L89.3067 245.587C89.6973 245.643 90.086 245.622 90.4703 245.533C93.7373 244.775 110.178 241.363 118.334 247.424Z" fill="#D0CDE1"/>
<path d="M88.4312 119.677C89.8881 120.302 91.3327 121.041 92.9166 121.222C94.5005 121.404 96.3041 120.872 97.0535 119.517C97.4584 118.785 97.5046 117.925 97.5235 117.096C97.5808 114.583 97.3919 111.866 95.7367 109.922C94.6833 108.684 93.1457 107.904 92.0553 106.696C91.2741 105.831 90.7541 104.782 90.1943 103.77C88.0737 99.9385 84.934 96.2558 80.5704 95.1511C78.7483 94.6898 76.8368 94.7123 74.9528 94.7379L63.9641 94.887C62.1859 94.9112 60.3802 94.9392 58.6779 95.4344C55.1409 96.4633 52.5657 99.325 50.2071 102.062C48.4425 104.109 46.6733 106.178 45.349 108.513C43.4503 111.92 42.4902 115.738 42.5603 119.603C42.5456 120.594 42.6786 121.583 42.9553 122.538C43.279 123.414 43.6801 124.261 44.1542 125.071C44.7868 126.267 45.3405 127.554 45.737 128.872C46.5677 131.634 50.7499 135.105 53.0194 133.325C54.0453 132.521 54.9836 131.622 55.7973 130.607C56.987 129.122 57.92 127.385 59.5055 126.296C61.091 125.206 63.6743 125.112 64.6916 126.71C65.0412 127.357 65.2213 128.076 65.2161 128.805C65.2903 130.005 65.2883 131.251 65.8171 132.34C66.3458 133.429 67.6054 134.308 68.8079 133.982C70.8789 133.421 70.6805 130.363 72.2757 128.974C73.487 127.919 75.3559 128.12 76.9122 127.641C78.7254 127.083 80.086 125.572 80.8612 123.899C81.4504 122.628 81.4419 119.3 82.5569 118.611C83.9552 117.748 87.1351 119.121 88.4312 119.677Z" fill="#333333"/>
<path d="M35.1639 139.848C36.1269 139.6 37.1406 139.603 38.1022 139.855C41.1556 140.644 48.0003 142.731 49.4678 145.908C51.3704 150.027 58.0296 156.434 58.0296 156.434C58.0296 156.434 58.0296 156.434 58.0296 156.434C58.0296 156.434 67.067 165.129 65.1644 171.078C63.6985 175.662 59.1269 180.789 57.1053 182.901C56.4929 183.541 56.1604 184.391 56.1964 185.276C56.4309 191.052 56.7671 213.238 48.5165 219.588C39.0035 226.91 35.1983 221.876 35.1983 228.741C35.1983 235.473 6.83697 256.288 0.35729 244.574C0.103606 244.115 0.0300907 243.583 0.0878616 243.062C0.561019 238.796 2.75332 218.211 1.90261 210.435C0.965025 201.866 2.3376 148.398 35.1639 139.848Z" fill="#D0CDE1"/>
<path d="M49.88 151.261C50.226 151.349 50.5534 151.496 50.8423 151.706C54.2822 154.205 77.46 171.429 74.5871 179.861C74.395 180.425 73.919 180.823 73.3775 181.071C69.8567 182.686 56.1077 188.868 52.7974 188.47C48.9922 188.012 34.247 171.995 30.4418 170.622C26.6634 169.259 24.7609 144.884 49.88 151.261Z" fill="#D0CDE1"/>
<path d="M180.051 105.86C193.029 105.86 203.549 95.7382 203.549 83.2523C203.549 70.7664 193.029 60.6445 180.051 60.6445C167.074 60.6445 156.554 70.7664 156.554 83.2523C156.554 95.7382 167.074 105.86 180.051 105.86Z" fill="#F2F2F2"/>
<path d="M374.13 50.8908C374.13 52.5477 372.787 53.8908 371.13 53.8908H245.453C243.796 53.8908 242.453 52.5477 242.453 50.8908V30.3809C242.453 28.724 243.796 27.3809 245.453 27.3809H371.13C372.787 27.3809 374.13 28.724 374.13 30.3809V50.8908ZM243.033 50.3327C243.033 51.9896 244.376 53.3327 246.033 53.3327H370.55C372.207 53.3327 373.55 51.9896 373.55 50.3327V30.939C373.55 29.2821 372.207 27.939 370.55 27.939H246.033C244.376 27.939 243.033 29.2821 243.033 30.939V50.3327Z" fill="#2E4057"/>
<path d="M361.559 32.6836H236.462C234.805 32.6836 233.462 34.0267 233.462 35.6836V55.6355C233.462 57.2923 234.805 58.6355 236.462 58.6355H361.559C363.215 58.6355 364.559 57.2923 364.559 55.6355V35.6836C364.559 34.0267 363.215 32.6836 361.559 32.6836Z" fill="#2E4057"/>
<path d="M150.589 7.9185C151.711 7.9185 152.62 7.04394 152.62 5.96511C152.62 4.88628 151.711 4.01172 150.589 4.01172C149.468 4.01172 148.559 4.88628 148.559 5.96511C148.559 7.04394 149.468 7.9185 150.589 7.9185Z" fill="#2E4057"/>
<path d="M157.55 7.9185C158.672 7.9185 159.581 7.04394 159.581 5.96511C159.581 4.88628 158.672 4.01172 157.55 4.01172C156.429 4.01172 155.52 4.88628 155.52 5.96511C155.52 7.04394 156.429 7.9185 157.55 7.9185Z" fill="#2E4057"/>
<path d="M164.511 7.9185C165.632 7.9185 166.541 7.04394 166.541 5.96511C166.541 4.88628 165.632 4.01172 164.511 4.01172C163.39 4.01172 162.481 4.88628 162.481 5.96511C162.481 7.04394 163.39 7.9185 164.511 7.9185Z" fill="#2E4057"/>
<path d="M389 150.583C389 152.24 387.657 153.583 386 153.583H147.789C146.132 153.583 144.789 152.24 144.789 150.583V3.66211C144.789 2.00525 146.132 0.662109 147.789 0.662109H386C387.657 0.662109 389 2.00526 389 3.66211V150.583ZM145.369 150.025C145.369 151.682 146.712 153.025 148.369 153.025H385.42C387.077 153.025 388.42 151.682 388.42 150.025V4.22021C388.42 2.56336 387.077 1.22022 385.42 1.22022H148.369C146.712 1.22022 145.369 2.56336 145.369 4.22022V150.025Z" fill="#2E4057"/>
<path d="M388.431 9.12695H145.358C145.204 9.12695 145.079 9.25189 145.079 9.40601C145.079 9.56012 145.204 9.68506 145.358 9.68506H388.431C388.585 9.68506 388.71 9.56012 388.71 9.40601C388.71 9.25189 388.585 9.12695 388.431 9.12695Z" fill="#2E4057"/>
<path d="M221.859 153.228V9.69433C221.859 9.53415 221.729 9.4043 221.569 9.4043C221.409 9.4043 221.279 9.53415 221.279 9.69433V153.228C221.279 153.389 221.409 153.518 221.569 153.518C221.729 153.518 221.859 153.389 221.859 153.228Z" fill="#2E4057"/>
<path d="M288.824 80.2637H251.769C250.228 80.2637 248.979 81.513 248.979 83.0542C248.979 84.5954 250.228 85.8447 251.769 85.8447H288.824C290.365 85.8447 291.614 84.5954 291.614 83.0542C291.614 81.513 290.365 80.2637 288.824 80.2637Z" fill="#F2F2F2"/>
<path d="M355.822 80.2637H318.768C317.227 80.2637 315.977 81.513 315.977 83.0542C315.977 84.5954 317.227 85.8447 318.768 85.8447H355.822C357.364 85.8447 358.613 84.5954 358.613 83.0542C358.613 81.513 357.364 80.2637 355.822 80.2637Z" fill="#F2F2F2"/>
<path d="M294.225 80.3325C294.225 81.9893 292.882 83.3325 291.225 83.3325H254.009C252.352 83.3325 251.009 81.9893 251.009 80.3325V80.1934C251.009 78.5365 252.352 77.1934 254.009 77.1934H291.225C292.882 77.1934 294.225 78.5365 294.225 80.1934V80.3325ZM251.589 80.2629C251.589 81.65 252.714 82.7744 254.101 82.7744H291.133C292.52 82.7744 293.645 81.65 293.645 80.2629C293.645 78.8759 292.52 77.7515 291.133 77.7515H254.101C252.714 77.7515 251.589 78.8759 251.589 80.2629Z" fill="#2E4057"/>
<path d="M288.824 123.516H251.769C250.228 123.516 248.979 124.765 248.979 126.306C248.979 127.847 250.228 129.097 251.769 129.097H288.824C290.365 129.097 291.614 127.847 291.614 126.306C291.614 124.765 290.365 123.516 288.824 123.516Z" fill="#F2F2F2"/>
<path d="M294.225 123.583C294.225 125.239 292.882 126.583 291.225 126.583H254.009C252.352 126.583 251.009 125.239 251.009 123.583V123.443C251.009 121.787 252.352 120.443 254.009 120.443H291.225C292.882 120.443 294.225 121.787 294.225 123.443V123.583ZM251.589 123.513C251.589 124.9 252.714 126.024 254.101 126.024H291.133C292.52 126.024 293.645 124.9 293.645 123.513C293.645 122.126 292.52 121.001 291.133 121.001H254.101C252.714 121.001 251.589 122.126 251.589 123.513Z" fill="#2E4057"/>
<path d="M355.967 101.332H251.914C250.373 101.332 249.124 102.581 249.124 104.123C249.124 105.664 250.373 106.913 251.914 106.913H355.967C357.509 106.913 358.758 105.664 358.758 104.123C358.758 102.581 357.509 101.332 355.967 101.332Z" fill="#F2F2F2"/>
<path d="M361.368 101.958C361.368 103.614 360.025 104.957 358.368 104.957H254.154C252.497 104.957 251.154 103.614 251.154 101.957V101.818C251.154 100.162 252.497 98.8184 254.154 98.8184H358.368C360.025 98.8184 361.368 100.162 361.368 101.818V101.958ZM251.734 101.888C251.734 103.275 252.859 104.399 254.246 104.399H358.277C359.664 104.399 360.788 103.275 360.788 101.888C360.788 100.501 359.664 99.3765 358.277 99.3765H254.246C252.859 99.3765 251.734 100.501 251.734 101.888Z" fill="#2E4057"/>
<path d="M361.223 80.3325C361.223 81.9893 359.88 83.3325 358.223 83.3325H321.008C319.351 83.3325 318.008 81.9893 318.008 80.3325V80.1934C318.008 78.5365 319.351 77.1934 321.008 77.1934H358.223C359.88 77.1934 361.223 78.5365 361.223 80.1934V80.3325ZM318.588 80.2629C318.588 81.65 319.712 82.7744 321.099 82.7744H358.132C359.519 82.7744 360.643 81.65 360.643 80.2629C360.643 78.8759 359.519 77.7515 358.132 77.7515H321.099C319.712 77.7515 318.588 78.8759 318.588 80.2629Z" fill="#2E4057"/>
<path d="M184.028 99.9463C179.309 99.9463 174.696 98.6 170.772 96.0776C166.849 93.5552 163.791 89.97 161.985 85.7754C160.179 81.5808 159.707 76.9653 160.627 72.5123C161.548 68.0594 163.82 63.9691 167.157 60.7587C170.494 57.5483 174.745 55.362 179.373 54.4763C184.001 53.5905 188.799 54.0451 193.158 55.7826C197.518 57.52 201.244 60.4623 203.866 64.2373C206.488 68.0123 207.887 72.4505 207.887 76.9907C207.88 83.0768 205.364 88.9116 200.891 93.2151C196.418 97.5187 190.354 99.9394 184.028 99.9463ZM184.028 54.7308C179.452 54.7308 174.979 56.0363 171.174 58.4823C167.369 60.9282 164.404 64.4047 162.653 68.4722C160.902 72.5397 160.444 77.0154 161.336 81.3334C162.229 85.6514 164.433 89.6178 167.668 92.7309C170.904 95.844 175.026 97.964 179.514 98.8229C184.002 99.6818 188.654 99.241 192.882 97.5562C197.109 95.8714 200.723 93.0183 203.265 89.3577C205.807 85.697 207.164 81.3933 207.164 76.9907C207.157 71.0891 204.717 65.4311 200.38 61.258C196.043 57.0849 190.162 54.7375 184.028 54.7308Z" fill="#2E4057"/>
<path d="M372.385 259.594H270.775C270.583 259.594 270.427 259.749 270.427 259.942C270.427 260.134 270.583 260.289 270.775 260.289H372.385C372.577 260.289 372.732 260.134 372.732 259.942C372.732 259.749 372.577 259.594 372.385 259.594Z" fill="#2E4057"/>
</svg>
