<svg width="208" height="34" viewBox="0 0 208 34" fill="none" xmlns="http://www.w3.org/2000/svg">
<path d="M49.962 29.6132C49.6094 29.6132 49.3009 29.492 49.0365 29.2497C48.7942 28.9852 48.673 28.6768 48.673 28.3242V20.0616L39.6833 5.81686C39.4629 5.48635 39.3748 5.16687 39.4189 4.85839C39.485 4.54992 39.6282 4.29654 39.8485 4.09824C40.0688 3.89993 40.3443 3.80078 40.6748 3.80078C40.9392 3.80078 41.1485 3.85587 41.3027 3.96603C41.479 4.0762 41.6332 4.23044 41.7654 4.42874L50.6891 18.8057H49.3009L58.1915 4.49484C58.3458 4.25247 58.511 4.0762 58.6873 3.96603C58.8856 3.85587 59.1169 3.80078 59.3813 3.80078C59.6898 3.80078 59.9432 3.91095 60.1415 4.13129C60.3618 4.32959 60.483 4.58297 60.5051 4.89145C60.5491 5.19992 60.472 5.50839 60.2737 5.81686L51.2509 20.0616V28.3242C51.2509 28.6768 51.1187 28.9852 50.8543 29.2497C50.612 29.492 50.3145 29.6132 49.962 29.6132Z" fill="#99C24D"/>
<path d="M68.5967 29.7783C66.834 29.7783 65.2586 29.3817 63.8705 28.5884C62.4824 27.7952 61.3917 26.7046 60.5985 25.3164C59.8053 23.9283 59.4087 22.3529 59.4087 20.5902C59.4087 18.8055 59.8053 17.2191 60.5985 15.831C61.3917 14.4428 62.4824 13.3522 63.8705 12.559C65.2586 11.7657 66.834 11.3691 68.5967 11.3691C70.3594 11.3691 71.9238 11.7657 73.2899 12.559C74.678 13.3522 75.7687 14.4428 76.5619 15.831C77.3551 17.2191 77.7627 18.8055 77.7848 20.5902C77.7848 22.3529 77.3771 23.9283 76.5619 25.3164C75.7687 26.7046 74.678 27.7952 73.2899 28.5884C71.9238 29.3817 70.3594 29.7783 68.5967 29.7783ZM68.5967 27.4647C69.8747 27.4647 71.0204 27.1673 72.034 26.5724C73.0475 25.9775 73.8407 25.1622 74.4136 24.1266C74.9865 23.091 75.2729 21.9122 75.2729 20.5902C75.2729 19.2682 74.9865 18.0894 74.4136 17.0538C73.8407 15.9962 73.0475 15.1699 72.034 14.575C71.0204 13.9801 69.8747 13.6827 68.5967 13.6827C67.3188 13.6827 66.173 13.9801 65.1595 14.575C64.1459 15.1699 63.3417 15.9962 62.7468 17.0538C62.1739 18.0894 61.8875 19.2682 61.8875 20.5902C61.8875 21.9122 62.1739 23.091 62.7468 24.1266C63.3417 25.1622 64.1459 25.9775 65.1595 26.5724C66.173 27.1673 67.3188 27.4647 68.5967 27.4647Z" fill="#99C24D"/>
<path d="M90.6326 29.8121C89.0682 29.8121 87.6691 29.4926 86.4352 28.8536C85.2013 28.1926 84.2208 27.2341 83.4937 25.9782C82.7886 24.7223 82.4361 23.191 82.4361 21.3842V12.7911C82.4361 12.4385 82.5573 12.1411 82.7997 11.8987C83.042 11.6563 83.3395 11.5352 83.692 11.5352C84.0666 11.5352 84.3751 11.6563 84.6174 11.8987C84.8598 12.1411 84.981 12.4385 84.981 12.7911V21.3842C84.981 22.7503 85.2344 23.874 85.7411 24.7553C86.27 25.6367 86.975 26.2977 87.8564 26.7384C88.7598 27.1791 89.7733 27.3994 90.897 27.3994C91.9767 27.3994 92.9462 27.1901 93.8055 26.7714C94.6868 26.3528 95.3809 25.7799 95.8876 25.0528C96.3944 24.3257 96.6478 23.4994 96.6478 22.574H98.4656C98.3995 23.9621 98.0139 25.207 97.3088 26.3087C96.6258 27.3884 95.7004 28.2477 94.5326 28.8867C93.3648 29.5036 92.0648 29.8121 90.6326 29.8121ZM97.9037 29.6138C97.5292 29.6138 97.2207 29.5036 96.9783 29.2833C96.758 29.0409 96.6478 28.7214 96.6478 28.3248V12.7911C96.6478 12.4165 96.758 12.119 96.9783 11.8987C97.2207 11.6563 97.5292 11.5352 97.9037 11.5352C98.2783 11.5352 98.5868 11.6563 98.8291 11.8987C99.0715 12.119 99.1927 12.4165 99.1927 12.7911V28.3248C99.1927 28.7214 99.0715 29.0409 98.8291 29.2833C98.5868 29.5036 98.2783 29.6138 97.9037 29.6138Z" fill="#99C24D"/>
<path d="M106.786 29.6132C106.433 29.6132 106.125 29.492 105.86 29.2497C105.618 28.9852 105.497 28.6768 105.497 28.3242V5.08975C105.497 4.71518 105.618 4.40671 105.86 4.16434C106.125 3.92197 106.433 3.80078 106.786 3.80078C107.314 3.80078 107.7 4.02112 107.942 4.46179L119.08 26.6056H117.957L128.896 4.46179C129.161 4.02112 129.546 3.80078 130.053 3.80078C130.406 3.80078 130.703 3.92197 130.945 4.16434C131.188 4.40671 131.309 4.71518 131.309 5.08975V28.3242C131.309 28.6768 131.188 28.9852 130.945 29.2497C130.703 29.492 130.406 29.6132 130.053 29.6132C129.679 29.6132 129.359 29.492 129.095 29.2497C128.852 28.9852 128.731 28.6768 128.731 28.3242V8.42785L129.293 8.4609L119.543 28.3903C119.301 28.809 118.926 29.0183 118.419 29.0183C117.868 29.0183 117.472 28.7539 117.23 28.2251L107.414 8.5931L108.075 8.42785V28.3242C108.075 28.6768 107.942 28.9852 107.678 29.2497C107.436 29.492 107.138 29.6132 106.786 29.6132Z" fill="#99C24D"/>
<path d="M145.768 29.7783C143.983 29.7783 142.396 29.3927 141.008 28.6215C139.642 27.8283 138.563 26.7376 137.769 25.3495C136.998 23.9614 136.613 22.375 136.613 20.5902C136.613 18.7835 136.976 17.197 137.703 15.831C138.452 14.4428 139.477 13.3522 140.777 12.559C142.077 11.7657 143.575 11.3691 145.272 11.3691C146.946 11.3691 148.401 11.7547 149.634 12.5259C150.89 13.275 151.86 14.3216 152.543 15.6657C153.226 17.0098 153.567 18.5411 153.567 20.2597C153.567 20.6123 153.457 20.8987 153.237 21.119C153.017 21.3173 152.73 21.4165 152.378 21.4165H138.331V19.3013H152.642L151.221 20.3258C151.243 19.0479 151.012 17.9021 150.527 16.8886C150.042 15.875 149.348 15.0818 148.445 14.5089C147.563 13.9361 146.506 13.6496 145.272 13.6496C144.016 13.6496 142.914 13.9471 141.967 14.542C141.019 15.1369 140.281 15.9632 139.752 17.0208C139.246 18.0564 138.992 19.2462 138.992 20.5902C138.992 21.9343 139.279 23.1241 139.852 24.1597C140.446 25.1953 141.251 26.0105 142.264 26.6054C143.278 27.2003 144.446 27.4978 145.768 27.4978C146.561 27.4978 147.354 27.3656 148.147 27.1012C148.962 26.8147 149.612 26.4622 150.097 26.0436C150.34 25.8453 150.615 25.7461 150.923 25.7461C151.232 25.7241 151.496 25.8012 151.717 25.9775C152.003 26.2419 152.146 26.5283 152.146 26.8368C152.168 27.1452 152.047 27.4096 151.783 27.63C151.056 28.2469 150.13 28.7647 149.006 29.1833C147.883 29.58 146.803 29.7783 145.768 29.7783Z" fill="#99C24D"/>
<path d="M165.424 29.7785C163.684 29.7785 162.119 29.3819 160.731 28.5886C159.343 27.7734 158.241 26.6717 157.426 25.2836C156.633 23.8955 156.236 22.3201 156.236 20.5574C156.236 18.8167 156.622 17.2523 157.393 15.8642C158.186 14.4761 159.255 13.3854 160.599 12.5922C161.943 11.777 163.463 11.3693 165.16 11.3693C166.636 11.3693 167.969 11.6888 169.159 12.3278C170.349 12.9447 171.307 13.771 172.034 14.8066V5.08975C172.034 4.69314 172.156 4.38467 172.398 4.16434C172.64 3.92197 172.949 3.80078 173.323 3.80078C173.698 3.80078 174.006 3.92197 174.249 4.16434C174.491 4.38467 174.612 4.69314 174.612 5.08975V20.6896C174.568 22.4082 174.139 23.9616 173.323 25.3497C172.53 26.7158 171.44 27.7954 170.051 28.5886C168.685 29.3819 167.143 29.7785 165.424 29.7785ZM165.424 27.4649C166.702 27.4649 167.837 27.1675 168.829 26.5726C169.842 25.9556 170.635 25.1294 171.208 24.0938C171.803 23.0582 172.101 21.8794 172.101 20.5574C172.101 19.2574 171.803 18.0896 171.208 17.054C170.635 15.9964 169.842 15.1701 168.829 14.5752C167.837 13.9803 166.702 13.6829 165.424 13.6829C164.168 13.6829 163.034 13.9803 162.02 14.5752C161.007 15.1701 160.202 15.9964 159.607 17.054C159.013 18.0896 158.715 19.2574 158.715 20.5574C158.715 21.8794 159.013 23.0582 159.607 24.0938C160.202 25.1294 161.007 25.9556 162.02 26.5726C163.034 27.1675 164.168 27.4649 165.424 27.4649Z" fill="#99C24D"/>
<path d="M182.38 29.6125C181.984 29.6125 181.664 29.5023 181.422 29.282C181.202 29.0396 181.091 28.7201 181.091 28.3235V12.8229C181.091 12.4263 181.202 12.1178 181.422 11.8974C181.664 11.6551 181.984 11.5339 182.38 11.5339C182.755 11.5339 183.052 11.6551 183.273 11.8974C183.515 12.1178 183.636 12.4263 183.636 12.8229V28.3235C183.636 28.7201 183.515 29.0396 183.273 29.282C183.052 29.5023 182.755 29.6125 182.38 29.6125ZM182.347 8.09664C181.862 8.09664 181.444 7.92037 181.091 7.56783C180.739 7.21529 180.562 6.78564 180.562 6.27887C180.562 5.72802 180.739 5.29837 181.091 4.98989C181.466 4.65939 181.896 4.49414 182.38 4.49414C182.843 4.49414 183.251 4.65939 183.603 4.98989C183.978 5.29837 184.165 5.72802 184.165 6.27887C184.165 6.78564 183.989 7.21529 183.636 7.56783C183.284 7.92037 182.854 8.09664 182.347 8.09664Z" fill="#99C24D"/>
<path d="M198.081 29.7783C196.385 29.7783 194.864 29.3817 193.52 28.5884C192.176 27.7732 191.108 26.6715 190.314 25.2834C189.543 23.8953 189.158 22.3309 189.158 20.5902C189.158 18.8275 189.554 17.2521 190.348 15.864C191.163 14.4759 192.264 13.3852 193.653 12.592C195.041 11.7768 196.605 11.3691 198.346 11.3691C200.086 11.3691 201.64 11.7768 203.006 12.592C204.394 13.3852 205.485 14.4759 206.278 15.864C207.093 17.2521 207.512 18.8275 207.534 20.5902L206.509 21.3834C206.509 22.9699 206.135 24.402 205.385 25.68C204.658 26.9359 203.656 27.9384 202.378 28.6876C201.122 29.4147 199.69 29.7783 198.081 29.7783ZM198.346 27.4647C199.624 27.4647 200.758 27.1673 201.75 26.5724C202.764 25.9775 203.557 25.1622 204.13 24.1266C204.724 23.069 205.022 21.8902 205.022 20.5902C205.022 19.2682 204.724 18.0894 204.13 17.0538C203.557 16.0182 202.764 15.203 201.75 14.6081C200.758 13.9911 199.624 13.6827 198.346 13.6827C197.09 13.6827 195.955 13.9911 194.942 14.6081C193.928 15.203 193.124 16.0182 192.529 17.0538C191.934 18.0894 191.637 19.2682 191.637 20.5902C191.637 21.8902 191.934 23.069 192.529 24.1266C193.124 25.1622 193.928 25.9775 194.942 26.5724C195.955 27.1673 197.09 27.4647 198.346 27.4647ZM206.245 29.613C205.87 29.613 205.562 29.5028 205.319 29.2825C205.077 29.0401 204.956 28.7317 204.956 28.3571V22.7055L205.584 20.0945L207.534 20.5902V28.3571C207.534 28.7317 207.413 29.0401 207.17 29.2825C206.928 29.5028 206.619 29.613 206.245 29.613Z" fill="#99C24D"/>
<path d="M16.9783 5.86893L18.8715 3.98438L29.2818 14.33L27.3843 16.2146L16.9783 5.86893Z" fill="#94C6EE"/>
<path d="M28.5157 18.207L31.3361 18.207L31.336 2.80712L28.5157 2.80713L28.5157 18.207Z" fill="#94C6EE"/>
<path d="M3.68718 7.33123C5.72355 7.33123 7.37436 5.69008 7.37436 3.66562C7.37436 1.64115 5.72355 0 3.68718 0C1.65081 0 0 1.64115 0 3.66562C0 5.69008 1.65081 7.33123 3.68718 7.33123Z" fill="#99C24E"/>
<path d="M16.8446 7.33123C18.881 7.33123 20.5318 5.69008 20.5318 3.66562C20.5318 1.64115 18.881 0 16.8446 0C14.8082 0 13.1574 1.64115 13.1574 3.66562C13.1574 5.69008 14.8082 7.33123 16.8446 7.33123Z" fill="#94C6EE"/>
<path d="M29.9244 7.33123C31.9607 7.33123 33.6115 5.69008 33.6115 3.66562C33.6115 1.64115 31.9607 0 29.9244 0C27.888 0 26.2372 1.64115 26.2372 3.66562C26.2372 5.69008 27.888 7.33123 29.9244 7.33123Z" fill="#94C6EE"/>
<path d="M3.85539 33.6125C5.89177 33.6125 7.54257 31.9713 7.54257 29.9469C7.54257 27.9224 5.89177 26.2812 3.85539 26.2812C1.81902 26.2812 0.168213 27.9224 0.168213 29.9469C0.168213 31.9713 1.81902 33.6125 3.85539 33.6125Z" fill="#94C6EE"/>
<path d="M29.9244 20.3547C31.9607 20.3547 33.6115 18.7135 33.6115 16.6891C33.6115 14.6646 31.9607 13.0234 29.9244 13.0234C27.888 13.0234 26.2372 14.6646 26.2372 16.6891C26.2372 18.7135 27.888 20.3547 29.9244 20.3547Z" fill="#94C6EE"/>
<path d="M3.85539 20.3547C5.89177 20.3547 7.54257 18.7135 7.54257 16.6891C7.54257 14.6646 5.89177 13.0234 3.85539 13.0234C1.81902 13.0234 0.168213 14.6646 0.168213 16.6891C0.168213 18.7135 1.81902 20.3547 3.85539 20.3547Z" fill="#94C6EE"/>
<path d="M16.8446 20.5871C18.881 20.5871 20.5318 18.9459 20.5318 16.9215C20.5318 14.897 18.881 13.2559 16.8446 13.2559C14.8082 13.2559 13.1574 14.897 13.1574 16.9215C13.1574 18.9459 14.8082 20.5871 16.8446 20.5871Z" fill="#94C6EE"/>
<path d="M29.9244 33.6125C31.9607 33.6125 33.6115 31.9713 33.6115 29.9469C33.6115 27.9224 31.9607 26.2812 29.9244 26.2812C27.888 26.2812 26.2372 27.9224 26.2372 29.9469C26.2372 31.9713 27.888 33.6125 29.9244 33.6125Z" fill="#94C6EE"/>
<path d="M16.7799 33.6125C18.8163 33.6125 20.4671 31.9713 20.4671 29.9469C20.4671 27.9224 18.8163 26.2812 16.7799 26.2812C14.7435 26.2812 13.0927 27.9224 13.0927 29.9469C13.0927 31.9713 14.7435 33.6125 16.7799 33.6125Z" fill="#94C6EE"/>
<path d="M16.9783 18.8021L18.8715 16.9219L29.2818 27.2675L27.3843 29.1521L16.9783 18.8021Z" fill="#94C6EE"/>
<path d="M30.4893 28.6133H15.7708V31.2741H30.4893V28.6133Z" fill="#94C6EE"/>
<path d="M5.19655 16.6895H2.51849V31.3217H5.19655V16.6895Z" fill="#94C6EE"/>
</svg>
