<svg width="39" height="39" viewBox="0 0 39 39" fill="none" xmlns="http://www.w3.org/2000/svg">
<circle cx="19.5" cy="19.5" r="19.5" fill="#2E4057"/>
<path fill-rule="evenodd" clip-rule="evenodd" d="M16.4453 12.6309C16.5689 12.4454 16.7771 12.334 17 12.334H21C21.2229 12.334 21.4311 12.4454 21.5547 12.6309L22.6901 14.334H25C25.5304 14.334 26.0391 14.5447 26.4142 14.9198C26.7893 15.2948 27 15.8036 27 16.334V23.6673C27 24.1978 26.7893 24.7065 26.4142 25.0815C26.0391 25.4566 25.5304 25.6673 25 25.6673H13C12.4696 25.6673 11.9609 25.4566 11.5858 25.0815C11.2107 24.7065 11 24.1978 11 23.6673V16.334C11 15.8036 11.2107 15.2948 11.5858 14.9198C11.9609 14.5447 12.4696 14.334 13 14.334H15.3099L16.4453 12.6309ZM17.3568 13.6673L16.2214 15.3705C16.0977 15.5559 15.8896 15.6673 15.6667 15.6673H13C12.8232 15.6673 12.6536 15.7376 12.5286 15.8626C12.4036 15.9876 12.3333 16.1572 12.3333 16.334V23.6673C12.3333 23.8441 12.4036 24.0137 12.5286 24.1387C12.6536 24.2637 12.8232 24.334 13 24.334H25C25.1768 24.334 25.3464 24.2637 25.4714 24.1387C25.5964 24.0137 25.6667 23.8441 25.6667 23.6673V16.334C25.6667 16.1572 25.5964 15.9876 25.4714 15.8626C25.3464 15.7376 25.1768 15.6673 25 15.6673H22.3333C22.1104 15.6673 21.9023 15.5559 21.7786 15.3705L20.6432 13.6673H17.3568Z" fill="white"/>
<path fill-rule="evenodd" clip-rule="evenodd" d="M19.0001 17.6673C17.8955 17.6673 17.0001 18.5627 17.0001 19.6673C17.0001 20.7719 17.8955 21.6673 19.0001 21.6673C20.1047 21.6673 21.0001 20.7719 21.0001 19.6673C21.0001 18.5627 20.1047 17.6673 19.0001 17.6673ZM15.6667 19.6673C15.6667 17.8264 17.1591 16.334 19.0001 16.334C20.841 16.334 22.3334 17.8264 22.3334 19.6673C22.3334 21.5083 20.841 23.0006 19.0001 23.0006C17.1591 23.0006 15.6667 21.5083 15.6667 19.6673Z" fill="white"/>
</svg>
