<svg width="39" height="39" viewBox="0 0 39 39" fill="none" xmlns="http://www.w3.org/2000/svg">
<circle cx="19.5" cy="19.5" r="19.5" fill="#2E4057"/>
<path fill-rule="evenodd" clip-rule="evenodd" d="M22.2929 13.2762C22.6834 12.9079 23.3166 12.9079 23.7071 13.2762L29.7071 18.9333C30.0976 19.3015 30.0976 19.8984 29.7071 20.2667L23.7071 25.9238C23.3166 26.292 22.6834 26.292 22.2929 25.9238C21.9024 25.5556 21.9024 24.9586 22.2929 24.5904L27.5858 19.6L22.2929 14.6095C21.9024 14.2413 21.9024 13.6444 22.2929 13.2762Z" fill="white"/>
<path fill-rule="evenodd" clip-rule="evenodd" d="M15.7071 13.2762C16.0976 13.6444 16.0976 14.2413 15.7071 14.6095L10.4142 19.6L15.7071 24.5904C16.0976 24.9586 16.0976 25.5556 15.7071 25.9238C15.3165 26.292 14.6834 26.292 14.2929 25.9238L8.29289 20.2667C7.90237 19.8984 7.90237 19.3015 8.29289 18.9333L14.2929 13.2762C14.6834 12.9079 15.3165 12.9079 15.7071 13.2762Z" fill="white"/>
</svg>
