<svg width="39" height="39" viewBox="0 0 39 39" fill="none" xmlns="http://www.w3.org/2000/svg">
<circle cx="19.5" cy="19.5" r="19.5" fill="#2E4057"/>
<path fill-rule="evenodd" clip-rule="evenodd" d="M22.8619 19.1953C23.1223 18.9349 23.5444 18.9349 23.8047 19.1953L25.8047 21.1953C26.0651 21.4556 26.0651 21.8777 25.8047 22.1381L21.1381 26.8047C20.8777 27.0651 20.4556 27.0651 20.1953 26.8047L18.1953 24.8047C17.9349 24.5444 17.9349 24.1223 18.1953 23.8619L22.8619 19.1953ZM19.6095 24.3333L20.6667 25.3905L24.3905 21.6667L23.3333 20.6095L19.6095 24.3333Z" fill="white"/>
<path fill-rule="evenodd" clip-rule="evenodd" d="M12.179 13.179C12.3295 13.0285 12.5476 12.9671 12.7545 13.0171L21.6156 15.156C21.8469 15.2118 22.0248 15.3968 22.0715 15.6302L22.9881 20.2135C23.0282 20.4138 22.9655 20.621 22.821 20.7655L19.7655 23.821C19.621 23.9655 19.4138 24.0282 19.2135 23.9881L14.6302 23.0715C14.3968 23.0248 14.2118 22.8469 14.156 22.6156L12.0171 13.7545C11.9671 13.5476 12.0285 13.3295 12.179 13.179ZM13.4398 14.4398L15.2525 21.9495L19.1325 22.7255L21.7255 20.1325L20.9495 16.2525L13.4398 14.4398Z" fill="white"/>
<path fill-rule="evenodd" clip-rule="evenodd" d="M12.1833 13.1833C12.4278 12.9389 12.8241 12.9389 13.0685 13.1833L17.8167 17.9315C18.0611 18.1759 18.0611 18.5722 17.8167 18.8167C17.5722 19.0611 17.1759 19.0611 16.9315 18.8167L12.1833 14.0685C11.9389 13.8241 11.9389 13.4278 12.1833 13.1833Z" fill="white"/>
<path fill-rule="evenodd" clip-rule="evenodd" d="M18 18.3333C17.6318 18.3333 17.3333 18.6318 17.3333 19C17.3333 19.3682 17.6318 19.6667 18 19.6667C18.3682 19.6667 18.6667 19.3682 18.6667 19C18.6667 18.6318 18.3682 18.3333 18 18.3333ZM16 19C16 17.8954 16.8954 17 18 17C19.1046 17 20 17.8954 20 19C20 20.1046 19.1046 21 18 21C16.8954 21 16 20.1046 16 19Z" fill="white"/>
</svg>
