<svg width="28" height="24" viewBox="0 0 28 24" fill="none" xmlns="http://www.w3.org/2000/svg">
<path fill-rule="evenodd" clip-rule="evenodd" d="M11.9102 0.460642C12.4466 0.15865 13.0518 0 13.6674 0C14.2829 0 14.8881 0.15865 15.4245 0.460642C15.9609 0.762634 16.4104 1.19777 16.7296 1.72408L16.7331 1.72975L26.8451 18.611L26.8548 18.6275C27.1675 19.169 27.333 19.7831 27.3347 20.4084C27.3365 21.0338 27.1744 21.6488 26.8648 22.1921C26.5551 22.7354 26.1085 23.1882 25.5695 23.5053C25.0305 23.8225 24.4179 23.993 23.7925 23.9999L23.7794 24L3.54223 23.9999C2.91687 23.9931 2.30423 23.8225 1.76523 23.5053C1.22624 23.1882 0.779678 22.7354 0.469986 22.1921C0.160294 21.6488 -0.00173699 21.0338 1.4043e-05 20.4084C0.00176514 19.7831 0.167237 19.169 0.479967 18.6275L0.489665 18.611L10.6017 1.72976L11.6258 2.34323L10.6051 1.72408C10.9244 1.19777 11.3739 0.762634 11.9102 0.460642ZM12.6481 2.96004L2.54377 19.8284C2.44208 20.0072 2.38831 20.2093 2.38773 20.4151C2.38715 20.6236 2.44116 20.8286 2.54439 21.0097C2.64762 21.1908 2.79647 21.3417 2.97614 21.4474C3.15423 21.5522 3.35644 21.609 3.56298 21.6122H23.7718C23.9783 21.609 24.1805 21.5522 24.3586 21.4474C24.5383 21.3417 24.6871 21.1908 24.7903 21.0097C24.8936 20.8286 24.9476 20.6236 24.947 20.4151C24.9464 20.2093 24.8927 20.0072 24.791 19.8284L14.6881 2.96242C14.6876 2.96163 14.6872 2.96083 14.6867 2.96004C14.5804 2.78567 14.4311 2.64148 14.2531 2.54127C14.0743 2.44061 13.8726 2.38773 13.6674 2.38773C13.4622 2.38773 13.2605 2.44061 13.0817 2.54127C12.9037 2.64148 12.7544 2.78567 12.6481 2.96004Z" fill="#2E4057"/>
<path fill-rule="evenodd" clip-rule="evenodd" d="M13.6677 7.28516C14.3271 7.28516 14.8616 7.81967 14.8616 8.47902V13.2545C14.8616 13.9138 14.3271 14.4483 13.6677 14.4483C13.0084 14.4483 12.4739 13.9138 12.4739 13.2545V8.47902C12.4739 7.81967 13.0084 7.28516 13.6677 7.28516Z" fill="#2E4057"/>
<path d="M14.8616 17.5767C14.8616 18.236 14.3271 18.7705 13.6677 18.7705C13.0084 18.7705 12.4739 18.236 12.4739 17.5767C12.4739 16.9173 13.0084 16.3828 13.6677 16.3828C14.3271 16.3828 14.8616 16.9173 14.8616 17.5767Z" fill="#2E4057"/>
</svg>
